<?xml version="1.0" encoding="utf-8"?>
<!-- Generator: Adobe Illustrator 25.0.0, SVG Export Plug-In . SVG Version: 6.00 Build 0)  -->
<svg version="1.1" xmlns="http://www.w3.org/2000/svg" xmlns:xlink="http://www.w3.org/1999/xlink" x="0px" y="0px"
	 viewBox="0 0 745.1 231.2" style="enable-background:new 0 0 745.1 231.2;" xml:space="preserve">
<style type="text/css">
	.st0{fill:#E59E24;stroke:#000000;stroke-width:2;stroke-miterlimit:10;}
</style>
<g id="Layer_1">
	<g>
		<path class="st0" d="M23.1,85.9l-8,3.1c-2.1,1-3,2.4-2.7,4.2c0.2,5.9,5,10.3,14.6,13.1l-0.7-69c-0.6-5.2-3.5-8.9-8.6-11.1h41.4
			c-3.4,2.7-5.1,5.8-5.1,9.3l1.1,71.2c6.1-2.1,13.4-5.7,21.9-10.8V33.7c0-3.7-0.3-6.1-0.9-7.3c-1.2-2.2-4.1-4.4-8.9-6.6l42.7-0.7
			c-5.5,4.7-8.4,8.8-8.9,12.2l0.9,49.8c6.5-3.4,11.3-5.1,14.4-5.1c3.1,0,7,0.9,11.7,2.7c-5.2,4-7.7,9.1-7.6,15.3
			c-3-4.1-6.2-6.2-9.6-6.2c-2.4,0-5.4,1-8.9,3.1l1.5,79.9c0,3.8,3.3,7.1,10,9.7l-46.7-0.7c5.6-2.4,9-5.9,10.2-10.6v-62.4
			c-8.2,4.6-15.5,7.7-21.9,9.3v44c0.7,4.4,4.2,7.9,10.4,10.4l-50.7-0.7c8.1-2.5,12.2-6.9,12.2-13.3v-42.7
			c-14.3-3.4-21.3-11.4-21-23.9c5.2-2.8,9.6-4.2,13.3-4.2C20.5,85.7,21.8,85.8,23.1,85.9z"/>
		<path class="st0" d="M130.4,73.5l-6.6-8.9c-2.4-3.1-3.5-6.4-3.5-10c0-1.3,0.4-2.4,1.1-3.3c1.5-1.9,8.7-6.7,21.7-14.4
			c4.9,3.5,10,7.5,15.5,11.7c7.8,6.2,11.4,11.2,10.6,15l-0.9,50.4l8.2,0.4l-16.2,17.9c-3.8,2.7-6.5,4-8.1,4c-1.5,0-2-0.9-1.6-2.7v-8
			l-14,8.9c-6.4,1.2-12.4-11.7-17.9-38.5c2.5-5,7.1-9,13.7-11.9l14.6-6.6c-5,5.5-7.5,9.7-7.3,12.8c-0.3,2.1-0.4,4.1-0.4,6.2
			c0,9.9,2.1,17.7,6.4,23.5c2.4,0.3,4-1,4.9-4V51.4l-3.3,1.8c-0.7,0.4-2.7,1.7-6,3.8c-5.5,3.4-8.2,6.4-8.2,9.1l2,7.3L130.4,73.5z"/>
		<path class="st0" d="M177.6,42.3c7.5-5.2,16.1-11.6,25.7-19.2V43c7.7-6.6,12.7-10,15-10c0.7,0,1.3,0.2,1.5,0.7l10.4,18.1
			c1.2,1.3,1.8,2.7,1.8,4c0,1.5-0.7,2.4-2.2,2.9l-20.4,11.9v-0.9c3.1-2.9,4.9-5.7,5.3-8.2c-0.6-2.2-1.6-4.9-3.1-8.2
			c-1.9-4.1-3.4-6-4.4-5.8c-0.9,0.1-2,1.1-3.3,2.9c-0.6,22-0.2,43.7,1.1,65c0.3,4.7,2.6,7.6,6.9,8.6c-2.1,0-5.2,0-9.4,0
			c-4.2,0-7.3,0-9.4,0c-1.3,0-3.4,0-6.1,0c-2.7,0-4.8,0-6.1,0c3.8-1.6,6.1-2.9,6.9-4c0.6-0.6,0.9-2.1,0.9-4.4V41.9L177.6,42.3z"/>
		<path class="st0" d="M228.9,42.3c7.5-5.2,16.1-11.6,25.7-19.2V43c7.7-6.6,12.7-10,15-10c0.7,0,1.3,0.2,1.5,0.7l10.4,18.1
			c1.2,1.3,1.8,2.7,1.8,4c0,1.5-0.7,2.4-2.2,2.9l-20.4,11.9v-0.9c3.1-2.9,4.9-5.7,5.3-8.2c-0.6-2.2-1.6-4.9-3.1-8.2
			c-1.9-4.1-3.4-6-4.4-5.8c-0.9,0.1-2,1.1-3.3,2.9c-0.6,22-0.2,43.7,1.1,65c0.3,4.7,2.6,7.6,6.9,8.6c-2.1,0-5.2,0-9.4,0
			c-4.2,0-7.3,0-9.4,0c-1.3,0-3.4,0-6.1,0c-2.7,0-4.8,0-6.1,0c3.8-1.6,6.1-2.9,6.9-4c0.6-0.6,0.9-2.1,0.9-4.4V41.9L228.9,42.3z"/>
		<path class="st0" d="M282.4,68.7H315c-4.1,0.9-6.3,2.8-6.4,5.8l2.7,15.5c1.2,6.9,2.4,10.5,3.8,10.6c0.9-0.1,6.6-11.4,17.3-33.7
			c-0.1-1.6-0.5-2.6-1.1-2.9l-5.5-2.6l26.1,0.4c-7.4,13.7-16.6,30.5-27.7,50.3c-17,30.5-26.8,45.7-29.6,45.7c-0.1,0-0.3-0.1-0.4-0.2
			c-18.4-1.6-29-2.9-31.6-4c-6.6-0.9-14.5-3.9-23.5-9.1c-1.5-0.9-2.2-1.8-2.2-2.7c0-1,0.9-2.6,2.7-4.6c3.7-4.3,5.7-6.6,6-7.1
			c6.2-0.3,11.2-0.4,15-0.4c3.7,0,6.3,0.1,7.7,0.4c-0.1,1-0.7,1.7-1.5,2c-1.8,0.9-6.4,2.2-13.9,3.9l-4,5c5.2,2.6,18.4,3.9,39.8,3.7
			l11.1-19.4c1-2.6,1.5-5.4,1.5-8.2c0-7.1-4.3-21.9-12.8-44.6C287,71.3,285.1,70,282.4,68.7z"/>
		<path class="st0" d="M465.3,43.8l-4.9,50l-23.9,12.8l-17-17.7l0.2,47.3l-8.4-12.8l-0.9-1.8l1.3,57.7l-7.1-11.1l-4.9,53.1
			l-15.9-91.4l8,5.3l-8.4-54.9l11.1,4.9l-9.3-77.7h34.1v11.9l21.2-8.9L465.3,43.8z M439.2,87.2l-2.7-64.8l-17.3,7.2l0.2,55.5l15.3,8
			L439.2,87.2z"/>
		<path class="st0" d="M529.7,140.7c0.7,3.7-3.3,7.8-12.2,12.4c-7.4,3.8-13.4,6.1-18.1,6.6l-4-0.7c-14.9-11.5-22.8-18.9-23.7-22.1
			c-0.3-6.9,0.4-24,2-51.3c10.2-7.4,20.7-13,31.6-16.8L521,79.7l1.8,2.9c3.2,3.1,5.2,9.7,5.8,19.9
			C528.9,107.6,529.2,120.4,529.7,140.7z M508.4,146c0-38.5-1.4-61.3-4.2-68.4l-7.1,4.2c-2.5,1.9-4.1,3.9-4.9,6l1.1,58.2
			c1,3,3,5.1,6,6.4C503.8,151.1,506.8,149,508.4,146z"/>
		<path class="st0" d="M575.9,65.9h-12.4l-2,94c-0.3,0.6-0.4,1.2-0.4,1.8c0,2.7,3.5,7,10.6,13.1l-18.1-6.6
			c-7.1-2.7-10.8-5.8-11.3-9.5l1.1-93.6h-18.6c12.7-7.1,25.4-19.3,38.1-36.7l-0.4,28.1h11.5L575.9,65.9z"/>
		<path class="st0" d="M620.6,65.9h-12.4l-2,94c-0.3,0.6-0.4,1.2-0.4,1.8c0,2.7,3.5,7,10.6,13.1l-18.1-6.6
			c-7.1-2.7-10.8-5.8-11.3-9.5l1.1-93.6h-18.6c12.7-7.1,25.4-19.3,38.1-36.7l-0.4,28.1h11.5L620.6,65.9z"/>
		<path class="st0" d="M680.1,96.3l-5.5,11.5c-5.8-3.4-12.3-5.1-19.7-5.1c-4.4,0-7.2,0.6-8.2,1.8l1.5,36.3c1.2,2.5,3.7,4.8,7.5,6.9
			c2.9-3.8,4.9-8.6,6-14.4c0.1-0.6,0.5-4.3,1.1-11.3l9.7,12.4l-13.5,19.2l-11.3,0.2l-22.3-19.5c-1.2-5.6-1.8-12-1.8-19.2
			c0-10.3,1-21.2,3.1-32.5l24.8-19.5c1.8-0.6,3.2-0.5,4.4,0.2L673.9,75L680.1,96.3z M664.2,97.6l-11.3-25.4c-1-1.3-1.7-2-2-2
			c-0.6,0-1.2,0.5-1.8,1.5l-2.7,25.2C654.8,96.5,660.7,96.7,664.2,97.6z"/>
		<path class="st0" d="M682.6,52.7c7.5-5.2,16.1-11.6,25.7-19.2v19.9c7.7-6.6,12.7-10,15-10c0.7,0,1.3,0.2,1.5,0.7l10.4,18.1
			c1.2,1.3,1.8,2.7,1.8,4c0,1.5-0.7,2.4-2.2,2.9L714.4,81v-0.9c3.1-2.9,4.9-5.7,5.3-8.2c-0.6-2.2-1.6-4.9-3.1-8.2
			c-1.9-4.1-3.4-6-4.4-5.8c-0.9,0.1-2,1.1-3.3,2.9c-0.6,22-0.2,43.7,1.1,65c0.3,4.7,2.6,7.6,6.9,8.6c-2.1,0-5.2,0-9.4,0
			s-7.3,0-9.4,0c-1.3,0-3.4,0-6.1,0c-2.7,0-4.8,0-6.1,0c3.8-1.6,6.1-2.9,6.9-4c0.6-0.6,0.9-2.1,0.9-4.4V52.2L682.6,52.7z"/>
	</g>
</g>
<g id="Layer_2">
</g>
</svg>
