<?xml version="1.0" encoding="utf-8"?>
<!-- Generator: Adobe Illustrator 25.0.0, SVG Export Plug-In . SVG Version: 6.00 Build 0)  -->
<svg version="1.1" id="Layer_1" xmlns="http://www.w3.org/2000/svg" xmlns:xlink="http://www.w3.org/1999/xlink" x="0px" y="0px"
	 viewBox="0 0 792 612" style="enable-background:new 0 0 792 612;" xml:space="preserve">
<style type="text/css">
	.st0{fill-rule:evenodd;clip-rule:evenodd;}
	.st1{fill-rule:evenodd;clip-rule:evenodd;fill:#905744;}
</style>
<g>
	<path class="st0" d="M421.8,272.4l-12.4,0.8l-1.5,0.8l-24.8-1.1l-4.1,0.4l-4.1-0.4l-0.8,0.8c0,0.4-0.4,0.8-0.8,1.5l-1.5,11.3
		c0,0.8-0.4,1.5-0.8,2.3c-0.4,1.1,0,1.9,0.4,2.6c1.9-0.4,3-0.8,3-2.6l1.5-4.1c0.8-2.3,2.3-3.8,3.8-4.1l11.7-0.4l0.4,4.5
		c0,1.5,0,2.6,0.8,4.1l1.5,3.8c0,0-0.4,0.4-0.8,0.4h-0.4l-1.1,31.9c-0.8,1.5-0.8,3.4-0.8,5.3l-4.1,3.8l-2.6,0.4l-1.9,1.5
		c0.4,1.1,1.1,1.5,2.3,1.1l26.3-0.4l1.1-0.7c0.7-0.8,0.7-1.1,0-1.9l-6.4-0.7c-0.8-0.7-0.8-1.1-0.8-2.6l-1.1-4.1l-0.7-4.9l0.4-5.6
		l-1.1-6.4l1.1-11.7l-1.1-11.7c0.8-1.5,1.1-3,0.8-4.9l1.9-1.5l10.9-1.1c1.5,0.4,2.6,2.3,3,5.6l0.4,3c-0.4,0.8,0,1.9,0.4,2.6
		c1.1,0.4,1.5,0,2.3-0.8v-7.9c-0.4-3,0-5.6,0.8-8.3L421.8,272.4L421.8,272.4z M455.3,273.2l-1.9-0.4l-23.3,0.4
		c-0.7,0.4-1.1,1.1-1.1,2.3c1.1,0.8,2.3,1.1,3.4,1.1l1.9,1.9c1.5,1.5,2.3,3,2.3,5.3v5.6l0.4,3.8l-0.4,4.1l1.1,3l-0.7,3.4l-0.4,10.2
		c-0.7,1.1-0.4,1.9,0.4,3c0.7,0.8,1.1,2.3,0.7,3.8c-0.7,1.5-0.7,3-1.1,4.9l-1.1,5.3l-2.6,2.3c-1.5,0.4-2.3,0.7-3.4,1.1
		c-0.8,0.4-0.8,0.7-0.8,1.9h10.2l0.4-0.4l14.7,0.7l1.5-0.7l1.1-1.1l-3.4-0.8c-2.6-1.5-3.8-3-4.5-5.6c-0.5-2.4-0.7-4.7-0.7-7.1
		l-0.4-3.4l0.4-3.4l-0.8-2.6v-1.9c0-0.8,0-1.5,0.4-1.9l1.5-1.5l1.9-0.4h20.7c3-0.4,5.6-1.1,8.3-2.6l0.4,4.1c-0.4,0.8-0.4,1.9,0,3.4
		l0.4,3.8c0.7,4.8,0.4,9.7-1.1,14.3c0,1.9-0.8,3-2.6,3.4c-1.5,0-2.6,0.7-3.8,1.9l0.4,1.5h24.4l1.1-1.5c-0.7-0.4-1.5-0.4-2.6-0.7
		l-2.6-1.9c-1.5-3.4-2.3-7.1-2.6-10.9v-12c-0.4-1.1-0.4-2.3-0.4-3l1.1-7.5v-4.9c-1.1-1.9-1.1-3.8-0.7-5.6c0.7-1.9,1.1-4.1,0.7-6
		l2.3-4.1c1.1-1.5,2.6-1.9,4.1-2.3c0.4-0.4,0.7-0.8,1.1-0.4l0.4-1.1l-3.4-1.1l-10.1,0.8l-10.5-0.4c-1.5-0.4-2.6,0.4-3.4,1.5l1.5,1.1
		l2.3,0.8c1.1,0.8,2.3,1.5,2.6,3l1.1,3.4l0.7,6c0,1.9,0.4,4.1,0.7,6.8c0.8,2.6,0.4,4.5-1.1,6.4l-7.5-1.9h-22.2l-2.6-0.8
		c-0.4-3.5-0.4-7,0-10.5c0-3.4,0.4-6.8,1.5-10.1c0.7-1.1,2.3-2.3,3.8-2.3l3.4-1.5L455.3,273.2L455.3,273.2z M512.4,272.8l-4.1,0.4
		c-1.9-0.4-2.6,0-3,1.9l4.5,2.3c1.1,0.8,1.5,1.9,1.9,3.4v4.5c-0.4,0.4,0,0.8,0,1.1l0.4,2.3c1.1,0.4,1.5,1.5,1.1,2.6l-1.1,3
		c0,0.8,0.4,1.9,1.5,2.6l-0.8,2.6l0.8,2.3c-0.4,1.1-0.8,3-1.1,5.6v7.9c-0.4,2.6,0,4.5,0,5.6c-0.4,1.5-0.4,3.8-0.4,6
		c0.4,1.9-0.4,3.8-2.3,4.9l-2.6,1.9c-1.1,0-1.9,0.8-2.3,1.9l2.3,0.7l2.6-0.4l41,0.7l0.4-0.4c1.9-0.7,3-1.9,3.4-3.4l1.5-4.9
		c0.8-1.5,1.1-2.6,1.1-4.1c-0.4-1.5-0.4-2.6,0-3.8c0-0.7-0.4-1.1-1.1-0.7h-1.5c-0.4,0.4-1.1,1.1-1.1,1.5l-0.4,1.9l-3.4,3.8l-3.8,3.4
		l-4.9,0.4h-9.4c-3-0.4-5.6-1.5-7.9-4.1c-0.4-0.7-0.7-1.9-0.4-3v-2.6l0.8-3.8l-0.4-3.8c-0.7-1.1-0.7-1.9-0.4-2.6l1.1-2.6
		c0,0,0-0.4,0.7-0.4l0.7-0.4l14.7,0.4l2.6,0.8c1.1,0,2.6,0.7,3.4,1.5l2.3,3.4c0.7,0,1.5-0.4,2.3-1.1l0.7-15.8l-0.4-1.1
		c-1.5-0.4-2.3,0-2.6,1.1l-1.1,2.6l-4.9,2.3l-18.8-0.4c-0.8-1.5-1.1-2.6-0.8-4.5c0.8-1.4,0.8-3.1,0-4.5c1.1-1.5,1.5-3,1.1-5.3
		l-1.1-5.6c1.1-1.5,2.3-1.9,3.8-1.5l12.8,0.8l1.5-0.8h1.5l3,1.1c1.9,0.4,3.4,1.5,3.4,3.4c0.4,1.9,0.7,3.4,1.9,4.9l1.9-0.8l0.7-10.5
		l0.8-2.6c0.4-0.8,0-1.5-1.1-1.9H538c-4.1,0.8-8.3,0.4-12.8,0C521,272.1,516.7,272.1,512.4,272.8L512.4,272.8z M280.2,34.9l-6-0.4
		l-4.1,0.4h-20.3l-1.9,1.5l1.5,0.8l1.1,0.8c1.1,0.8,1.5,1.5,1.5,2.6v2.6l0.4,2.3c0.8,0.4,1.1,1.1,0.8,1.9l-0.8,2.3l1.1,1.9
		c-0.8,1.1-0.8,1.9,0,3l-0.8,3.8l-0.4,13.2c0,1.5-0.4,2.6-1.5,3.8l-1.9,0.8l-1.5,1.5l1.5,0.4l29.3,0.4l0.4-0.4
		c1.5-0.4,2.3-0.8,2.6-2.3l0.8-3.4l0.8-5.3l-0.8-0.4h-0.8l-0.8,1.1l-0.8,1.1l-1.9,2.6l-2.6,1.9l-3.4,0.8h-6.4
		c-2.3-0.4-3.8-1.1-5.3-2.6c-0.4-0.8-0.8-1.5-0.4-2.3v-2.3l0.4-2.3v-2.6c-0.8-0.4-0.8-1.1,0-1.5l0.4-1.9l0.4-0.4h10.5
		c0.4,0.4,0.4,0.4,1.1,0.4l3,1.5l1.5,1.9l1.5-0.8l0.8-10.5l-0.8-0.8l-1.5,0.8l-0.7,1.9c-1.1,0.7-2.3,1.1-3.4,1.5l-12.8-0.4
		c-0.4-0.8-0.8-1.9-0.4-3c0.4-0.8,0.4-1.9,0-3l0.8-3.8l-0.8-3.8c0.8-0.8,1.5-0.8,2.6-0.8l8.6,0.4l1.9-0.4h1.1l1.1,0.8
		c1.1,0,1.9,1.1,2.3,2.3l1.1,3l1.1-0.4l0.8-7.1l0.8-1.5C281.3,35.6,280.9,35.3,280.2,34.9z M238.4,40.5l1.9-2.6
		c0.4-0.8,1.5-1.5,2.6-1.5l0.8-0.4v-0.8l-4.9-0.8l-4.1,0.4l-6.8-0.4l-2.6,1.1c0.8,0.8,1.5,1.1,2.6,1.5l1.9,2.3l0.8,2.3l1.1,8.3
		c0.4,1.9,0,3.4-1.1,4.5l-4.9-1.1h-13.2c-1.5,0.4-2.6,0-3.8-0.7v-7.1l1.1-6.8l2.6-1.5l1.1-0.4l1.1-0.8l-1.1-1.1
		c-0.4,0-0.7,0-0.7-0.4l-15.8,0.8l-1.1,1.5l2.6,0.8l1.1,1.1c0.8,1.1,1.5,2.6,1.5,3.8l0.4,6.4l-0.4,2.6c0.8,1.1,0.8,2.6,0.4,4.1
		l-0.4,6.8c-0.4,0.8-0.4,1.5,0.4,2.3c0.4,0.4,0.4,1.1,0.4,2.3l-0.4,3.8l-1.1,3.4c-0.4,1.1-1.1,1.5-1.9,1.5l-1.9,0.8l-0.8,1.1
		l6.8,0.4l0.4-0.4l9.8,0.4l1.9-1.1l-2.3-0.8c-1.9-0.8-2.6-1.9-3-3.8l-0.8-4.5l0.4-4.9l-0.8-1.9l0.4-2.3l1.9-1.5l14.3,0.4l5.6-1.9
		l0.4,2.6l-0.4,2.3l0.4,2.6c0.4,3,0.4,6.4-0.8,9.8c0,1.1-0.8,1.9-1.9,2.3l-2.3,1.1v1.1H243l0.4-1.1l-1.9-0.8l-1.5-1.1
		c-1.1-2.3-1.5-4.5-1.5-7.5l-0.4-7.9c-0.4-0.7-0.4-1.6,0-2.3l0.4-4.9v-3c-0.8-1.1-0.8-2.6-0.4-3.8C238.8,43.5,238.8,42,238.4,40.5
		L238.4,40.5z M183.2,34.9l-0.8,0.8l-16.9-1.1l-3,0.4l-2.6-0.4l-0.8,1.1l-0.4,0.8l-0.8,7.5l-0.4,1.5c-0.4,0.8-0.4,1.5,0,1.9
		c1.1-0.4,1.9-0.8,2.3-1.9l0.7-2.6c0.8-2.3,2.3-3.4,4.5-3.4h6v3.4c0,2.3,0.8,3.8,1.9,4.9l-1.1,0.4l-0.8,18c0.4,1.5,0.4,2.3,0,3.4
		l-0.4,4.1c-0.8,1.1-1.5,1.9-2.6,2.3c-1.5,0-2.6,0.4-3.4,1.5c0.4,0.4,0.8,0.8,1.9,0.8l17.7-0.4l0.8-0.4c0.4-0.4,0.4-1.1-0.4-1.5
		l-4.1-0.8l-1.1-4.1l-0.8-3.4c0.4-1.1,0.4-2.6,0-4.1l-0.4-4.1c0.4-2.3,0.8-4.9,0.4-7.9l-0.4-7.9c0.4-0.8,0.4-1.9,0.4-3l1.5-1.1
		l7.1-0.8c1.1,0,1.9,1.5,2.3,3.8v1.9l0.8,1.9l1.1-0.4l0.4-10.9l-0.4-0.4l-7.1,0.4L183.2,34.9L183.2,34.9L183.2,34.9z M232.8,281.1
		l-3.4,3c-2.3,3-3.8,6-4.1,9l-0.4,4.9l-1.5,3.8v1.9l0.4,0.8l1.1,4.9c0.4,0.7,0.4,2.3,0.4,3.8c0.4,0,0.8,0.8,0.4,1.1l0.4,1.5l1.5,2.6
		c0.7,0.4,1.5,1.5,1.9,2.3l0.8,3.4l1.9,3l2.6,3l3.4,1.9c1.5,1.9,3.4,2.6,5.6,3c1.9,0.4,4.1,1.1,6,2.6l2.3,0.7h15.4
		c5.6-0.4,10.5-1.5,15-3.8c-0.4-0.8-1.1-0.8-2.3-0.8l-2.6,0.4l7.1-4.1l5.6-6.4l2.6-6.4c0-1.9,0.4-3.4,1.5-4.9c0.4-1.5,0.8-3,0.4-5.3
		c0.8-2.3,0.8-4.5,0-6.4l-1.1-6.4c-1.1-3.8-3-7.1-5.3-10.5c-1.1-2.3-3-3.8-4.5-4.9c-2.1-1.1-4-2.5-5.6-4.1l-4.5-1.9l-3.8-0.4
		c-1.5-1.1-3-1.5-4.9-1.5l-5.3,0.4l-4.1-0.4l-4.5,0.4l-6.8,2.3l-4.1,0.8c-1.5,0-2.6,0.4-3.8,1.5l1.5,0.4l2.6-1.1l3,0.4l-0.8,0.8
		l-6.4,2.6C235.1,279.2,233.9,279.9,232.8,281.1z M244.1,281.4l7.1-4.5l10.1-0.4l0.8,0.4l7.9,2.6c2.6,1.9,4.8,4.3,6.4,7.1l4.5,8.6
		c1.1,4.5,1.9,9.4,1.5,14.7c0.4,3.4-0.4,6.4-1.5,9c-0.4,1.5-0.8,2.6-1.5,3.8l-4.1,5.3l-2.3,1.5l-5.3,2.3l-8.6,0.4l-2.6-0.4l-8.6-3.8
		l-0.8-1.5l-6-5.3c0-1.5-0.4-2.6-0.8-3.8l-1.1-3.4l-1.9-3l-1.1-2.6l0.8-2.3c0-0.7,0-1.9-0.4-2.3l0.4-4.5c0-1.5,0.4-3,0-4.5
		c0.8-0.8,1.1-1.1,1.1-1.9v-2.3c-0.4-1.9,0.4-3.8,1.9-4.9C241.4,284.5,243,283.3,244.1,281.4z M303.5,272.8l-2.3-0.8
		c-1.1,0-1.9,0-2.6,1.1v1.5l1.1,0.8c1.1-0.4,2.3,0.4,2.6,1.5l2.3,3l0.8,1.9v1.5c0.8,2.3,1.9,4.5,1.9,7.1c0.4,2.4-0.3,4.9-1.9,6.8
		c0.8,1.5,0.8,2.6,0.8,4.5l-0.4,4.1c0.4,3,0.8,6,0.4,9v8.6l-1.9,6.8l-1.9,1.9l-1.9,1.1l-0.8,0.7l-0.8,1.5l3.4,0.4l3-0.4h12l9,0.4
		l1.1-0.4l0.8-1.1l-6.8-2.3c-1.5-0.4-2.6-1.5-3.4-3l-1.1-4.5l0.4-2.3v-1.9c-0.8-1.9-0.8-4.1,0-5.6c0.8-1.9,1.1-3.8,0.8-5.6
		c0.8-1.1,1.9-1.5,3-1.1l3.8-0.4l12.4,0.4c1.9,0.7,3,1.9,3.4,3.8l0.8,2.6c0,0.7,0.8,1.1,1.9,1.1l1.1-1.1l1.1-13.5l-0.4-5.6
		c-1.5,0-2.3,0.4-2.6,1.1c-0.4,1.5-1.1,2.6-1.9,3.4l-3.4,1.9h-19.9v-7.5c1.1-2.3,1.5-4.5,0.8-6.4c-0.8-2.1-0.8-4.3,0-6.4
		c0.8-1.9,1.9-2.6,3.8-2.3l11.7-0.4l6.8,0.8l3,4.1l1.1,4.9h1.5l1.1-1.1l0.8-1.5v-6.4c0.4-1.9,0.4-4.1,0-6.4l-4.9-0.8l-22.6,0.4
		C314.8,273.2,309.1,273.2,303.5,272.8L303.5,272.8z"/>
	<path class="st1" d="M568.4,100.7c-5.6-3.4-10.9-5.6-16.5-7.5l-21-4.5L500,88.3l-1.1,0.4l-13.2,0.8l-3,2.6
		c-1.5-0.4-2.6-0.8-3.8-1.5h-3.8l-3,1.9l-1.1,3c-0.7,0.8-1.1,0.8-1.5,0.4c-1.9-2.3-3.8-3.8-6-4.1h-8.6l-1.5,0.4l-0.8,0.4l-0.4,0.8
		l-1.9,0.4l-1.9-1.9h-1.1l-1.5,0.4h-3.4l-3.4,0.4l-1.1,0.8l-0.7,3c0,0,0,0.4,0.4,0.8l5.6,0.8h0.4c1.9,0.4,3.4,0.8,5.3,2.3l3.4,1.9
		l1.5,3.8c1.5,1.9,2.6,3.8,3,6l0.4,6.8c1.1,1.5,1.9,3,1.9,4.9l-0.4,3l-0.4,1.9l-0.4,1.5v2.6l0.4,1.5l-0.4,0.4v2.6l1.1,3
		c0.4,1.5,0.4,2.6-0.4,3.8v0.8l-0.4,0.4v4.1l0.4-0.4l0.4,4.1l-0.7,5.3c0.7,1.1,0.7,2.6,0.4,4.1l-0.4,4.1l0.7,1.5
		c0.4,1.5,0.8,3.4,0.4,4.9c-0.7,1.5-0.7,3-0.7,4.5l0.4,6.8c-0.7,1.5-1.1,3-0.7,4.9v4.9c0.7,1.5,1.1,2.6,0.7,4.1l-0.4,3.4
		c-0.4,0.8-0.8,1.9-0.4,3l0.4,6l-0.4,6.4c-1.1,0.8-1.5,1.9-1.1,2.6l1.1,2.6c0.4,0.8,0.4,1.9,0,3c-0.8,1.1-0.8,2.3,0,3.4
		c0.7,1.1,0.4,2.3-0.4,3.4c0,1.9-0.4,4.1-1.5,5.6l-1.9,5.6l-4.1,3c-0.7,0.4-1.1,0.4-1.5,0l-3.8-0.8l-4.1-2.3l-3.4-0.7l-9.8-9.8
		l-10.1-15l-14.7-25.9l-3-6.8c-1.5-2.3-2.6-4.5-2.6-7.1l4.1-3.4l10.9-11.7l3.4-5.6l0.7-1.5l0.8-1.9l1.9-4.5l2.6-18.4V130l-0.7-2.6
		V124l-4.1-11.3c-1.5-3.8-4.1-7.1-7.5-10.1c-3.8-3.4-7.9-6-12-8.3l-3.8-1.5h-0.8l-1.5-0.4l-0.8-0.4l-3.4-0.8v-0.4l-3.4-0.4l-0.4-0.4
		h-0.4l-5.6-0.7c-0.8,0-1.5,0-1.9-0.8l-11.3-0.4h-2.6l-27.4,1.1l-7.9,1.1l-16.5,0.4l-4.9,0.8c-2.3-0.4-3.8,0.4-4.5,1.9l0.8,3.4
		l4.1,0.4l4.1,1.5h0.4l1.5,0.4l3.4,3l0.8,1.1l1.5,4.5l0.4,4.5v1.5l0.8,1.9l0.8,1.5l1.1,12l-0.8,0.4v0.4l-0.4,1.5l0.4,10.1
		c0.8,1.1,1.5,2.3,1.5,3.8v1.1l-1.9,6c-0.8,2.5-0.7,5.1,0.4,7.5c0.4,1.1,0.8,2.3,0,3.4l-0.4,3.8l0.4,2.6v12l0.8,2.6l0.4,0.4l1.9,1.9
		l-2.3,4.5c-1.1,1.9-1.1,3.8-0.8,5.6v10.9l0.8,2.3l-0.8,3v1.9l-0.4,3.4v4.9c0,1.9-0.4,3.4-0.8,4.9c0.4,1.9,0.4,3.8,0,5.6l-1.5,5.3
		l-3.4,4.1l-3.8,3.4l-4.5,0.8c-1.9,0-3.4,0.8-4.5,1.9v1.5l0.4,2.3l3.4,0.8l10.9-0.4l2.3-0.4l20.7-0.8h0.4l2.6,0.8h2.3l4.9,0.4
		l9.8,0.4l6.8-0.4l2.6-0.4H367l1.1-1.9v-2.3l-3-1.1l-4.5-0.8l-3.4-1.5l-4.5-2.6l-3.8-4.5l-0.4-2.6c0.4-2.3,0-3.8-0.4-5.6
		c-1.1-1.5-1.5-3.4-1.5-5.3l0.4-1.9l-0.8-1.9l-0.4-6v-6.8c0.4-3.4,0.4-6.4,0.4-9.4l-1.1-10.9l0.4-0.4l1.1-1.1l2.3-0.8h0.4l0.4,0.4
		l5.3,0.7h0.8l8.6-1.1h7.1l1.5,1.1l4.1,9.8l9.4,17.7c1.5,3.4,3.4,7.1,6,10.5l6.8,10.5l8.3,9l4.1,3.8l4.5,2.6h0.4l0.4,0.4l3.8,1.1
		l3.8,1.9h3.8l2.6,0.8l1.1-0.4c0.5,0.5,1.2,0.7,1.9,0.8h0.4l2.3-0.8H450l13.2,0.8h0.4l1.9-0.8h2.3l1.5,0.4h1.1l2.3-0.4h13.9l2.6,0.8
		h29.3l1.5-0.4h0.4l6.8-0.4l8.6-1.1l1.1-0.4l4.1-0.8h1.1l2.6-0.4h0.8l0.4-0.8h1.9v-0.4c1.9,0,3.8-0.4,5.6-1.5l2.6-1.1l3-0.8l3.8-2.6
		l0.8-0.4l4.9-3c3.8-1.5,6.8-4.1,9.4-7.1l8.6-9.8l7.9-14.7l5.6-16.5V192l1.5-6.8v-1.1l0.7-6l0.4-6.4c0.8-1.9,0.8-3.8,0.4-5.6v-1.1
		l-0.4-1.9l0.4-4.5l-2.3-9.4c-0.7-3.4-1.5-6.4-2.3-9.8l-3.8-9.8c-1.1-3.4-3-6.8-5.6-9.4l-6.4-7.9
		C578.6,107.4,573.7,103.7,568.4,100.7L568.4,100.7z M540.2,108.9l3,1.5l7.5,4.9c0.7,1.5,1.9,2.6,3,3.8c1.5,0.8,2.3,1.9,2.6,3.8
		c2.8,2.4,5,5.5,6.4,9c1.5,1.1,1.9,2.3,1.5,4.1l3,3.8l1.1,3.8v0.4l-0.4-0.4c0.4,1.1,0.8,2.3,1.5,3l1.5,1.5c-0.3,1.1-0.1,2.2,0.8,3
		l1.9,2.6l0.4,0.4c0,0.8,0,1.5-0.8,2.3c-0.4,1.1,0.4,2.3,1.5,2.6h4.5l4.5-0.8l3.4,0.8h0.4l0.8-0.4h2.3l3,0.4l2.6,0.8l0.7,0.4
		l-0.4,1.1h-0.4l-2.3,0.8l-0.4,0.4H591c0,0-0.4-0.4-0.8-0.4h-1.9l-13.5,1.5l-1.9,1.1l-0.4,0.4l-0.7,1.9l1.9,3c0.4,0.8,0.4,1.9,0,3
		l-0.4,3v0.4c-0.4,1.1,0,2.3,0.4,3.4l0.4,0.8l-0.8,3v1.5l0.4,1.9l-0.4,1.1l-1.1,2.6v-0.4l-1.5,11.3c-0.4,3.4-1.5,6.8-3.4,9.4
		c-1.9,3-3.4,6.4-4.5,9.4l-6,7.5c-2.7,1.2-5.1,2.8-7.1,4.9c-2.3,1.9-4.9,3.4-7.5,4.1l-3.8,1.1c-1.1,0.8-2.3,1.1-4.1,0.8l-13.2,1.9
		l-31.2-3l-4.1,0.4l-5.3-1.5h-0.4l-0.7-1.5l1.9-2.3l1.9-1.1l3-0.8c1.1-0.4,1.5-0.8,1.5-1.5l-1.1-3.8l-0.4-6l-0.4-2.3v-1.9l0.7-3.4
		v-2.3l-0.7-1.5c-0.4-1.9-0.4-3.8,0-5.3l0.4-11.7c-0.4-2.6-0.4-4.9,0-7.1l-0.8-44c0.8-1.9,1.1-3.8,0.4-5.3c-0.4-1.9-0.4-3.8,0-5.6
		c0.4-1.9,0.4-4.1,0-6v-0.4l0.4-4.5l-0.4-0.8v-1.5c-0.4-2.3-0.4-4.5,0.4-6.8v-2.6l0.4-1.1h0.4l4.5-1.1l4.5-0.4l9.4-1.5l11.3,0.4
		l9.4,1.5l1.1-0.4l3.8,0.8l0.4,0.8c1.1,0.4,2.6,1.1,3.8,1.1l0.8,0.4L540.2,108.9L540.2,108.9z M386.1,117.6l1.1,2.6l3.4,6.4l0.8,2.3
		l0.7,0.8l0.7,3.4c0.8,1.9,0.8,4.1,0.4,6.4l-0.7,7.1c-1.1,1.9-1.5,3.8-1.5,6c0,2.3-0.8,4.5-1.9,6v1.5l-4.9,6c-1.5,1.9-3,3-5.3,3.8
		l-6.8,3.8l-7.9,1.5l-4.1-0.8l-4.1,0.4c-1.9-0.8-3.4-0.8-4.9,0c-1.5,0.4-3,0-4.1-1.5v-1.5l-1.1-8.6v-2.6l0.8-2.3c0-1.9,0-3-0.4-4.5
		c-0.4-1.1,0-2.6,1.1-3.8l-0.8-2.3l0.4-2.3V145l0.4-2.3c0.4-0.8,0.4-1.5-0.4-2.3l-0.8-2.6l-0.4-1.1l0.8-1.5l0.8-10.1v-0.8l0.4-6.8
		c0.4-0.8,0.4-1.5,0.4-2.3v-0.4l-0.4-0.4l0.8-1.9l-0.4-4.9l0.4-4.5c0.4-0.7,1.1-1.1,1.9-1.1c0.8,0,1.5,0,2.3-0.4l12.4,0.4l6.4,1.5
		h0.4l7.1,4.1l3.4,3.4L386.1,117.6L386.1,117.6z M718,351.7l-7.5,1.5h-9l-18.4-1.9c-0.7-0.7-1.5-0.7-2.6-0.7h-2.6l-4.1,0.7
		c-0.4-0.7-1.1-0.7-1.5-0.7l-1.9,0.7l-2.3,0.4h-2.3l-1.5,0.4l-1.1-0.4l-3.8,0.7l-3.8,0.4l-11.7,6.4l-6.8,4.9c-1.5,0.8-2.6,1.9-3.4,3
		l-1.1,4.1h-1.5l-0.7-1.5c-1.5,0-2.3,0.7-2.6,1.5l-4.5,5.3c-1.1,1.1-1.5,2.3-1.1,3.4c-1.1,1.9-1.5,3.4-1.5,5.6
		c-0.3,1.9-1.3,3.6-2.6,4.9v2.3c0,0.7,0.8,1.1,1.5,1.5l-0.7,2.3c-0.4,0.7-0.4,1.9,0.4,3c0.8,0.8,0.8,1.9,0,3
		c-0.4,0.8-0.4,1.5,0.4,2.6c1.5,1.9,1.9,4.5,1.5,7.1c0,1.1,0,1.9,0.7,2.6l2.3,1.5c0.4,0.4,0.7,1.1,0.4,2.3l3.8,4.9
		c1.1,1.5,2.6,3,4.5,3.8l0.4,0.8h-0.4l1.1,1.1l2.3,1.9l3.4,1.9l1.1,0.4c1.9,2.3,4.1,3.8,6.4,4.5l3,1.1l4.5,3c1.5,1.1,3,2.3,5.3,2.6
		c1.9,0.4,3.4,1.5,5.3,2.6c1.1,0.7,2.3,1.1,3.8,1.9l4.1,1.5l9.8,4.9l2.6,1.9l0.8,0.8c1.1-0.4,2.3,0.4,3.4,1.5l2.3,3h0.8l2.3,1.5
		l1.5,2.6c1.9,0.8,2.6,2.3,3.4,4.1c0.4,1.5,1.1,3,2.3,4.5v1.1l1.1,7.9l-2.3,3.8c-1.1,1.5-1.5,3-1.1,4.5l-1.5,2.3l-1.1,2.3
		c-1.1,3-2.3,5.3-3.8,6.4c-1.1,1.1-2.6,1.5-4.1,1.5l-4.1,0.7c-1.9,0.4-3.8,1-5.6,1.9l-4.5,3.4c-1.5-0.8-3.4-1.5-6.4-1.9l-7.9-0.4
		l-1.1-0.7h-1.5l-7.5-1.1l-1.5-1.1c-4.1-0.4-8.3-1.5-11.7-3.4l-2.6-1.5c-1.1-0.7-2.3-1.5-3-1.9c-2.6-1.1-4.6-3.1-5.6-5.6l-4.9-6.8
		c-0.7-1.5-1.5-3-1.1-5.3c0-1.9-0.4-3.8-1.1-5.6c-0.8-1.1-0.8-2.3-0.4-3c0.4-1.1,0.4-2.3,0-3.8l-0.4-2.3l-0.7-2.3l-1.1,0.4v-0.4
		c-1.5,0-2.6,0.4-3,1.1l-0.4,0.4l-0.7,4.1l-0.4,1.5v3.8l0.4,1.5l-0.4,14.3l1.1,7.1v1.9l1.5,5.3c0,1.9,0.4,3.8,0.8,5.6v0.4l0.4,0.4
		c1.1,1.1,1.9,1.5,3.4,1.9l22.9,6.8c1.5,0.4,2.6,0.4,3.8,0c1.1-0.8,1.5-1.5,1.5-2.3l-2.3-0.4l-1.9-1.1c0-0.7,0.8-1.1,1.1-1.1
		l1.9-0.7l5.3,1.1c1.9,0.4,3,1.1,4.5,2.3v1.1l-0.8,0.8l-0.7,1.1v0.7l1.1,1.1l16.9,0.4l19.5-3L703,516c1.5-1.1,2.6-1.9,4.1-2.6
		l7.9-6.4l6.4-7.1l2.3-4.9l0.7-2.3l2.3-4.9l0.7-3.8l1.5-4.9l-0.7-8.3v-0.4l-1.1-7.9c-0.4-2.6-1.1-4.9-2.3-6.8l-3.4-6.4
		c-3.8-4.9-8.3-8.6-13.2-12c-4.9-3.4-9.8-6.4-14.7-8.6l-16.2-7.1l-4.9-1.9l-12-7.5c-4.1-2.3-7.5-5.6-10.9-9.8c0-1.5-0.7-3-1.5-4.1
		l-0.8-2.3l-1.9-9.4l0.4-0.7l1.1-3.4c0-1.9,0.8-3,2.3-3.8v-0.4l0.8-0.4l4.1-5.3l6-4.1l1.1-0.4l0.7,0.4h0.4l1.5-0.8l3.4-0.4
		c0.4-0.8,1.5-1.1,2.3-1.5l5.3,0.4l5.3-0.8c0.8-0.4,1.8-0.4,2.6,0l0.8,0.4h2.3l3.4,0.4l2.6,0.7c2.6,0.4,4.9,1.5,6.8,3l2.3,1.5
		l4.1,3.8l2.3,2.6l4.5,9.4l0.4,1.5l0.4,3.8v0.4l0.7,2.6v1.1c-0.4,1.5,0,2.6,0.7,3.8h3c1.1,0.4,1.9-0.4,2.6-1.1l0.4-14.3
		c-0.4-4.1,0-8.3,0.7-12c-0.4-3.8,0-7.1,0.8-10.1l0.4-2.3v-7.9l-2.3-1.1v0.4l-0.7-0.4L718,351.7L718,351.7L718,351.7z M550.8,353.2
		h-11.7l-1.5,0.7c-0.7-0.4-1.1,0-1.5,0.8l-5.6,0.4l-8.3,1.9c-1.5,0-2.6,0-3,0.7l-3,1.1c-1.1-1.5-2.3-1.9-3.4-1.1l-3,2.6l-3.8,0.4
		l-7.9,8.6l-6.4,4.5c-0.5,1.1-0.8,2.2-0.7,3.4c-0.4,1.1-0.8,1.9-1.9,1.9l-3,0.4c-0.4,0.4-0.8,0-1.1-0.4l-0.4-0.8
		c-0.8,0-1.9,0.8-3,2.3l-10.9,16.2c-1.5,3-2.6,6-2.6,9.4c-1.1,1.1-1.5,2.6-1.5,4.5l-0.8,4.5v-0.8l-0.4,1.1l-0.7,1.9
		c-0.8,1.9-1.2,4-1.1,6v0.4c-0.4,3-0.4,6,0,9c-0.4,1.9-0.4,3.8,0,6c0,1.9,0,4.1-0.8,6l0.8,2.6l0.7,7.5l0.7,0.8v0.4
		c0,0.4,0,0.8,0.8,1.1l1.5,3.8c-0.4,1.5,0,2.3,0.4,3.4l4.9,12l9,13.5c3.4,4.5,7.5,8.3,12.4,10.9c2.8,3.2,6.2,5.6,10.1,7.1
		c3.8,1.9,7.5,3.4,11.3,5.6l8.3,3l4.1,0.8l1.5,0.7l6.8,1.5l5.3,0.4l11.3,0.7l0.7,0.4h1.9l3.8-0.4h4.5l0.7-0.7l9-0.4l0.8-0.7h0.7
		l1.9-0.4h2.3l6.4-1.5l2.3-0.4l1.9-0.4l0.7-0.4l3.4-1.1l1.9-0.4l2.3-0.4l0.7-0.7l1.5-0.4l2.3-1.1l0.4-0.4l-0.4-3v-0.7l-0.4-5.6
		l0.4-1.9c-0.7-2.3-0.7-4.1-0.7-6v-0.4c0.4-2.3,0-4.5-0.8-6.4c-0.4-1.1-0.4-1.9,0.4-2.6v-16.2l0.8-0.4l0.4-10.9l1.1-1.9
		c0-3,0.4-5.3,1.9-7.1l1.1-3.4h0.4v-4.5h-12.4l-2.3-0.7h-2.3l-4.1,0.7H582l-1.9,0.4c-0.7-0.4-1.5,0-2.3,0.8l-12-1.9l-16.2,0.7
		c-0.7,0-1.1,0.4-1.5,1.5v0.4h-0.4v1.9l1.9,1.9h12l5.6,2.6c1.1,0,1.9,0.4,2.6,1.9l1.1,3c0,0.8,0.4,1.9,1.1,1.9l0.8,0.4
		c0.4,0.4,0.7,1.1,1.1,1.9l0.7,2.6v0.4l0.4,1.5v1.1l0.7,6.8l-0.7,3.8l-0.4,11.7l0.8,1.9l0.4,0.7c0.8,1.5,0.4,3-0.7,4.9v1.1l0.4,1.1
		l0.4,3c0,1.1,1.1,1.9,3,2.3l1.9,1.5v-0.4v1.1l-0.4,2.6c-0.4,1.1,0,1.9,0.7,3l-3.8,1.1l-2.3,0.7l-0.4,0.4l-0.7,0.4h-6.4l-10.5-1.5
		l-16.9-4.1l-4.5-0.4l-7.1-3.8l-3.8-0.7l-12-10.5l-2.6-4.1l-3-3.8c-0.4-1.9-1.1-3.8-2.6-4.9c-1.9-1.5-3-3-3.4-4.9
		c-1.5-0.7-1.9-1.5-1.9-2.6l-0.4-3l-0.4-1.5l-0.7-3l-1.9-4.1v-1.9l-1.5-8.3l-1.5-3.8l0.8-7.5c-0.8-1.5-1.1-3.4-1.1-5.3l0.7-6v-3
		c0-1.1,0-2.3,0.8-3c-1.1-1.9-1.1-3.8,0-5.3l1.1-5.3l3.4-10.5l2.3-2.6l0.4-3.4c0.4-1.1,1.1-1.9,2.3-2.6l2.6-4.9
		c0.8-1.9,2.3-3,4.1-3.8l3.4-2.3c0.7-1.1,1.9-1.9,3-2.3c1.5-1.9,3.4-3.4,5.6-4.1l7.9-3h1.9c1.5-0.7,3-1.1,4.9-1.5l6.4-1.5l21.4,0.4
		l2.6,0.8l8.6,1.9l5.6,3.4c1.5,0,2.3,0.7,3.4,1.5l3,1.9l9.8,12.4c-0.4,1.5,0,3,0.4,4.5l0.7,1.9l-0.7,7.5v1.5l2.3,1.5l3.4-0.8
		c1.2,0,2.2-0.8,2.6-1.9c0.4-1.9,0.4-3.4-0.7-4.9v-1.5c0-1.1,0.4-2.6,1.9-3.4l-0.4-2.3l-1.1-0.7l-0.4-1.1v-0.7
		c-0.4-0.8,0-1.9,0.4-2.6l1.5-3c-1.1-0.7-1.5-1.9-1.1-2.6v-0.4l0.8-2.6v-2.6l-0.4-0.4v-1.5l0.7-1.1l0.4-4.1l1.1-4.9
		c0-1.9,0-3.4,0.4-4.5v-1.1l-0.4-0.4v0.4l-0.4-0.4v-0.4l-1.9-0.4l-1.9,0.4h-0.4l-1.5-0.7l-5.3,0.4l-7.9-0.7l-3.8-0.8l-31.2-1.1
		l-2.3,0.4L550.8,353.2L550.8,353.2L550.8,353.2z"/>
	<path class="st1" d="M467,355.5h-7.1l-4.5,0.7h-4.5l-3.4,0.4l-15.4-1.5l-13.2,0.4c-0.8,0.4-1.1,1.1-0.8,1.9v2.3l0.4,1.1h-0.4
		l0.8,0.7h1.1l2.3,0.8l2.3,0.4l3.8,1.9l1.5,1.1c1.5,1.1,2.6,2.6,3.4,4.9l1.1,6l0.7,6v0.4l0.4,0.7l0.4,1.5v0.4
		c-0.4,1.1-0.4,1.9-0.4,3l-0.4,1.1c-0.4,1.1-0.4,2.6,0.4,4.1l0.4,0.7l0.4,1.5v1.1l-0.4,1.9c-0.4,0.7-0.8,1.5-0.8,2.3v0.8l0.4,1.1
		l0.4,1.9l0.4,1.1l0.4-0.4v1.9l-0.7,2.6l0.7,10.9c0.4,1.5,0.8,2.6,0.4,4.1l-1.1,4.1c1.1,1.5,1.5,3.4,1.5,5.6c-0.4,2.3-0.4,4.1,0.4,6
		c0.8,1.5,0.8,3,0,4.1c-0.7,1.1-0.7,2.6-0.7,4.1c1.1,1.5,1.5,3.4,1.1,5.3c-0.7,1.9-0.7,3.8-0.4,5.6l0.4,6c-0.4,2.3,0,4.1,0.8,6.4
		l-0.8,1.1l-1.5,0.7L432,469l-5.3-5.3l-1.9,1.1c-1.5-1.1-2.3-2.3-2.6-3.8l-0.4-4.5c-1.9-3-4.5-5.6-7.5-7.9l-1.5-1.9l-2.6-1.5
		c-0.4-1.9-1.1-3.8-3-5.3l-4.5-4.5h-2.3l-1.9,1.1c-1.9,0-3.4-1.1-3.4-2.3v-8.6l-7.9-9.8c-3.1-3-5.7-6.4-7.9-10.1l-35-48.9
		c-1.1-1.1-2.3-1.5-4.1-1.5l-10.1,1.5H308l-4.1-1.1l-4.5,0.4l-3-0.7l-3.4,0.7c-1.1,0-1.9,0.8-1.9,1.9v3.4l0.8,0.4l0.4,0.4h1.5
		c4.5,0,8.3,0.7,12.4,2.3c3,1.1,5.8,2.8,8.3,4.9l1.9,1.9l0.8,0.7l-0.4,0.8l-0.7,2.6l-0.4,0.4v2.6l0.8,1.5v3.4l0.8,3.4v2.3h-0.4v5.3
		l0.8,2.6l-0.4,15l0.8,5.6v-0.4l0.4,1.5l-0.4-1.1l0.4,16.5v0.7l-0.4,1.1v0.7l0.8,2.3l-0.4,7.1c-0.8,1.1-0.4,2.6,0.4,4.1
		c0.8,1.5,0.8,2.6,0,4.5l0.8,3c0,1.1,0,2.3-0.4,3.4l-0.4,2.3v2.3c0.8,1.1,0.8,2.3,0.8,4.1l-0.8,3.8c1.1,1.9,1.5,4.1,1.5,6.4
		l-1.1,7.5l-0.4,0.7v1.1c-1.1,1.5-1.1,3-0.4,4.9c0,1.5-0.4,3.4-1.1,4.5c-0.4,2.3-1.5,4.1-2.6,5.6l-4.5,4.5c-1.9,0-3.4,0.8-4.5,1.9
		c-1.5,0.7-3.4,1.5-4.9,1.5l-1.9,2.3l-0.8,1.9v0.4l0.4,1.5l1.1,0.4l10.1-0.8l0.4-0.4h3.4l6-0.8h5.6l1.9,0.8h2.3l3-0.8h1.1l2.6,1.1
		l4.1-0.4l4.1,0.4h9.4c0.8,0.4,1.5,0,1.9-1.1l0.4-3l-1.1-1.9c-3.4,0-6.4-0.7-8.6-1.9l-7.1-5.6l-3-10.1c-0.7-3.8-0.7-7.1-0.4-10.9
		l-0.4-4.1l0.4-4.5l-1.1-12.4l0.4-3.4v-0.7l-0.4-2.6v-3.8l0.4-5.6l-0.4-9.4c-1.1-2.6-0.8-5.3,0-7.9v-0.4l-0.4-2.6v-1.1l0.4-2.6v-2.6
		l-1.1-4.9l0.8-1.9v-0.7l0.4-1.1c0.4-1.5,0.4-2.3-0.4-3.4l-0.4-3.4c0.4-1.5,0.4-2.6,0-3.8l-1.1-3.4c-0.4-2.3,0-3.8,1.5-5.3
		c1.5,0,2.6,0.4,2.6,1.5l0.8,1.1l0.4,1.9c0.4,1.1,1.1,1.5,2.6,2.3c0,2.3,0.8,3.8,3,4.9c1.9,1.1,3.4,2.6,4.5,4.1
		c1.5,1.5,2.6,3,3.4,4.9c0.4,1.5,1.9,3,3.8,4.1l2.6,3.8c1.5,1.9,3,3.8,4.1,5.6l1.5,2.3l9.4,10.5c2.6,2.3,4.5,4.5,6,7.9
		c1.9,1.5,3.8,3.8,4.9,6l4.9,6.4c0.8,1.9,1.9,3.4,3.4,4.5c1.9,1.1,3,2.6,3.8,4.5l7.9,7.5c1.9,4.1,4.5,7.5,8.3,9.8l1.9,3v0.8l1.9,1.5
		l1.9,2.3l0.7,0.4c1.1,0.4,1.9,1.5,2.3,3l13.2,15c0.4,1.5,1.5,2.3,2.6,3.4l1.1,0.4l2.6,2.6l6.4,1.1l0.7-0.4h3.4l4.1-1.5l-0.4-1.9
		c0.4-4,0.4-8,0-12v-20.7l0.4-1.5v-0.4l-0.4-1.5l-1.1-13.2l0.7-1.5V460l-0.4-0.7v-1.9l-0.4-0.4l0.4,0.4v-2.6c0-0.8,0-1.1,0.4-1.9
		l-0.7-25.9l0.4-3.4v-0.7l-0.8-10.9l-0.4-4.1c0-2.6,0-4.9,0.4-7.1l0.8-3.4v-13.5l1.5-4.9c0.4-1.1,0.4-2.3,1.1-3.4l1.9-4.1l0.8-1.1
		l0.4-1.9c0.4-0.7,1.1-1.5,1.9-1.9l1.1-0.8l2.6-2.3l1.5-0.8h1.9l0.8-0.4h3c0.4-0.8,0.7-0.8,1.5-0.8l0.4-0.4l0.4-1.1l0.4-1.5
		l-0.4-2.3L467,355.5L467,355.5z"/>
	<path class="st1" d="M425.6,460v-1.5l-0.8-0.8c-1.1,0.8-1.5,1.5-1.5,2.6l1.1,0.7l0.7-0.4L425.6,460L425.6,460z M63.7,34.9
		c-1.9,0.4-3,0.4-4.1,0l-3.4,0.8h-3.4c-1.1,0-1.5,0.4-1.1,1.1l-0.8,1.9v1.9l0.8,1.1H52L51.7,42l10.1,1.1l3.8,4.1l1.1,3l0.8,0.4
		l3,3.4v0.4l-0.4,1.1l-0.8,1.9l-0.4,0.8l-0.4,1.1l0.4,1.9l1.5,1.9l0.4,1.5v1.9l-0.4,0.4l-0.8,3.4l0.8,3.4l0.4,1.5
		c0.4,1.1,0.4,2.6,0,4.1L72.3,92v0.4l0.4,1.5v0.4l-1.1,6.8v0.4l0.8,1.9v1.1l-0.8,3.8v1.1l0.4,1.5l2.3,7.5c1.1,1.5,1.5,3,1.5,4.5
		l-0.4,15c0.8,2.6,0.8,5.3,0.4,7.9l0.4,3.8c0.4,1.5,0,2.6-0.4,3.4l-0.4,4.1l0.8,12.8l-0.4,4.1l0.4,2.3c0.4,1.1,0,2.3,0,3.4v1.5
		l-1.9,6.8c0,1.9,0.4,3.8,1.5,5.6v0.8l-0.8,3l-0.4,0.4l0.4,3.4l0.4,0.8l0.4,0.8v-0.4c0.4,1.9,0.4,3.8,0,5.6l-1.5,6.8v6.4
		c0.4,1.9-0.4,4.1-1.1,5.6c-0.4,2.6,0,5.6,0.8,8.6c0.8,3,1.1,5.6,1.1,8.6c-0.4,2.6-1.5,5.3-4.5,7.5c-0.8,1.9-0.4,3.4,0.8,4.9
		l1.5-0.4l1.1,0.4c0,1.1,0.4,1.5,1.1,1.9l0.8,1.9l-2.6,2.6c-0.8,1.1-1.9,1.5-3.4,1.1l-0.4,1.1l0.4,1.1c-0.4,1.9,0,3.4,0.8,4.9
		c1.1,1.1,1.1,3,0.8,4.9l-3.8,4.5c-0.4,1.5-1.1,3-2.6,4.1l-6,3.8c-0.4,0.4-0.8,0.4-1.5,0.4c-0.4,0.4-0.7,0.4-1.5,0.4l-1.5,0.7
		l-3.8,0.8h-0.4l-1.1,3.4v0.4h-0.4v1.9l3.4,0.8l-3.4,0.4l7.5,1.1l51.5,0.8l2.3,0.8h2.3l6.8-0.8l66.1,1.1c1.1-0.4,1.9-1.5,2.3-2.6
		l2.3-5.3c1.1-1.5,1.5-3.4,1.1-5.3l3.4-11.7l-0.8,1.9l4.1-14.3l1.5-3.4v-1.5l0.8-0.4h7.1l0.8,0.8l7.5,0.4l21.8-1.5l1.9-0.8l2.3-0.8
		l1.9-0.4h1.5c1.1-0.4,2.3-1.1,3.4-1.5l3.8-1.1l2.3-1.1l1.9-1.1l8.6-3.8c1.7-0.9,3.3-1.9,4.9-3l2.6-3c1.5,0,3-0.8,4.1-2.3l7.1-7.5
		c0.8-1.5,1.9-2.3,3.4-2.6l3.8-5.6l2.6-6.8l1.1-1.1l2.3-3l0.4-1.9l2.6-2.6c0-2.6,0.4-4.5,1.5-6.4c1.1-1.9,1.5-4.1,1.1-6.8l1.1-2.6
		l1.9-8.6v-7.1l0.4-2.6c-0.4-1.5-0.4-3-1.1-4.5l-0.4-2.3v-2.3c0.4-5.6,0-10.5-1.9-15l-1.5-5.3c-0.4-1.9-1.1-3.4-2.6-4.5
		c-0.8-3.8-1.9-7.1-4.5-9.8c-2.3-5.3-5.3-9.8-9.4-14.3l-1.5-1.9l-19.5-16.2c-1.5-1.1-3.4-1.9-4.9-1.9l-4.5-1.5
		c-1.1-1.1-2.3-1.5-3.4-1.1l-4.5-1.9c-0.4,0-1.1,0-1.5-0.4l-1.5-1.1l-11.7-3L210.3,86l-3,0.4h-3.4l-18.4,3l-4.5,1.9l-4.9,1.1
		L165.2,98c-1.1,1.5-3.4,2.6-5.6,3.8l-4.5,2.3c-1.1,0.8-2.3,1.5-4.1,1.5l-2.3,1.9l-1.1,3c-0.5,0.9-1.3,1.6-2.3,1.9l-2.6,0.8
		l-1.9,1.9l0.8,2.3c0,0.8,0,1.5-0.4,2.3l-2.6-0.4v1.9c-1.1,3-2.6,6-4.5,8.3c-2.3,2.6-3.8,5.3-4.5,8.3c0,1.9-0.8,4.1-1.9,6
		c0,1.5,0,3-0.4,4.5l-1.5,2.2l-0.4,0.4v0.8l-0.4,0.4v3l-0.4,0.8v1.5l-0.4,1.5v0.4l0.4,7.1l-0.4,1.1l0.8,7.9l-0.4,1.1l-0.4,3.4v1.5
		l0.8,3.4v1.1l0.4,2.6l4.5,13.5c1.1,4.1,3,8.3,5.3,12l1.1,2.3l2.6,4.1v0.4l13.5,15.4c4.9,4.9,10.5,8.6,16.5,11.7
		c2.3,0.4,4.9,1.5,7.5,3.4c2.3,1.1,5.3,1.9,7.9,2.6l6,2.6c-0.4,3-2.3,6-4.5,8.6l-6.8,7.5c-2.3,2.6-5.3,4.5-8.3,5.3l-9.4,1.9
		c-2.3,1.5-4.1,2.3-5.6,2.6l-18.8-1.9c-1.1,0.4-1.9,0.8-1.9,1.9l-1.5,1.9c-3-3-6.8-3.8-10.9-3l-12-1.1l-3-10.1v-0.4l-0.4-0.8
		l0.4-0.8v1.5c0-1.5,0.4-2.6,1.9-3.8c0.7-1.1,1.9-2.6,2.3-4.1l-3-15l-0.4-0.8l-0.8-3l0.8,0.4h0.4c0.4-1.1,0.8-2.6,0.8-3.8v-4.9
		l-0.4-0.8l-0.8-0.4v0.4c0,0.4,0,1.1-0.4,1.5l-0.8-2.3l-0.8-3l0.8-5.6v-10.5l1.1,11.3v-12l-1.1-4.5l0.4-58.6c0-1.9,0-3.8-1.1-5.3
		l1.1-10.5l-1.1-10.1c0.8-1.5,1.1-3,1.1-4.9c0-1.5-0.4-3.4-1.1-4.5c1.1-2.3,1.5-4.5,0.8-6.8c-0.8-2.3-0.4-4.1,0.8-6.4
		c-0.8-5.3-0.8-10.5-0.4-16.2l0.8-15.8l1.1-3.4l0.7-6l1.9-5.6l1.5-2.6l2.3-2.3c1.5-2.6,3.4-4.1,6-4.5l5.6-2.6h4.1l0.8-0.4h1.5
		l2.3-0.8h1.5c1.1,0.4,2.3,0,3-0.8l-1.1-0.4l0.8-2.6l-0.4-2.6l-10.5-0.4l-23.7,1.9h-4.9l-3.4,0.4L63.7,34.9L63.7,34.9z M238.1,105.9
		l3.4,2.3l9.8,7.9l4.9,5.6l0.8,0.4c1.9,2.3,3,4.5,4.1,7.1c1.5,2.3,3,5.3,4.1,8.3l4.1,8.6l2.3,8.3c1.5,2.6,1.9,5.6,1.5,9
		c1.1,1.5,1.5,3.4,1.5,5.6c-0.4,2.3-0.4,4.1,0.4,6c0.8,0.8,0.8,1.9,0.8,2.6l-0.8,3c-0.4,1.1-0.4,2.3,0.4,3.4c0.4,0.7,0,1.9,0,2.6
		l-0.4,3c-1.1,1.1-1.5,2.6-1.1,3.8c0.8,1.5,0.8,3,0.8,4.5l-0.8,3c0,0.8-0.4,1.9-1.5,2.3l-1.5,7.1l-2.3,2.6c-0.8,1.1-1.2,2.4-1.1,3.8
		c-1.5,3.4-3.8,6.8-6.4,9.8c-2.6,3.4-5.6,5.6-9,7.9c-3,2.6-6,4.9-9,6l-10.5,3c-0.7,0.8-1.9,1.1-3.4,1.1l-11.7,0.4l-7.5-0.8l-4.5-1.1
		l-4.5,0.4l-4.5-1.1l-1.1-1.1l-1.9-0.4l-3.4-3.8c-1.5-1.1-2.6-1.9-4.5-2.3l-1.5-2.3l-2.3-0.4l-2.2-0.4c-1.1-0.8-1.5-2.3-1.5-3.8
		c0.4-1.1-0.8-2.3-2.3-2.6l-4.9-6l-10.5-18l0.4-0.8v-1.5l-0.4-1.5l-2.6-4.1l-0.4-1.1l0.4-1.1l0.4-0.8v-0.4c0-1.1-0.4-2.3-0.8-3
		c-0.8-1.1-1.1-1.9-0.8-3v-0.4l-0.4-0.4l-1.9-6c-0.4-1.1,0-2.3,0.8-3.8c-0.4-1.5-0.8-3.4-1.5-4.9c-1.1-1.9-1.1-3.4-0.4-5.3
		c1.1-2.3,1.1-4.5,0-6.4l0.4-3.4c0.4-1.1,0.4-1.9,0.4-3l1.9-3.8c0.4-1.5,0.4-2.6,0.4-4.5c1.1-1.9,1.9-3.8,1.1-6
		c1.1-1.1,1.9-2.6,2.3-4.1c0.4-1.9,1.5-3.4,2.6-4.5c0-0.8,0-1.9,0.8-2.6l1.1-1.1l2.3-3l0.4-0.4l0.8-1.9l3-3.8l2.6-0.7v-0.4l0.7-2.3
		l1.1-0.8l3.8-1.5l3.8-3c2.6-1.5,4.9-2.3,7.5-3l2.3-1.1c0.7,0,1.5-0.4,2.6-0.8h0.8l2.3-0.4l2.3-0.8h0.8l9.8-1.1h3.4l11.7,2.3
		L238.1,105.9L238.1,105.9z M78,108.9l0.8-8.3l0.4,11.3L78,108.9z M106.9,212.7l-1.1-4.1l0.4-7.5L106.9,212.7z M249.3,371.6
		l-2.6,0.4l-12.4,0.4h-0.7h0.4c3.6,0.4,7.1,1.7,10.1,3.8c2.3,1.5,3.8,6,4.5,13.2c0.4,7.1,0.4,15.4,0,24.8l-2.3,26.7v4.1l-0.8,1.1
		v1.9c-0.4,0.4-0.7,1.1-0.4,1.9c0.7,0.7,0.8,1.8,0.4,2.6c-1.1,1.1-1.1,1.9-0.4,3c0.8,0.7,1.1,1.5,1.5,3c-0.8,1.5-0.8,3.4-0.4,5.3
		c0.8,1.5,0.8,3,0.4,4.9l-1.5,3c0.8,1.5,0.8,3.4,0,5.3l-1.5,5.3l1.5,3.4l2.3,3l0.4,2.6c0,0.7,0,1.5-0.8,2.6c1.1,1.5,1.5,3.4,1.1,4.9
		l-0.8,5.3l-5.6-0.7l-0.8,1.9l-0.4,2.3l-1.5,1.9l-2.3,1.1l-6.8,1.9l-2.3-0.4c-0.4,0.7-0.8,0.7-1.5,0.7l-1.9,2.3v1.9
		c0.4,0.4,0.8,0.8,0.8,1.5c0.4,0.4,0.8,0.4,1.1,0.4l12.8-0.4c2.5,0.4,5,0.4,7.5,0l5.6-0.4l1.9,0.4l4.1-0.7h1.1l3,0.7l8.3-0.7
		l17.7,0.7l1.5,0.4h0.4l1.5-0.4c1.1-0.4,1.9-0.7,1.5-1.9c-0.4-1.1,0-1.9,0.8-3c-1.1-0.8-1.9-0.8-3-0.8h-2.6l-7.5-2.6
		c-2.3-1.1-4.1-3-5.3-5.3l-2.3-7.9c-0.8-5.6-1.1-11.7-0.8-17.7v-18l-0.4-2.3c0.8-2.3,0.8-4.9,0.8-7.5v-7.9l-0.4-3l0.8-38.3l1.1-4.5
		v-1.1l1.5-6c0.4-2.6,1.5-5.3,3.4-7.1l1.1-2.3l0.4-0.7l1.5-0.7l7.9-1.9h0.4l2.3-0.4l0.4-0.7l0.4-0.8l0.8-3.8l-42.1,0.4L249.3,371.6
		L249.3,371.6z"/>
	<path class="st1" d="M237.7,384.1c0.4,1.5,0.8,2.6,1.9,3.8l2.6,3.8v2.6l2.3,4.9v0.4l-0.4,2.3l0.4,0.4c0.8,1.1,1.5,2.3,1.1,3.8
		l-0.4,4.1l0.4,4.1v3.4l0.8,3.4l-0.8,7.9l1.1,1.9l0.4-18c0-9-0.4-16.2-1.5-21.8c-0.7-6-2.3-9.4-4.5-10.9l-8.6-5.6
		c-2.3-1.5-4.5-2.3-6.8-1.9l-1.1,1.9v2.3l0.8,0.4l2.6,0.7c1.1,0,2.3,0.4,3.4,1.5c1.1,0,2.6,0.4,3.4,1.5L237.7,384.1z"/>
	<path class="st1" d="M226,371.6l-0.4,0.7c1.5,0,3-0.4,4.9-0.4L226,371.6z M246.3,438.6v1.9v-3V438.6L246.3,438.6z M168.2,329.9
		l-3.4-0.7l-9.4-1.9c-1.1-0.7-2.6-1.1-4.1-1.1l-4.9,0.4c-0.8-0.4-1.5-1.1-2.6-1.1c-1.1,0-1.9,0.7-2.6,1.1l-17.7-1.1l-19.5,1.1
		l-8.3-0.4l-33.8,2.3l-6,1.1c-2.3-0.4-4.1,0.4-6,1.5l-0.4,1.1v1.9l1.5,2.6l6.8,0.8l4.1,1.1c2.3,0.4,4.5,1.5,6.8,3.4l3,3.4l0.8,2.3
		l0.4,0.4v0.4l0.4,0.4l1.1,2.6V351l0.4,2.3l0.4,6.4c-0.4,2.3,0,4.1,1.1,6l-0.4,1.9l0.4,2.6c0.4,0.7,0.8,1.5,0.8,2.6l-0.4,1.5v0.4
		l-0.4,1.5v8.6l-0.8,1.9v0.4l0.8,2.6v8.6l0.4,8.6l-0.7,10.5l0.4,5.3c0.4,5.3,0.8,10.9,0,16.2l0.4,53.4l-0.4,4.9L75,509.6l-1.5,4.1
		l-2.3,4.5l-4.5,4.9c-1.1,1.9-3,3-5.3,3.4c-3.4,2.3-6.8,3-10.5,3c-1.5,0.4-1.9,1.1-2.3,2.3v4.1l0.8,0.4l2.3,0.8l3-0.8h16.5l0.8-0.4
		h1.1l3.8-0.8h0.8l3-0.4h12.8v0.4l19.5,0.8l0.8,0.4l13.5,1.1l2.3-0.4h0.8l1.1-1.1l0.8-4.9l-0.8-0.7h-1.1v-0.4l-2.3-0.4l-1.9-0.4
		l-5.6-1.5l-16.5-1.1l0.4-1.1h0.4l1.5-1.1l0.4-0.4l1.5-0.4l2.3-1.5v-2.3l-1.1-4.1v-4.1l-0.8-3.4l-1.9-4.5c0.8-1.9,0.8-3.8,0.8-6v-6
		c0.4-1.9,0-3-0.8-4.5c-0.4-3.8-0.4-7.5,0-11.3c0.8-3.4,0.8-7.1,0-10.9l0.8-3.8v-0.4l-0.8-4.1l0.8-1.1l2.3,0.4l8.6-0.4l2.3,0.4h0.8
		l0.8-0.4h4.1l21.4,0.4h0.8l1.1,0.4h0.4l0.4,0.4l1.9,1.9c1.5,0.4,1.9,1.1,2.3,2.3l0.4,3c0,0.7,0.8,1.5,1.9,2.3
		c-0.4,1.5-0.4,3,0.4,4.9l1.5,3.4l0.4,1.1l1.9,1.5h2.6l9-2.3h3.8c1.5,0.4,2.6,0.4,4.1,0h0.8l2.6,1.5l0.8,0.8c0.4,1.1,0.8,1.9,0.4,3
		v-0.4l-0.4,1.5v0.8l-0.4,0.4h-1.5l-1.9-2.3l-1.1,0.8l-0.8,1.5l1.5,1.1l1.1,0.4h0.4c0.8,0.4,0.8,0.8,0.8,1.9l-0.4,1.5v0.4l-0.4,0.7
		H181l-0.8-0.4l-0.8-1.9l-1.1-1.9l-0.8-0.7l-1.5-1.1l-1.1-1.1l-2.3,1.9l-2.3,0.7h-0.4l-1.5-1.9c-0.8-0.8-1.5-1.1-2.3-0.4l-0.8,1.1
		l0.8,2.6v2.6c0.8,2.3,1.9,3.8,3,4.5c1.5,0.7,1.9,1.5,2.3,2.6v0.4l0.4,1.1l2.3,2.3l1.9,1.9l0.4,0.7l0.4,0.4l-0.4,1.5l-0.4,0.7v0.7
		h0.4l0.4,0.8l2.3,1.9c0.7,0.4,1.5,0.7,2.3,1.9l0.4,0.7l-0.4,3l1.1,1.9v0.7l1.1,0.4l0.8,0.7l0.8,3l1.1,1.1l0.8,0.8v0.4h0.4v0.4
		c-0.4,1.1,0.4,2.6,1.5,3.4l2.3,2.3l0.4,0.7l0.4,2.3l0.8,1.9l7.9,12l1.9,3c1.5,1.5,3,3,4.1,4.9l2.6,3.4l0.8,0.8l0.8,1.1
		c1.9-0.4,3,0.4,4.1,1.9l3.4,3.8l0.4,1.5l1.1,0.8l3,0.4h2.6l0.8-0.4v-0.4l-2.6-1.1l3.4-0.4l1.5,0.4l1.5,0.7h1.9l2.3-0.4l1.1,0.4
		l0.4,0.4l0.4,0.8l-1.1,0.7v2.6c1.1,1.1,3,1.9,4.9,1.9l5.6,0.4v-1.1c-0.4-0.4-1.1-0.4-1.5-0.4l-1.1-1.9l-1.9-1.5l3.4-0.4
		c0.4,0.4,0.4,0.8,0.4,1.1l-0.4,0.8l0.4,0.4c2.3,2.6,4.5,3.8,7.1,3l17.7-3.8l1.5-1.5l0.4-1.5v-0.7l0.4-2.6c-0.8-0.7-1.9-0.7-3-0.7
		h-3.4l-3.8-1.9L245.2,549l-3-3c-1.1-1.1-2.3-1.1-3.8-0.4c-1.1,1.5-1.5,3.4-1.1,5.6l-3.8-4.1v-3c0.3-0.7,0.8-1.2,1.5-1.5l2.3-0.8
		c-0.8-1.9-2.3-4.1-4.5-6.8l-6-6.4c0-1.1-0.4-2.6-1.5-3.4l-4.5-6.4c-1.5-0.8-1.9-1.9-1.5-3.8c-3-3.3-5.2-7.1-6.8-11.3l-3.8-5.6
		c-0.8-2.3-1.9-4.5-3.8-6l-3.8-6.4c-0.4-1.5-1.1-3-2.3-4.5c-1.4-1.1-2.2-2.7-2.3-4.5l-4.1-7.1c-0.8-2.6-2.3-4.9-4.5-7.1
		c-0.8-2.6-1.9-5.3-3.8-7.1l-5.6-9.4v-1.5l1.1-1.1l2.6-2.6c0.8-0.4,1.9-1.1,3-1.1l5.3-4.5c1.9-1.5,3-3.8,3.8-5.6l3.8-4.1l3.8-5.3
		l2.3-3.8l5.6-15l2.3-13.5V384c-0.4-2.3-0.4-4.1-1.1-6l-1.1-6.4l-0.4-0.4l-1.9-10.9V360l-0.8-0.4l-1.5,0.4l-0.8-0.4h-0.8l-1.1-1.5
		h-1.9c-0.8,0-1.5,0.4-1.9,1.1l1.9,2.6l-0.8,2.3l-1.1,1.5l-1.1-1.1l-0.8-1.5l-0.8-0.7l-0.8-1.5h-1.1l-4.1,0.4
		c-0.8,0-1.1,0.4-1.1,0.8l0.4,0.4v0.4l-0.4,0.8l-2.6-0.4l-2.3,0.4l-1.9-1.1v-0.4l0.8-1.9l2.6-0.7l0.4-0.8l12.8-6.8l1.1-1.9v-2.3
		l-0.4-0.4l-9.8-8.3c-3.8-3-7.5-4.9-11.3-6l-3.4-1.5l-2.3-0.4c-0.4-0.4-0.8-0.7-1.9-0.7L168.2,329.9L168.2,329.9z M161.8,349.8
		c2.3,1.5,4.1,3.8,5.6,6.4c3.4,4.1,5.6,9,7.9,13.5l1.5,7.1c0.8,2.3,1.1,5.6,0.8,10.1c-0.8,3.8-0.8,6,0.4,6.8l1.9,1.5l1.5,0.4
		l-1.1,0.8c-0.8,0-1.1,0.4-1.5,0.7l-1.1,5.3c0,1.9-0.8,3.4-1.1,4.5l0.4,2.6c-0.8,1.1-1.1,2.6-1.1,4.1c0,1.9-0.7,3-1.5,4.1
		c-1.1,0.8-1.1,1.5-1.1,2.3c0.4,1.1,0.4,1.9,0,2.6l-2.6,2.6l-7.5,9.8c-2.3,2.3-5.3,3.4-8.6,3.8l-1.1,0.7l-1.5,0.7l-1.9,1.1l-2.3,0.4
		l-4.9,2.3h-11.7l-7.9-0.4c-1.9-0.8-3.4-0.8-4.9,0l-5.3-0.8h-0.4l0.4-0.4l-3-1.1c-1.5,0.4-2.3,0-2.3-1.1l-1.1-3v-24.8
		c-0.4-0.4-0.4-1.1,0-1.9c0.4-0.8,0.8-1.5,0.8-2.6v-2.6c-1.1-2.3-1.5-4.5-1.1-6.8c0.4-2.3,0.4-4.5,0.4-6.8l1.1-3.8v-6.4l-0.8-0.8
		l-0.8-3.4v-2.3l0.4-1.9l1.1-3l-0.4-1.1v-14.3c1.1-1.5,1.1-3.4,1.1-5.3c-0.4-1.9-0.4-3.8-1.1-5.3l1.1-2.3l1.1-0.4l4.5-1.5l13.5-1.1
		l6.4,0.4h0.8v0.4h3l2.3,0.4l0.4,0.4l1.5,0.4h0.4l7.9,1.9c1.1,0.4,1.9,0.8,3,1.5l2.6,1.1l0.4,0.4h0.4L161.8,349.8L161.8,349.8z"/>
</g>
</svg>
