<?xml version="1.0" encoding="utf-8"?>
<!-- Generator: Adobe Illustrator 25.0.0, SVG Export Plug-In . SVG Version: 6.00 Build 0)  -->
<svg version="1.1" xmlns="http://www.w3.org/2000/svg" xmlns:xlink="http://www.w3.org/1999/xlink" x="0px" y="0px"
	 viewBox="0 0 745.1 231.2" style="enable-background:new 0 0 745.1 231.2;" xml:space="preserve">
<style type="text/css">
	.st0{display:none;}
	.st1{display:inline;}
	.st2{fill:#E59E24;stroke:#000000;stroke-width:2;stroke-miterlimit:10;}
	.st3{fill-rule:evenodd;clip-rule:evenodd;fill:#F89C49;stroke:#000000;stroke-miterlimit:10;}
	.st4{fill-rule:evenodd;clip-rule:evenodd;fill:#724F1F;stroke:#000000;stroke-width:2;stroke-miterlimit:10;}
</style>
<g id="Layer_1" class="st0">
	<g class="st1">
		<path class="st2" d="M23.1,85.9l-8,3.1c-2.1,1-3,2.4-2.7,4.2c0.2,5.9,5,10.3,14.6,13.1l-0.7-69c-0.6-5.2-3.5-8.9-8.6-11.1h41.4
			c-3.4,2.7-5.1,5.8-5.1,9.3l1.1,71.2c6.1-2.1,13.4-5.7,21.9-10.8V33.7c0-3.7-0.3-6.1-0.9-7.3c-1.2-2.2-4.1-4.4-8.9-6.6l42.7-0.7
			c-5.5,4.7-8.4,8.8-8.9,12.2l0.9,49.8c6.5-3.4,11.3-5.1,14.4-5.1c3.1,0,7,0.9,11.7,2.7c-5.2,4-7.7,9.1-7.6,15.3
			c-3-4.1-6.2-6.2-9.6-6.2c-2.4,0-5.4,1-8.9,3.1l1.5,79.9c0,3.8,3.3,7.1,10,9.7l-46.7-0.7c5.6-2.4,9-5.9,10.2-10.6v-62.4
			c-8.2,4.6-15.5,7.7-21.9,9.3v44c0.7,4.4,4.2,7.9,10.4,10.4l-50.7-0.7c8.1-2.5,12.2-6.9,12.2-13.3v-42.7
			c-14.3-3.4-21.3-11.4-21-23.9c5.2-2.8,9.6-4.2,13.3-4.2C20.5,85.7,21.8,85.8,23.1,85.9z"/>
		<path class="st2" d="M130.4,73.5l-6.6-8.9c-2.4-3.1-3.5-6.4-3.5-10c0-1.3,0.4-2.4,1.1-3.3c1.5-1.9,8.7-6.7,21.7-14.4
			c4.9,3.5,10,7.5,15.5,11.7c7.8,6.2,11.4,11.2,10.6,15l-0.9,50.4l8.2,0.4l-16.2,17.9c-3.8,2.7-6.5,4-8.1,4c-1.5,0-2-0.9-1.6-2.7v-8
			l-14,8.9c-6.4,1.2-12.4-11.7-17.9-38.5c2.5-5,7.1-9,13.7-11.9l14.6-6.6c-5,5.5-7.5,9.7-7.3,12.8c-0.3,2.1-0.4,4.1-0.4,6.2
			c0,9.9,2.1,17.7,6.4,23.5c2.4,0.3,4-1,4.9-4V51.4l-3.3,1.8c-0.7,0.4-2.7,1.7-6,3.8c-5.5,3.4-8.2,6.4-8.2,9.1l2,7.3L130.4,73.5z"/>
		<path class="st2" d="M177.6,42.3c7.5-5.2,16.1-11.6,25.7-19.2V43c7.7-6.6,12.7-10,15-10c0.7,0,1.3,0.2,1.5,0.7l10.4,18.1
			c1.2,1.3,1.8,2.7,1.8,4c0,1.5-0.7,2.4-2.2,2.9l-20.4,11.9v-0.9c3.1-2.9,4.9-5.7,5.3-8.2c-0.6-2.2-1.6-4.9-3.1-8.2
			c-1.9-4.1-3.4-6-4.4-5.8c-0.9,0.1-2,1.1-3.3,2.9c-0.6,22-0.2,43.7,1.1,65c0.3,4.7,2.6,7.6,6.9,8.6c-2.1,0-5.2,0-9.4,0
			c-4.2,0-7.3,0-9.4,0c-1.3,0-3.4,0-6.1,0c-2.7,0-4.8,0-6.1,0c3.8-1.6,6.1-2.9,6.9-4c0.6-0.6,0.9-2.1,0.9-4.4V41.9L177.6,42.3z"/>
		<path class="st2" d="M228.9,42.3c7.5-5.2,16.1-11.6,25.7-19.2V43c7.7-6.6,12.7-10,15-10c0.7,0,1.3,0.2,1.5,0.7l10.4,18.1
			c1.2,1.3,1.8,2.7,1.8,4c0,1.5-0.7,2.4-2.2,2.9l-20.4,11.9v-0.9c3.1-2.9,4.9-5.7,5.3-8.2c-0.6-2.2-1.6-4.9-3.1-8.2
			c-1.9-4.1-3.4-6-4.4-5.8c-0.9,0.1-2,1.1-3.3,2.9c-0.6,22-0.2,43.7,1.1,65c0.3,4.7,2.6,7.6,6.9,8.6c-2.1,0-5.2,0-9.4,0
			c-4.2,0-7.3,0-9.4,0c-1.3,0-3.4,0-6.1,0c-2.7,0-4.8,0-6.1,0c3.8-1.6,6.1-2.9,6.9-4c0.6-0.6,0.9-2.1,0.9-4.4V41.9L228.9,42.3z"/>
		<path class="st2" d="M282.4,68.7H315c-4.1,0.9-6.3,2.8-6.4,5.8l2.7,15.5c1.2,6.9,2.4,10.5,3.8,10.6c0.9-0.1,6.6-11.4,17.3-33.7
			c-0.1-1.6-0.5-2.6-1.1-2.9l-5.5-2.6l26.1,0.4c-7.4,13.7-16.6,30.5-27.7,50.3c-17,30.5-26.8,45.7-29.6,45.7c-0.1,0-0.3-0.1-0.4-0.2
			c-18.4-1.6-29-2.9-31.6-4c-6.6-0.9-14.5-3.9-23.5-9.1c-1.5-0.9-2.2-1.8-2.2-2.7c0-1,0.9-2.6,2.7-4.6c3.7-4.3,5.7-6.6,6-7.1
			c6.2-0.3,11.2-0.4,15-0.4c3.7,0,6.3,0.1,7.7,0.4c-0.1,1-0.7,1.7-1.5,2c-1.8,0.9-6.4,2.2-13.9,3.9l-4,5c5.2,2.6,18.4,3.9,39.8,3.7
			l11.1-19.4c1-2.6,1.5-5.4,1.5-8.2c0-7.1-4.3-21.9-12.8-44.6C287,71.3,285.1,70,282.4,68.7z"/>
		<path class="st2" d="M465.3,43.8l-4.9,50l-23.9,12.8l-17-17.7l0.2,47.3l-8.4-12.8l-0.9-1.8l1.3,57.7l-7.1-11.1l-4.9,53.1
			l-15.9-91.4l8,5.3l-8.4-54.9l11.1,4.9l-9.3-77.7h34.1v11.9l21.2-8.9L465.3,43.8z M439.2,87.2l-2.7-64.8l-17.3,7.2l0.2,55.5l15.3,8
			L439.2,87.2z"/>
		<path class="st2" d="M529.7,140.7c0.7,3.7-3.3,7.8-12.2,12.4c-7.4,3.8-13.4,6.1-18.1,6.6l-4-0.7c-14.9-11.5-22.8-18.9-23.7-22.1
			c-0.3-6.9,0.4-24,2-51.3c10.2-7.4,20.7-13,31.6-16.8L521,79.7l1.8,2.9c3.2,3.1,5.2,9.7,5.8,19.9
			C528.9,107.6,529.2,120.4,529.7,140.7z M508.4,146c0-38.5-1.4-61.3-4.2-68.4l-7.1,4.2c-2.5,1.9-4.1,3.9-4.9,6l1.1,58.2
			c1,3,3,5.1,6,6.4C503.8,151.1,506.8,149,508.4,146z"/>
		<path class="st2" d="M575.9,65.9h-12.4l-2,94c-0.3,0.6-0.4,1.2-0.4,1.8c0,2.7,3.5,7,10.6,13.1l-18.1-6.6
			c-7.1-2.7-10.8-5.8-11.3-9.5l1.1-93.6h-18.6c12.7-7.1,25.4-19.3,38.1-36.7l-0.4,28.1h11.5L575.9,65.9z"/>
		<path class="st2" d="M620.6,65.9h-12.4l-2,94c-0.3,0.6-0.4,1.2-0.4,1.8c0,2.7,3.5,7,10.6,13.1l-18.1-6.6
			c-7.1-2.7-10.8-5.8-11.3-9.5l1.1-93.6h-18.6c12.7-7.1,25.4-19.3,38.1-36.7l-0.4,28.1h11.5L620.6,65.9z"/>
		<path class="st2" d="M680.1,96.3l-5.5,11.5c-5.8-3.4-12.3-5.1-19.7-5.1c-4.4,0-7.2,0.6-8.2,1.8l1.5,36.3c1.2,2.5,3.7,4.8,7.5,6.9
			c2.9-3.8,4.9-8.6,6-14.4c0.1-0.6,0.5-4.3,1.1-11.3l9.7,12.4l-13.5,19.2l-11.3,0.2l-22.3-19.5c-1.2-5.6-1.8-12-1.8-19.2
			c0-10.3,1-21.2,3.1-32.5l24.8-19.5c1.8-0.6,3.2-0.5,4.4,0.2L673.9,75L680.1,96.3z M664.2,97.6l-11.3-25.4c-1-1.3-1.7-2-2-2
			c-0.6,0-1.2,0.5-1.8,1.5l-2.7,25.2C654.8,96.5,660.7,96.7,664.2,97.6z"/>
		<path class="st2" d="M682.6,52.7c7.5-5.2,16.1-11.6,25.7-19.2v19.9c7.7-6.6,12.7-10,15-10c0.7,0,1.3,0.2,1.5,0.7l10.4,18.1
			c1.2,1.3,1.8,2.7,1.8,4c0,1.5-0.7,2.4-2.2,2.9L714.4,81v-0.9c3.1-2.9,4.9-5.7,5.3-8.2c-0.6-2.2-1.6-4.9-3.1-8.2
			c-1.9-4.1-3.4-6-4.4-5.8c-0.9,0.1-2,1.1-3.3,2.9c-0.6,22-0.2,43.7,1.1,65c0.3,4.7,2.6,7.6,6.9,8.6c-2.1,0-5.2,0-9.4,0
			s-7.3,0-9.4,0c-1.3,0-3.4,0-6.1,0c-2.7,0-4.8,0-6.1,0c3.8-1.6,6.1-2.9,6.9-4c0.6-0.6,0.9-2.1,0.9-4.4V52.2L682.6,52.7z"/>
	</g>
</g>
<g id="Layer_2">
	<g>
		<path class="st3" d="M623.6,41l-10.6,0.7l-1.3,0.7l-21.2-0.9l-3.5,0.3l-3.5-0.3l-0.7,0.7c0,0.3-0.3,0.7-0.7,1.3l-1.3,9.7
			c0,0.7-0.3,1.3-0.7,2c-0.3,0.9,0,1.6,0.3,2.2c1.6-0.3,2.6-0.7,2.6-2.2l1.3-3.5c0.7-2,2-3.3,3.3-3.5l10-0.3l0.3,3.8
			c0,1.3,0,2.2,0.7,3.5l1.3,3.3c0,0-0.3,0.3-0.7,0.3h-0.3l-0.9,27.3c-0.7,1.3-0.7,2.9-0.7,4.5l-3.5,3.3l-2.2,0.3l-1.6,1.3
			c0.3,0.9,0.9,1.3,2,0.9l22.5-0.3l0.9-0.6c0.6-0.7,0.6-0.9,0-1.6l-5.5-0.6c-0.7-0.6-0.7-0.9-0.7-2.2l-0.9-3.5l-0.6-4.2l0.3-4.8
			l-0.9-5.5l0.9-10l-0.9-10c0.7-1.3,0.9-2.6,0.7-4.2l1.6-1.3l9.3-0.9c1.3,0.3,2.2,2,2.6,4.8l0.3,2.6c-0.3,0.7,0,1.6,0.3,2.2
			c0.9,0.3,1.3,0,2-0.7v-6.8c-0.3-2.6,0-4.8,0.7-7.1L623.6,41L623.6,41z M652.2,41.7l-1.6-0.3l-19.9,0.3c-0.6,0.3-0.9,0.9-0.9,2
			c0.9,0.7,2,0.9,2.9,0.9l1.6,1.6c1.3,1.3,2,2.6,2,4.5v4.8l0.3,3.3l-0.3,3.5l0.9,2.6l-0.6,2.9l-0.3,8.7c-0.6,0.9-0.3,1.6,0.3,2.6
			c0.6,0.7,0.9,2,0.6,3.3c-0.6,1.3-0.6,2.6-0.9,4.2l-0.9,4.5l-2.2,2c-1.3,0.3-2,0.6-2.9,0.9c-0.7,0.3-0.7,0.6-0.7,1.6h8.7l0.3-0.3
			l12.6,0.6l1.3-0.6l0.9-0.9l-2.9-0.7c-2.2-1.3-3.3-2.6-3.8-4.8c-0.4-2.1-0.6-4-0.6-6.1l-0.3-2.9L646,77l-0.7-2.2v-1.6
			c0-0.7,0-1.3,0.3-1.6l1.3-1.3l1.6-0.3h17.7c2.6-0.3,4.8-0.9,7.1-2.2l0.3,3.5c-0.3,0.7-0.3,1.6,0,2.9l0.3,3.3
			c0.6,4.1,0.3,8.3-0.9,12.2c0,1.6-0.7,2.6-2.2,2.9c-1.3,0-2.2,0.6-3.3,1.6l0.3,1.3h20.9l0.9-1.3c-0.6-0.3-1.3-0.3-2.2-0.6l-2.2-1.6
			c-1.3-2.9-2-6.1-2.2-9.3V72.3c-0.3-0.9-0.3-2-0.3-2.6l0.9-6.4v-4.2c-0.9-1.6-0.9-3.3-0.6-4.8c0.6-1.6,0.9-3.5,0.6-5.1l2-3.5
			c0.9-1.3,2.2-1.6,3.5-2c0.3-0.3,0.6-0.7,0.9-0.3l0.3-0.9l-2.9-0.9l-8.6,0.7l-9-0.3c-1.3-0.3-2.2,0.3-2.9,1.3l1.3,0.9l2,0.7
			c0.9,0.7,2,1.3,2.2,2.6l0.9,2.9l0.6,5.1c0,1.6,0.3,3.5,0.6,5.8c0.7,2.2,0.3,3.8-0.9,5.5l-6.4-1.6h-19l-2.2-0.7c-0.3-3-0.3-6,0-9
			c0-2.9,0.3-5.8,1.3-8.6c0.6-0.9,2-2,3.3-2l2.9-1.3L652.2,41.7L652.2,41.7z M701,41.4l-3.5,0.3c-1.6-0.3-2.2,0-2.6,1.6l3.8,2
			c0.9,0.7,1.3,1.6,1.6,2.9v3.8c-0.3,0.3,0,0.7,0,0.9l0.3,2c0.9,0.3,1.3,1.3,0.9,2.2l-0.9,2.6c0,0.7,0.3,1.6,1.3,2.2l-0.7,2.2l0.7,2
			c-0.3,0.9-0.7,2.6-0.9,4.8v6.8c-0.3,2.2,0,3.8,0,4.8c-0.3,1.3-0.3,3.3-0.3,5.1c0.3,1.6-0.3,3.3-2,4.2l-2.2,1.6
			c-0.9,0-1.6,0.7-2,1.6l2,0.6l2.2-0.3l35.1,0.6l0.3-0.3c1.6-0.6,2.6-1.6,2.9-2.9l1.3-4.2c0.7-1.3,0.9-2.2,0.9-3.5
			c-0.3-1.3-0.3-2.2,0-3.3c0-0.6-0.3-0.9-0.9-0.6h-1.3c-0.3,0.3-0.9,0.9-0.9,1.3l-0.3,1.6l-2.9,3.3l-3.3,2.9l-4.2,0.3h-8
			c-2.6-0.3-4.8-1.3-6.8-3.5c-0.3-0.6-0.6-1.6-0.3-2.6v-2.2l0.7-3.3l-0.3-3.3c-0.6-0.9-0.6-1.6-0.3-2.2l0.9-2.2c0,0,0-0.3,0.6-0.3
			l0.6-0.3l12.6,0.3l2.2,0.7c0.9,0,2.2,0.6,2.9,1.3l2,2.9c0.6,0,1.3-0.3,2-0.9l0.6-13.5l-0.3-0.9c-1.3-0.3-2,0-2.2,0.9l-0.9,2.2
			l-4.2,2L711,65.2c-0.7-1.3-0.9-2.2-0.7-3.8c0.7-1.2,0.7-2.7,0-3.8c0.9-1.3,1.3-2.6,0.9-4.5l-0.9-4.8c0.9-1.3,2-1.6,3.3-1.3
			l10.9,0.7l1.3-0.7h1.3l2.6,0.9c1.6,0.3,2.9,1.3,2.9,2.9c0.3,1.6,0.6,2.9,1.6,4.2l1.6-0.7l0.6-9l0.7-2.2c0.3-0.7,0-1.3-0.9-1.6
			h-13.2c-3.5,0.7-7.1,0.3-10.9,0C708.4,40.8,704.7,40.8,701,41.4L701,41.4z M237.6,6.9l-7.9-0.5l-5.4,0.5h-26.6l-2.5,2l2,1l1.4,1
			c1.4,1,2,2,2,3.4v3.4l0.5,3c1,0.5,1.4,1.4,1,2.5l-1,3l1.4,2.5c-1,1.4-1,2.5,0,3.9l-1,5L201.1,55c0,2-0.5,3.4-2,5l-2.5,1l-2,2
			l2,0.5L235,64l0.5-0.5c2-0.5,3-1,3.4-3l1-4.5l1-6.9l-1-0.5h-1l-1,1.4l-1,1.4l-2.5,3.4l-3.4,2.5l-4.5,1h-8.4c-3-0.5-5-1.4-6.9-3.4
			c-0.5-1-1-2-0.5-3v-3l0.5-3v-3.4c-1-0.5-1-1.4,0-2l0.5-2.5l0.5-0.5h13.8c0.5,0.5,0.5,0.5,1.4,0.5l3.9,2l2,2.5l2-1l1-13.8l-1-1
			l-2,1l-0.9,2.5c-1.4,0.9-3,1.4-4.5,2l-16.8-0.5c-0.5-1-1-2.5-0.5-3.9c0.5-1,0.5-2.5,0-3.9l1-5l-1-5c1-1,2-1,3.4-1l11.3,0.5
			l2.5-0.5h1.4l1.4,1c1.4,0,2.5,1.4,3,3l1.4,3.9l1.4-0.5l1-9.3l1-2C239,7.8,238.5,7.4,237.6,6.9z M182.8,14.2l2.5-3.4
			c0.5-1,2-2,3.4-2l1-0.5v-1l-6.4-1L178,6.8l-8.9-0.5l-3.4,1.4c1,1,2,1.4,3.4,2l2.5,3l1,3l1.4,10.9c0.5,2.5,0,4.5-1.4,5.9l-6.4-1.4
			h-17.3c-2,0.5-3.4,0-5-0.9v-9.3l1.4-8.9l3.4-2l1.4-0.5l1.4-1l-1.4-1.4c-0.5,0-0.9,0-0.9-0.5l-20.7,1l-1.4,2l3.4,1l1.4,1.4
			c1,1.4,2,3.4,2,5l0.5,8.4l-0.5,3.4c1,1.4,1,3.4,0.5,5.4l-0.5,8.9c-0.5,1-0.5,2,0.5,3c0.5,0.5,0.5,1.4,0.5,3l-0.5,5l-1.4,4.5
			c-0.5,1.4-1.4,2-2.5,2l-2.5,1l-1,1.4l8.9,0.5l0.5-0.5l12.8,0.5l2.5-1.4l-3-1c-2.5-1-3.4-2.5-3.9-5l-1-5.9l0.5-6.4l-1-2.5l0.5-3
			l2.5-2l18.7,0.5l7.3-2.5l0.5,3.4l-0.5,3l0.5,3.4c0.5,3.9,0.5,8.4-1,12.8c0,1.4-1,2.5-2.5,3l-3,1.4v1.4h22.5l0.5-1.4l-2.5-1l-2-1.4
			c-1.4-3-2-5.9-2-9.8l-0.5-10.3c-0.5-0.9-0.5-2.1,0-3l0.5-6.4v-3.9c-1-1.4-1-3.4-0.5-5C183.4,18.2,183.4,16.2,182.8,14.2
			L182.8,14.2z M110.5,6.9l-1,1L87.3,6.5L83.4,7L80,6.5l-1,1.4l-0.5,1l-1,9.8l-0.5,2c-0.5,1-0.5,2,0,2.5c1.4-0.5,2.5-1,3-2.5
			l0.9-3.4c1-3,3-4.5,5.9-4.5h7.9v4.5c0,3,1,5,2.5,6.4l-1.4,0.5l-1,23.6c0.5,2,0.5,3,0,4.5L94,57.7c-1,1.4-2,2.5-3.4,3
			c-2,0-3.4,0.5-4.5,2c0.5,0.5,1,1,2.5,1l23.2-0.5l1-0.5c0.5-0.5,0.5-1.4-0.5-2l-5.4-1l-1.4-5.4l-1-4.5c0.5-1.4,0.5-3.4,0-5.4
			l-0.5-5.4c0.5-3,1-6.4,0.5-10.3L104,18.4c0.5-1,0.5-2.5,0.5-3.9l2-1.4l9.3-1c1.4,0,2.5,2,3,5v2.5l1,2.5l1.4-0.5l0.5-14.3l-0.5-0.5
			L112,7.2L110.5,6.9L110.5,6.9L110.5,6.9z M461.9,48.5L459,51c-2,2.6-3.3,5.1-3.5,7.7l-0.3,4.2l-1.3,3.3v1.6l0.3,0.7l0.9,4.2
			c0.3,0.6,0.3,2,0.3,3.3c0.3,0,0.7,0.7,0.3,0.9l0.3,1.3l1.3,2.2c0.6,0.3,1.3,1.3,1.6,2l0.7,2.9l1.6,2.6l2.2,2.6l2.9,1.6
			c1.3,1.6,2.9,2.2,4.8,2.6c1.6,0.3,3.5,0.9,5.1,2.2l2,0.6h13.2c4.8-0.3,9-1.3,12.8-3.3c-0.3-0.7-0.9-0.7-2-0.7l-2.2,0.3l6.1-3.5
			l4.8-5.5l2.2-5.5c0-1.6,0.3-2.9,1.3-4.2c0.3-1.3,0.7-2.6,0.3-4.5c0.7-2,0.7-3.8,0-5.5l-0.9-5.5c-0.9-3.3-2.6-6.1-4.5-9
			c-0.9-2-2.6-3.3-3.8-4.2c-1.8-0.9-3.4-2.1-4.8-3.5l-3.8-1.6l-3.3-0.3c-1.3-0.9-2.6-1.3-4.2-1.3l-4.5,0.3l-3.5-0.3l-3.8,0.3l-5.8,2
			l-3.5,0.7c-1.3,0-2.2,0.3-3.3,1.3l1.3,0.3l2.2-0.9l2.6,0.3l-0.7,0.7l-5.5,2.2C463.8,46.9,462.8,47.4,461.9,48.5z M471.5,48.7
			l6.1-3.8l8.6-0.3l0.7,0.3l6.8,2.2c2.2,1.6,4.1,3.7,5.5,6.1l3.8,7.4c0.9,3.8,1.6,8,1.3,12.6c0.3,2.9-0.3,5.5-1.3,7.7
			c-0.3,1.3-0.7,2.2-1.3,3.3l-3.5,4.5l-2,1.3l-4.5,2l-7.4,0.3l-2.2-0.3l-7.4-3.3l-0.7-1.3l-5.1-4.5c0-1.3-0.3-2.2-0.7-3.3l-0.9-2.9
			l-1.6-2.6l-0.9-2.2l0.7-2c0-0.6,0-1.6-0.3-2l0.3-3.8c0-1.3,0.3-2.6,0-3.8c0.7-0.7,0.9-0.9,0.9-1.6v-2c-0.3-1.6,0.3-3.3,1.6-4.2
			C469.2,51.4,470.6,50.4,471.5,48.7z M522.4,41.4l-2-0.7c-0.9,0-1.6,0-2.2,0.9v1.3l0.9,0.7c0.9-0.3,2,0.3,2.2,1.3l2,2.6l0.7,1.6
			v1.3c0.7,2,1.6,3.8,1.6,6.1c0.3,2.1-0.3,4.2-1.6,5.8c0.7,1.3,0.7,2.2,0.7,3.8l-0.3,3.5c0.3,2.6,0.7,5.1,0.3,7.7v7.4l-1.6,5.8
			l-1.6,1.6l-1.6,0.9l-0.7,0.6l-0.7,1.3l2.9,0.3l2.6-0.3h10.3l7.7,0.3l0.9-0.3l0.7-0.9l-5.8-2c-1.3-0.3-2.2-1.3-2.9-2.6l-0.9-3.8
			l0.3-2V82c-0.7-1.6-0.7-3.5,0-4.8c0.7-1.6,0.9-3.3,0.7-4.8c0.7-0.9,1.6-1.3,2.6-0.9l3.3-0.3l10.6,0.3c1.6,0.6,2.6,1.6,2.9,3.3
			l0.7,2.2c0,0.6,0.7,0.9,1.6,0.9l0.9-0.9l0.9-11.5l-0.3-4.8c-1.3,0-2,0.3-2.2,0.9c-0.3,1.3-0.9,2.2-1.6,2.9l-2.9,1.6h-17v-6.4
			c0.9-2,1.3-3.8,0.7-5.5c-0.7-1.8-0.7-3.7,0-5.5c0.7-1.6,1.6-2.2,3.3-2l10-0.3l5.8,0.7l2.6,3.5l0.9,4.2h1.3l0.9-0.9l0.7-1.3v-5.5
			c0.3-1.6,0.3-3.5,0-5.5l-4.2-0.7l-19.3,0.3C532,41.7,527.1,41.7,522.4,41.4L522.4,41.4z"/>
		<path class="st4" d="M322.4,75.2c-3.3-2-6.4-3.3-9.7-4.4l-12.3-2.6L282.2,68l-0.6,0.2l-7.8,0.5l-1.8,1.5c-0.9-0.2-1.5-0.5-2.2-0.9
			h-2.2l-1.8,1.1l-0.6,1.8c-0.4,0.5-0.6,0.5-0.9,0.2c-1.1-1.4-2.2-2.2-3.5-2.4h-5.1l-0.9,0.2l-0.5,0.2l-0.2,0.5l-1.1,0.2l-1.1-1.1
			h-0.6l-0.9,0.2h-2l-2,0.2l-0.6,0.5l-0.4,1.8c0,0,0,0.2,0.2,0.5l3.3,0.5h0.2c1.1,0.2,2,0.5,3.1,1.4l2,1.1l0.9,2.2
			c0.9,1.1,1.5,2.2,1.8,3.5l0.2,4c0.6,0.9,1.1,1.8,1.1,2.9l-0.2,1.8l-0.2,1.1l-0.2,0.9v1.5l0.2,0.9l-0.2,0.2v1.5l0.6,1.8
			c0.2,0.9,0.2,1.5-0.2,2.2v0.5l-0.2,0.2v2.4l0.2-0.2l0.2,2.4l-0.4,3.1c0.4,0.6,0.4,1.5,0.2,2.4l-0.2,2.4l0.4,0.9
			c0.2,0.9,0.5,2,0.2,2.9c-0.4,0.9-0.4,1.8-0.4,2.6l0.2,4c-0.4,0.9-0.6,1.8-0.4,2.9v2.9c0.4,0.9,0.6,1.5,0.4,2.4l-0.2,2
			c-0.2,0.5-0.5,1.1-0.2,1.8l0.2,3.5l-0.2,3.8c-0.6,0.5-0.9,1.1-0.6,1.5l0.6,1.5c0.2,0.5,0.2,1.1,0,1.8c-0.5,0.6-0.5,1.4,0,2
			c0.4,0.6,0.2,1.4-0.2,2c0,1.1-0.2,2.4-0.9,3.3l-1.1,3.3l-2.4,1.8c-0.4,0.2-0.6,0.2-0.9,0l-2.2-0.5l-2.4-1.4l-2-0.4l-5.8-5.8
			l-5.9-8.8l-8.6-15.2l-1.8-4c-0.9-1.4-1.5-2.6-1.5-4.2l2.4-2l6.4-6.9l2-3.3l0.4-0.9l0.5-1.1l1.1-2.6l1.5-10.8v-0.5l-0.4-1.5v-2
			l-2.4-6.6c-0.9-2.2-2.4-4.2-4.4-5.9c-2.2-2-4.6-3.5-7.1-4.9l-2.2-0.9h-0.5l-0.9-0.2l-0.5-0.2l-2-0.5v-0.2l-2-0.2l-0.2-0.2h-0.2
			l-3.3-0.4c-0.5,0-0.9,0-1.1-0.5l-6.6-0.2h-1.5l-16.1,0.6l-4.6,0.6l-9.7,0.2l-2.9,0.5c-1.4-0.2-2.2,0.2-2.6,1.1l0.5,2l2.4,0.2
			l2.4,0.9h0.2l0.9,0.2l2,1.8l0.5,0.6l0.9,2.6l0.2,2.6v0.9l0.5,1.1l0.5,0.9l0.6,7.1l-0.5,0.2v0.2l-0.2,0.9l0.2,5.9
			c0.5,0.6,0.9,1.4,0.9,2.2v0.6l-1.1,3.5c-0.5,1.5-0.4,3,0.2,4.4c0.2,0.6,0.5,1.4,0,2l-0.2,2.2l0.2,1.5v7.1l0.5,1.5l0.2,0.2l1.1,1.1
			l-1.4,2.6c-0.6,1.1-0.6,2.2-0.5,3.3v6.4l0.5,1.4l-0.5,1.8v1.1l-0.2,2v2.9c0,1.1-0.2,2-0.5,2.9c0.2,1.1,0.2,2.2,0,3.3l-0.9,3.1
			l-2,2.4l-2.2,2l-2.6,0.5c-1.1,0-2,0.5-2.6,1.1v0.9l0.2,1.4l2,0.5l6.4-0.2l1.4-0.2l12.2-0.5h0.2l1.5,0.5h1.4l2.9,0.2l5.8,0.2l4-0.2
			l1.5-0.2H204l0.6-1.1v-1.4l-1.8-0.6l-2.6-0.5l-2-0.9l-2.6-1.5l-2.2-2.6l-0.2-1.5c0.2-1.4,0-2.2-0.2-3.3c-0.6-0.9-0.9-2-0.9-3.1
			l0.2-1.1l-0.5-1.1l-0.2-3.5v-4c0.2-2,0.2-3.8,0.2-5.5l-0.6-6.4l0.2-0.2l0.6-0.6l1.4-0.5h0.2l0.2,0.2l3.1,0.4h0.5l5.1-0.6h4.2
			l0.9,0.6l2.4,5.8l5.5,10.4c0.9,2,2,4.2,3.5,6.2l4,6.2l4.9,5.3l2.4,2.2l2.6,1.5h0.2l0.2,0.2l2.2,0.6l2.2,1.1h2.2l1.5,0.5l0.6-0.2
			c0.3,0.3,0.7,0.4,1.1,0.5h0.2l1.4-0.5h7.8l7.8,0.5h0.2l1.1-0.5h1.4l0.9,0.2h0.6l1.4-0.2h8.2l1.5,0.5h17.2l0.9-0.2h0.2l4-0.2
			l5.1-0.6l0.6-0.2l2.4-0.5h0.6l1.5-0.2h0.5l0.2-0.5h1.1v-0.2c1.1,0,2.2-0.2,3.3-0.9l1.5-0.6l1.8-0.5l2.2-1.5l0.5-0.2l2.9-1.8
			c2.2-0.9,4-2.4,5.5-4.2l5.1-5.8l4.6-8.6l3.3-9.7v-0.5l0.9-4v-0.6l0.4-3.5l0.2-3.8c0.5-1.1,0.5-2.2,0.2-3.3V113l-0.2-1.1l0.2-2.6
			l-1.4-5.5c-0.4-2-0.9-3.8-1.4-5.8l-2.2-5.8c-0.6-2-1.8-4-3.3-5.5l-3.8-4.6C328.4,79.2,325.5,77,322.4,75.2L322.4,75.2z
			 M305.8,80.1l1.8,0.9l4.4,2.9c0.4,0.9,1.1,1.5,1.8,2.2c0.9,0.5,1.4,1.1,1.5,2.2c1.6,1.4,2.9,3.2,3.8,5.3c0.9,0.6,1.1,1.4,0.9,2.4
			l1.8,2.2l0.6,2.2v0.2l-0.2-0.2c0.2,0.6,0.5,1.4,0.9,1.8l0.9,0.9c-0.2,0.6-0.1,1.3,0.5,1.8l1.1,1.5l0.2,0.2c0,0.5,0,0.9-0.5,1.4
			c-0.2,0.6,0.2,1.4,0.9,1.5h2.6l2.6-0.5l2,0.5h0.2l0.5-0.2h1.4l1.8,0.2l1.5,0.5l0.4,0.2l-0.2,0.6h-0.2l-1.4,0.5l-0.2,0.2h-1.4
			c0,0-0.2-0.2-0.5-0.2h-1.1l-7.9,0.9l-1.1,0.6l-0.2,0.2l-0.4,1.1l1.1,1.8c0.2,0.5,0.2,1.1,0,1.8l-0.2,1.8v0.2c-0.2,0.6,0,1.4,0.2,2
			l0.2,0.5l-0.5,1.8v0.9l0.2,1.1l-0.2,0.6l-0.6,1.5v-0.2l-0.9,6.6c-0.2,2-0.9,4-2,5.5c-1.1,1.8-2,3.8-2.6,5.5l-3.5,4.4
			c-1.6,0.7-3,1.6-4.2,2.9c-1.4,1.1-2.9,2-4.4,2.4l-2.2,0.6c-0.6,0.5-1.4,0.6-2.4,0.5l-7.8,1.1l-18.3-1.8l-2.4,0.2l-3.1-0.9h-0.2
			l-0.4-0.9l1.1-1.4l1.1-0.6l1.8-0.5c0.6-0.2,0.9-0.5,0.9-0.9l-0.6-2.2l-0.2-3.5l-0.2-1.4v-1.1l0.4-2v-1.4l-0.4-0.9
			c-0.2-1.1-0.2-2.2,0-3.1l0.2-6.9c-0.2-1.5-0.2-2.9,0-4.2l-0.5-25.9c0.5-1.1,0.6-2.2,0.2-3.1c-0.2-1.1-0.2-2.2,0-3.3
			c0.2-1.1,0.2-2.4,0-3.5v-0.2l0.2-2.6l-0.2-0.5v-0.9c-0.2-1.4-0.2-2.6,0.2-4v-1.5l0.2-0.6h0.2l2.6-0.6l2.6-0.2l5.5-0.9l6.6,0.2
			l5.5,0.9l0.6-0.2l2.2,0.5l0.2,0.5c0.6,0.2,1.5,0.6,2.2,0.6l0.5,0.2L305.8,80.1L305.8,80.1z M215.3,85.2l0.6,1.5l2,3.8l0.5,1.4
			l0.4,0.5l0.4,2c0.5,1.1,0.5,2.4,0.2,3.8l-0.4,4.2c-0.6,1.1-0.9,2.2-0.9,3.5c0,1.4-0.5,2.6-1.1,3.5v0.9l-2.9,3.5
			c-0.9,1.1-1.8,1.8-3.1,2.2l-4,2.2l-4.6,0.9l-2.4-0.5l-2.4,0.2c-1.1-0.5-2-0.5-2.9,0c-0.9,0.2-1.8,0-2.4-0.9V117l-0.6-5.1v-1.5
			l0.5-1.4c0-1.1,0-1.8-0.2-2.6c-0.2-0.6,0-1.5,0.6-2.2l-0.5-1.4l0.2-1.4v-0.2l0.2-1.4c0.2-0.5,0.2-0.9-0.2-1.4l-0.5-1.5l-0.2-0.6
			l0.5-0.9l0.5-5.9v-0.5l0.2-4c0.2-0.5,0.2-0.9,0.2-1.4v-0.2l-0.2-0.2l0.5-1.1l-0.2-2.9l0.2-2.6c0.2-0.4,0.6-0.6,1.1-0.6
			s0.9,0,1.4-0.2L203,76l3.8,0.9h0.2l4.2,2.4l2,2L215.3,85.2L215.3,85.2z M733.3,103.1l-4.2,0.8h-5l-10.2-1.1
			c-0.4-0.4-0.8-0.4-1.4-0.4H711l-2.3,0.4c-0.2-0.4-0.6-0.4-0.8-0.4l-1.1,0.4l-1.3,0.2h-1.3l-0.8,0.2l-0.6-0.2l-2.1,0.4l-2.1,0.2
			l-6.5,3.6l-3.8,2.7c-0.8,0.4-1.4,1.1-1.9,1.7l-0.6,2.3H685l-0.4-0.8c-0.8,0-1.3,0.4-1.4,0.8l-2.5,2.9c-0.6,0.6-0.8,1.3-0.6,1.9
			c-0.6,1.1-0.8,1.9-0.8,3.1c-0.2,1.1-0.7,2-1.4,2.7v1.3c0,0.4,0.4,0.6,0.8,0.8l-0.4,1.3c-0.2,0.4-0.2,1.1,0.2,1.7
			c0.4,0.4,0.4,1.1,0,1.7c-0.2,0.4-0.2,0.8,0.2,1.4c0.8,1.1,1.1,2.5,0.8,4c0,0.6,0,1.1,0.4,1.4l1.3,0.8c0.2,0.2,0.4,0.6,0.2,1.3
			l2.1,2.7c0.6,0.8,1.4,1.7,2.5,2.1l0.2,0.4H686l0.6,0.6l1.3,1.1l1.9,1.1l0.6,0.2c1.1,1.3,2.3,2.1,3.6,2.5l1.7,0.6l2.5,1.7
			c0.8,0.6,1.7,1.3,2.9,1.4c1.1,0.2,1.9,0.8,2.9,1.4c0.6,0.4,1.3,0.6,2.1,1.1l2.3,0.8l5.5,2.7l1.4,1.1l0.4,0.4
			c0.6-0.2,1.3,0.2,1.9,0.8l1.3,1.7h0.4l1.3,0.8l0.8,1.4c1.1,0.4,1.4,1.3,1.9,2.3c0.2,0.8,0.6,1.7,1.3,2.5v0.6l0.6,4.4L724,179
			c-0.6,0.8-0.8,1.7-0.6,2.5l-0.8,1.3l-0.6,1.3c-0.6,1.7-1.3,2.9-2.1,3.6c-0.6,0.6-1.4,0.8-2.3,0.8l-2.3,0.4
			c-1.1,0.2-2.1,0.6-3.1,1.1l-2.5,1.9c-0.8-0.4-1.9-0.8-3.6-1.1l-4.4-0.2l-0.6-0.4h-0.8l-4.2-0.6l-0.8-0.6c-2.3-0.2-4.6-0.8-6.5-1.9
			l-1.4-0.8c-0.6-0.4-1.3-0.8-1.7-1.1c-1.4-0.6-2.6-1.7-3.1-3.1l-2.7-3.8c-0.4-0.8-0.8-1.7-0.6-2.9c0-1.1-0.2-2.1-0.6-3.1
			c-0.4-0.6-0.4-1.3-0.2-1.7c0.2-0.6,0.2-1.3,0-2.1l-0.2-1.3l-0.4-1.3l-0.6,0.2v-0.2c-0.8,0-1.4,0.2-1.7,0.6l-0.2,0.2l-0.4,2.3
			l-0.2,0.8v2.1l0.2,0.8l-0.2,8l0.6,4v1.1l0.8,2.9c0,1.1,0.2,2.1,0.4,3.1v0.2l0.2,0.2c0.6,0.6,1.1,0.8,1.9,1.1l12.7,3.8
			c0.8,0.2,1.4,0.2,2.1,0c0.6-0.4,0.8-0.8,0.8-1.3l-1.3-0.2l-1.1-0.6c0-0.4,0.4-0.6,0.6-0.6l1.1-0.4l2.9,0.6
			c1.1,0.2,1.7,0.6,2.5,1.3v0.6l-0.4,0.4l-0.4,0.6v0.4l0.6,0.6l9.4,0.2l10.8-1.7l5.9-2.6c0.8-0.6,1.4-1.1,2.3-1.4l4.4-3.6l3.6-4
			l1.3-2.7l0.4-1.3l1.3-2.7l0.4-2.1l0.8-2.7l-0.4-4.6v-0.2l-0.6-4.4c-0.2-1.4-0.6-2.7-1.3-3.8l-1.9-3.6c-2.1-2.7-4.6-4.8-7.3-6.7
			c-2.7-1.9-5.5-3.6-8.2-4.8l-9-4l-2.7-1.1l-6.7-4.2c-2.3-1.3-4.2-3.1-6.1-5.5c0-0.8-0.4-1.7-0.8-2.3l-0.4-1.3l-1.1-5.2l0.2-0.4
			l0.6-1.9c0-1.1,0.4-1.7,1.3-2.1v-0.2l0.4-0.2l2.3-2.9l3.3-2.3l0.6-0.2l0.4,0.2h0.2l0.8-0.4l1.9-0.2c0.2-0.4,0.8-0.6,1.3-0.8
			l2.9,0.2l2.9-0.4c0.4-0.2,1-0.2,1.4,0l0.4,0.2h1.3l1.9,0.2l1.4,0.4c1.4,0.2,2.7,0.8,3.8,1.7l1.3,0.8l2.3,2.1l1.3,1.4l2.5,5.2
			l0.2,0.8l0.2,2.1v0.2l0.4,1.4v0.6c-0.2,0.8,0,1.4,0.4,2.1h1.7c0.6,0.2,1.1-0.2,1.4-0.6l0.2-8c-0.2-2.3,0-4.6,0.4-6.7
			c-0.2-2.1,0-4,0.4-5.6l0.2-1.3v-4.4l-1.3-0.6v0.2l-0.4-0.2L733.3,103.1L733.3,103.1L733.3,103.1z M640.3,103.9h-6.5l-0.8,0.4
			c-0.4-0.2-0.6,0-0.8,0.4l-3.1,0.2l-4.6,1.1c-0.8,0-1.4,0-1.7,0.4L621,107c-0.6-0.8-1.3-1.1-1.9-0.6l-1.7,1.4l-2.1,0.2l-4.4,4.8
			l-3.6,2.5c-0.3,0.6-0.4,1.2-0.4,1.9c-0.2,0.6-0.4,1.1-1.1,1.1l-1.7,0.2c-0.2,0.2-0.4,0-0.6-0.2l-0.2-0.4c-0.4,0-1.1,0.4-1.7,1.3
			l-6.1,9c-0.8,1.7-1.4,3.3-1.4,5.2c-0.6,0.6-0.8,1.4-0.8,2.5l-0.4,2.5v-0.4l-0.2,0.6l-0.4,1.1c-0.4,1.1-0.7,2.2-0.6,3.3v0.2
			c-0.2,1.7-0.2,3.3,0,5c-0.2,1.1-0.2,2.1,0,3.3c0,1.1,0,2.3-0.4,3.3l0.4,1.4l0.4,4.2l0.4,0.4v0.2c0,0.2,0,0.4,0.4,0.6l0.8,2.1
			c-0.2,0.8,0,1.3,0.2,1.9l2.7,6.7l5,7.5c1.9,2.5,4.2,4.6,6.9,6.1c1.6,1.8,3.4,3.1,5.6,4c2.1,1.1,4.2,1.9,6.3,3.1l4.6,1.7l2.3,0.4
			l0.8,0.4l3.8,0.8l2.9,0.2l6.3,0.4l0.4,0.2h1.1l2.1-0.2h2.5l0.4-0.4l5-0.2l0.4-0.4h0.4l1.1-0.2h1.3l3.6-0.8l1.3-0.2l1.1-0.2
			l0.4-0.2l1.9-0.6l1.1-0.2l1.3-0.2l0.4-0.4l0.8-0.2l1.3-0.6l0.2-0.2l-0.2-1.7v-0.4l-0.2-3.1l0.2-1.1c-0.4-1.3-0.4-2.3-0.4-3.3V182
			c0.2-1.3,0-2.5-0.4-3.6c-0.2-0.6-0.2-1.1,0.2-1.4v-9l0.4-0.2l0.2-6.1l0.6-1.1c0-1.7,0.2-2.9,1.1-4l0.6-1.9h0.2v-2.5h-6.9l-1.3-0.4
			h-1.3l-2.3,0.4h-2.2l-1.1,0.2c-0.4-0.2-0.8,0-1.3,0.4l-6.7-1.1l-9,0.4c-0.4,0-0.6,0.2-0.8,0.8v0.2h-0.2v1.1l1.1,1.1h6.7l3.1,1.4
			c0.6,0,1.1,0.2,1.4,1.1l0.6,1.7c0,0.4,0.2,1.1,0.6,1.1l0.4,0.2c0.2,0.2,0.4,0.6,0.6,1.1l0.4,1.4v0.2l0.2,0.8v0.6l0.4,3.8l-0.4,2.1
			l-0.2,6.5l0.4,1.1l0.2,0.4c0.4,0.8,0.2,1.7-0.4,2.7v0.6l0.2,0.6l0.2,1.7c0,0.6,0.6,1.1,1.7,1.3l1.1,0.8v-0.2v0.6l-0.2,1.4
			c-0.2,0.6,0,1.1,0.4,1.7l-2.1,0.6l-1.3,0.4l-0.2,0.2l-0.4,0.2h-3.6l-5.8-0.8l-9.4-2.3l-2.5-0.2l-4-2.1l-2.1-0.4l-6.7-5.8l-1.4-2.3
			l-1.7-2.1c-0.2-1.1-0.6-2.1-1.4-2.7c-1.1-0.8-1.7-1.7-1.9-2.7c-0.8-0.4-1.1-0.8-1.1-1.4l-0.2-1.7l-0.2-0.8l-0.4-1.7l-1.1-2.3v-1.1
			l-0.8-4.6l-0.8-2.1l0.4-4.2c-0.4-0.8-0.6-1.9-0.6-2.9l0.4-3.3v-1.7c0-0.6,0-1.3,0.4-1.7c-0.6-1.1-0.6-2.1,0-2.9l0.6-2.9l1.9-5.8
			l1.3-1.4l0.2-1.9c0.2-0.6,0.6-1.1,1.3-1.4l1.4-2.7c0.4-1.1,1.3-1.7,2.3-2.1l1.9-1.3c0.4-0.6,1.1-1.1,1.7-1.3
			c0.8-1.1,1.9-1.9,3.1-2.3l4.4-1.7h1.1c0.8-0.4,1.7-0.6,2.7-0.8l3.6-0.8l11.9,0.2l1.4,0.4l4.8,1.1l3.1,1.9c0.8,0,1.3,0.4,1.9,0.8
			l1.7,1.1l5.5,6.9c-0.2,0.8,0,1.7,0.2,2.5l0.4,1.1l-0.4,4.2v0.8l1.3,0.8l1.9-0.4c0.7,0,1.2-0.4,1.4-1.1c0.2-1.1,0.2-1.9-0.4-2.7
			v-0.8c0-0.6,0.2-1.4,1.1-1.9l-0.2-1.3l-0.6-0.4l-0.2-0.6v-0.4c-0.2-0.4,0-1.1,0.2-1.4l0.8-1.7c-0.6-0.4-0.8-1.1-0.6-1.4v-0.2
			l0.4-1.4v-1.4l-0.2-0.2v-0.8l0.4-0.6l0.2-2.3l0.6-2.7c0-1.1,0-1.9,0.2-2.5v-0.6l-0.2-0.2v0.2l-0.2-0.2v-0.2l-1.1-0.2l-1.1,0.2
			h-0.2l-0.8-0.4l-2.9,0.2l-4.4-0.4l-2.1-0.4l-17.4-0.6l-1.3,0.2L640.3,103.9L640.3,103.9L640.3,103.9z"/>
		<path class="st4" d="M593.7,105.2h-4l-2.5,0.4h-2.5l-1.9,0.2l-8.6-0.8l-7.3,0.2c-0.4,0.2-0.6,0.6-0.4,1.1v1.3l0.2,0.6h-0.2
			l0.4,0.4h0.6l1.3,0.4l1.3,0.2l2.1,1.1l0.8,0.6c0.8,0.6,1.4,1.4,1.9,2.7l0.6,3.3l0.4,3.3v0.2l0.2,0.4l0.2,0.8v0.2
			c-0.2,0.6-0.2,1.1-0.2,1.7l-0.2,0.6c-0.2,0.6-0.2,1.4,0.2,2.3l0.2,0.4l0.2,0.8v0.6l-0.2,1.1c-0.2,0.4-0.4,0.8-0.4,1.3v0.4l0.2,0.6
			l0.2,1.1l0.2,0.6l0.2-0.2v1.1l-0.4,1.4l0.4,6.1c0.2,0.8,0.4,1.4,0.2,2.3l-0.6,2.3c0.6,0.8,0.8,1.9,0.8,3.1
			c-0.2,1.3-0.2,2.3,0.2,3.3c0.4,0.8,0.4,1.7,0,2.3c-0.4,0.6-0.4,1.4-0.4,2.3c0.6,0.8,0.8,1.9,0.6,2.9c-0.4,1.1-0.4,2.1-0.2,3.1
			l0.2,3.3c-0.2,1.3,0,2.3,0.4,3.6l-0.4,0.6l-0.8,0.4l-2.7-2.9l-2.9-2.9l-1.1,0.6c-0.8-0.6-1.3-1.3-1.4-2.1l-0.2-2.5
			c-1.1-1.7-2.5-3.1-4.2-4.4l-0.8-1.1l-1.4-0.8c-0.2-1.1-0.6-2.1-1.7-2.9l-2.5-2.5h-1.3l-1.1,0.6c-1.1,0-1.9-0.6-1.9-1.3v-4.8
			l-4.4-5.5c-1.7-1.7-3.2-3.6-4.4-5.6l-19.5-27.2c-0.6-0.6-1.3-0.8-2.3-0.8l-5.6,0.8h-12.3l-2.3-0.6l-2.5,0.2l-1.7-0.4l-1.9,0.4
			c-0.6,0-1.1,0.4-1.1,1.1v1.9l0.4,0.2l0.2,0.2h0.8c2.5,0,4.6,0.4,6.9,1.3c1.7,0.6,3.2,1.6,4.6,2.7l1.1,1.1l0.4,0.4l-0.2,0.4
			l-0.4,1.4l-0.2,0.2v1.4l0.4,0.8v1.9l0.4,1.9v1.3h-0.2v2.9l0.4,1.4l-0.2,8.3l0.4,3.1v-0.2l0.2,0.8l-0.2-0.6l0.2,9.2v0.4l-0.2,0.6
			v0.4l0.4,1.3l-0.2,4c-0.4,0.6-0.2,1.4,0.2,2.3c0.4,0.8,0.4,1.4,0,2.5l0.4,1.7c0,0.6,0,1.3-0.2,1.9l-0.2,1.3v1.3
			c0.4,0.6,0.4,1.3,0.4,2.3l-0.4,2.1c0.6,1.1,0.8,2.3,0.8,3.6l-0.6,4.2l-0.2,0.4v0.6c-0.6,0.8-0.6,1.7-0.2,2.7
			c0,0.8-0.2,1.9-0.6,2.5c-0.2,1.3-0.8,2.3-1.4,3.1l-2.5,2.5c-1.1,0-1.9,0.4-2.5,1.1c-0.8,0.4-1.9,0.8-2.7,0.8l-1.1,1.3l-0.4,1.1
			v0.2l0.2,0.8l0.6,0.2l5.6-0.4l0.2-0.2h1.9l3.3-0.4h3.1l1.1,0.4h1.3l1.7-0.4h0.6l1.4,0.6l2.3-0.2l2.3,0.2h5.2
			c0.4,0.2,0.8,0,1.1-0.6l0.2-1.7l-0.6-1.1c-1.9,0-3.6-0.4-4.8-1.1l-4-3.1l-1.7-5.6c-0.4-2.1-0.4-4-0.2-6.1l-0.2-2.3l0.2-2.5
			l-0.6-6.9l0.2-1.9v-0.4l-0.2-1.4v-2.1l0.2-3.1l-0.2-5.2c-0.6-1.4-0.4-2.9,0-4.4v-0.2l-0.2-1.4v-0.6l0.2-1.4v-1.4l-0.6-2.7l0.4-1.1
			v-0.4l0.2-0.6c0.2-0.8,0.2-1.3-0.2-1.9l-0.2-1.9c0.2-0.8,0.2-1.4,0-2.1l-0.6-1.9c-0.2-1.3,0-2.1,0.8-2.9c0.8,0,1.4,0.2,1.4,0.8
			l0.4,0.6l0.2,1.1c0.2,0.6,0.6,0.8,1.4,1.3c0,1.3,0.4,2.1,1.7,2.7c1.1,0.6,1.9,1.4,2.5,2.3c0.8,0.8,1.4,1.7,1.9,2.7
			c0.2,0.8,1.1,1.7,2.1,2.3l1.4,2.1c0.8,1.1,1.7,2.1,2.3,3.1l0.8,1.3l5.2,5.8c1.4,1.3,2.5,2.5,3.3,4.4c1.1,0.8,2.1,2.1,2.7,3.3
			l2.7,3.6c0.4,1.1,1.1,1.9,1.9,2.5c1.1,0.6,1.7,1.4,2.1,2.5l4.4,4.2c1.1,2.3,2.5,4.2,4.6,5.5l1.1,1.7v0.4l1.1,0.8l1.1,1.3l0.4,0.2
			c0.6,0.2,1.1,0.8,1.3,1.7l7.3,8.3c0.2,0.8,0.8,1.3,1.4,1.9l0.6,0.2l1.4,1.4l3.6,0.6l0.4-0.2h1.9l2.3-0.8l-0.2-1.1
			c0.2-2.2,0.2-4.5,0-6.7v-11.5l0.2-0.8v-0.2l-0.2-0.8l-0.6-7.3l0.4-0.8v-2.2l-0.2-0.4v-1.1l-0.2-0.2l0.2,0.2v-1.4
			c0-0.4,0-0.6,0.2-1.1l-0.4-14.4l0.2-1.9v-0.4l-0.4-6.1l-0.2-2.3c0-1.4,0-2.7,0.2-4l0.4-1.9V121l0.8-2.7c0.2-0.6,0.2-1.3,0.6-1.9
			l1.1-2.3l0.4-0.6l0.2-1.1c0.2-0.4,0.6-0.8,1.1-1.1l0.6-0.4l1.4-1.3l0.8-0.4h1.1l0.4-0.2h1.7c0.2-0.4,0.4-0.4,0.8-0.4l0.2-0.2
			l0.2-0.6l0.2-0.8l-0.2-1.3L593.7,105.2L593.7,105.2z"/>
		<path class="st4" d="M570.6,163.3v-0.8l-0.4-0.4c-0.6,0.4-0.8,0.8-0.8,1.4l0.6,0.4l0.4-0.2L570.6,163.3L570.6,163.3z M25.8,36.6
			c-1.1,0.2-1.8,0.2-2.4,0l-2,0.5h-2c-0.6,0-0.9,0.2-0.6,0.6l-0.5,1.1v1.1l0.5,0.6h0.2l-0.2,0.2l5.9,0.6l2.2,2.4l0.6,1.8l0.5,0.2
			l1.8,2V48l-0.2,0.6l-0.5,1.1l-0.2,0.5l-0.2,0.6l0.2,1.1l0.9,1.1L30,54v1.1l-0.2,0.2l-0.5,2l0.5,2l0.2,0.9c0.2,0.6,0.2,1.5,0,2.4
			l0.9,7.5v0.2l0.2,0.9v0.2l-0.6,4v0.2l0.5,1.1v0.6l-0.5,2.2v0.6l0.2,0.9l1.4,4.4c0.6,0.9,0.9,1.8,0.9,2.6l-0.2,8.8
			c0.5,1.5,0.5,3.1,0.2,4.6l0.2,2.2c0.2,0.9,0,1.5-0.2,2l-0.2,2.4l0.5,7.5l-0.2,2.4l0.2,1.4c0.2,0.6,0,1.4,0,2v0.9l-1.1,4
			c0,1.1,0.2,2.2,0.9,3.3v0.5l-0.5,1.8l-0.2,0.2l0.2,2l0.2,0.5l0.2,0.5V135c0.2,1.1,0.2,2.2,0,3.3l-0.9,4v3.8
			c0.2,1.1-0.2,2.4-0.6,3.3c-0.2,1.5,0,3.3,0.5,5.1c0.5,1.8,0.6,3.3,0.6,5.1c-0.2,1.5-0.9,3.1-2.6,4.4c-0.5,1.1-0.2,2,0.5,2.9
			l0.9-0.2l0.6,0.2c0,0.6,0.2,0.9,0.6,1.1L33,169l-1.5,1.5c-0.5,0.6-1.1,0.9-2,0.6l-0.2,0.6l0.2,0.6c-0.2,1.1,0,2,0.5,2.9
			c0.6,0.6,0.6,1.8,0.5,2.9l-2.2,2.6c-0.2,0.9-0.6,1.8-1.5,2.4l-3.5,2.2c-0.2,0.2-0.5,0.2-0.9,0.2c-0.2,0.2-0.4,0.2-0.9,0.2
			l-0.9,0.4l-2.2,0.5H18l-0.6,2v0.2h-0.2v1.1l2,0.5l-2,0.2l4.4,0.6l30.3,0.5l1.4,0.5h1.4l4-0.5l38.8,0.6c0.6-0.2,1.1-0.9,1.4-1.5
			l1.4-3.1c0.6-0.9,0.9-2,0.6-3.1l2-6.9l-0.5,1.1l2.4-8.4l0.9-2v-0.9l0.5-0.2h4.2l0.5,0.5l4.4,0.2l12.8-0.9l1.1-0.5l1.4-0.5l1.1-0.2
			h0.9c0.6-0.2,1.4-0.6,2-0.9l2.2-0.6l1.4-0.6l1.1-0.6l5.1-2.2c1-0.5,1.9-1.1,2.9-1.8l1.5-1.8c0.9,0,1.8-0.5,2.4-1.4l4.2-4.4
			c0.5-0.9,1.1-1.4,2-1.5l2.2-3.3l1.5-4l0.6-0.6l1.4-1.8l0.2-1.1l1.5-1.5c0-1.5,0.2-2.6,0.9-3.8c0.6-1.1,0.9-2.4,0.6-4l0.6-1.5
			l1.1-5.1v-4.2l0.2-1.5c-0.2-0.9-0.2-1.8-0.6-2.6l-0.2-1.4v-1.4c0.2-3.3,0-6.2-1.1-8.8l-0.9-3.1c-0.2-1.1-0.6-2-1.5-2.6
			c-0.5-2.2-1.1-4.2-2.6-5.8c-1.4-3.1-3.1-5.8-5.5-8.4l-0.9-1.1l-11.5-9.5c-0.9-0.6-2-1.1-2.9-1.1l-2.6-0.9c-0.6-0.6-1.4-0.9-2-0.6
			l-2.6-1.1c-0.2,0-0.6,0-0.9-0.2l-0.9-0.6l-6.9-1.8L112,66.6l-1.8,0.2h-2l-10.8,1.8l-2.6,1.1l-2.9,0.6l-6.4,3.3
			c-0.6,0.9-2,1.5-3.3,2.2l-2.6,1.4c-0.6,0.5-1.4,0.9-2.4,0.9l-1.4,1.1L75.1,81c-0.3,0.5-0.8,0.9-1.4,1.1l-1.5,0.5l-1.1,1.1l0.5,1.4
			c0,0.5,0,0.9-0.2,1.4l-1.5-0.2v1.1c-0.6,1.8-1.5,3.5-2.6,4.9c-1.4,1.5-2.2,3.1-2.6,4.9c0,1.1-0.5,2.4-1.1,3.5c0,0.9,0,1.8-0.2,2.6
			l-0.9,1.3l-0.2,0.2v0.5l-0.2,0.2v1.8l-0.2,0.5v0.9l-0.2,0.9v0.2l0.2,4.2l-0.2,0.6l0.5,4.6l-0.2,0.6l-0.2,2v0.9l0.5,2v0.6l0.2,1.5
			l2.6,7.9c0.6,2.4,1.8,4.9,3.1,7.1l0.6,1.4l1.5,2.4v0.2l7.9,9.1c2.9,2.9,6.2,5.1,9.7,6.9c1.4,0.2,2.9,0.9,4.4,2
			c1.4,0.6,3.1,1.1,4.6,1.5l3.5,1.5c-0.2,1.8-1.4,3.5-2.6,5.1l-4,4.4c-1.4,1.5-3.1,2.6-4.9,3.1l-5.5,1.1c-1.4,0.9-2.4,1.4-3.3,1.5
			l-11-1.1c-0.6,0.2-1.1,0.5-1.1,1.1l-0.9,1.1c-1.8-1.8-4-2.2-6.4-1.8l-7.1-0.6l-1.8-5.9v-0.2l-0.2-0.5l0.2-0.5v0.9
			c0-0.9,0.2-1.5,1.1-2.2c0.4-0.6,1.1-1.5,1.4-2.4l-1.8-8.8l-0.2-0.5l-0.5-1.8l0.5,0.2h0.2c0.2-0.6,0.5-1.5,0.5-2.2v-2.9l-0.2-0.5
			l-0.5-0.2v0.2c0,0.2,0,0.6-0.2,0.9l-0.5-1.4l-0.5-1.8l0.5-3.3v-6.2l0.6,6.6v-7.1l-0.6-2.6l0.2-34.4c0-1.1,0-2.2-0.6-3.1l0.6-6.2
			L51,89.1c0.5-0.9,0.6-1.8,0.6-2.9c0-0.9-0.2-2-0.6-2.6c0.6-1.4,0.9-2.6,0.5-4c-0.5-1.4-0.2-2.4,0.5-3.8c-0.5-3.1-0.5-6.2-0.2-9.5
			l0.5-9.3l0.6-2l0.4-3.5l1.1-3.3l0.9-1.5l1.4-1.4c0.9-1.5,2-2.4,3.5-2.6l3.3-1.5h2.4l0.5-0.2h0.9l1.4-0.5h0.9
			c0.6,0.2,1.4,0,1.8-0.5l-0.6-0.2l0.5-1.5l-0.2-1.5l-6.2-0.2l-13.9,1.1h-2.9l-2,0.2L25.8,36.6L25.8,36.6z M128.3,78.3l2,1.4
			l5.8,4.6l2.9,3.3l0.5,0.2c1.1,1.4,1.8,2.6,2.4,4.2c0.9,1.4,1.8,3.1,2.4,4.9l2.4,5.1l1.4,4.9c0.9,1.5,1.1,3.3,0.9,5.3
			c0.6,0.9,0.9,2,0.9,3.3c-0.2,1.4-0.2,2.4,0.2,3.5c0.5,0.5,0.5,1.1,0.5,1.5l-0.5,1.8c-0.2,0.6-0.2,1.4,0.2,2c0.2,0.4,0,1.1,0,1.5
			l-0.2,1.8c-0.6,0.6-0.9,1.5-0.6,2.2c0.5,0.9,0.5,1.8,0.5,2.6l-0.5,1.8c0,0.5-0.2,1.1-0.9,1.4l-0.9,4.2l-1.4,1.5
			c-0.5,0.6-0.7,1.4-0.6,2.2c-0.9,2-2.2,4-3.8,5.8c-1.5,2-3.3,3.3-5.3,4.6c-1.8,1.5-3.5,2.9-5.3,3.5l-6.2,1.8
			c-0.4,0.5-1.1,0.6-2,0.6l-6.9,0.2l-4.4-0.5l-2.6-0.6l-2.6,0.2l-2.6-0.6l-0.6-0.6l-1.1-0.2l-2-2.2c-0.9-0.6-1.5-1.1-2.6-1.4
			l-0.9-1.4l-1.4-0.2l-1.3-0.2c-0.6-0.5-0.9-1.4-0.9-2.2c0.2-0.6-0.5-1.4-1.4-1.5l-2.9-3.5l-6.2-10.6l0.2-0.5V133l-0.2-0.9l-1.5-2.4
			l-0.2-0.6l0.2-0.6l0.2-0.5v-0.2c0-0.6-0.2-1.4-0.5-1.8c-0.5-0.6-0.6-1.1-0.5-1.8v-0.2l-0.2-0.2l-1.1-3.5c-0.2-0.6,0-1.4,0.5-2.2
			c-0.2-0.9-0.5-2-0.9-2.9c-0.6-1.1-0.6-2-0.2-3.1c0.6-1.4,0.6-2.6,0-3.8l0.2-2c0.2-0.6,0.2-1.1,0.2-1.8l1.1-2.2
			c0.2-0.9,0.2-1.5,0.2-2.6c0.6-1.1,1.1-2.2,0.6-3.5c0.6-0.6,1.1-1.5,1.4-2.4c0.2-1.1,0.9-2,1.5-2.6c0-0.5,0-1.1,0.5-1.5l0.6-0.6
			l1.4-1.8l0.2-0.2l0.5-1.1l1.8-2.2l1.5-0.4v-0.2l0.4-1.4l0.6-0.5l2.2-0.9l2.2-1.8c1.5-0.9,2.9-1.4,4.4-1.8l1.4-0.6
			c0.4,0,0.9-0.2,1.5-0.5h0.5l1.4-0.2l1.4-0.5h0.5l5.8-0.6h2l6.9,1.4L128.3,78.3L128.3,78.3z M34.2,80.1l0.5-4.9l0.2,6.6L34.2,80.1z
			 M51.2,141.1l-0.6-2.4l0.2-4.4L51.2,141.1z M472.5,114.1l-1.4,0.2l-6.9,0.2h-0.4h0.2c2,0.2,4,0.9,5.6,2.1c1.3,0.8,2.1,3.3,2.5,7.3
			c0.2,4,0.2,8.6,0,13.8l-1.3,14.9v2.3l-0.4,0.6v1.1c-0.2,0.2-0.4,0.6-0.2,1.1c0.4,0.4,0.4,1,0.2,1.4c-0.6,0.6-0.6,1.1-0.2,1.7
			c0.4,0.4,0.6,0.8,0.8,1.7c-0.4,0.8-0.4,1.9-0.2,2.9c0.4,0.8,0.4,1.7,0.2,2.7l-0.8,1.7c0.4,0.8,0.4,1.9,0,2.9l-0.8,2.9l0.8,1.9
			l1.3,1.7l0.2,1.4c0,0.4,0,0.8-0.4,1.4c0.6,0.8,0.8,1.9,0.6,2.7l-0.4,2.9l-3.1-0.4l-0.4,1.1l-0.2,1.3l-0.8,1.1l-1.3,0.6l-3.8,1.1
			l-1.3-0.2c-0.2,0.4-0.4,0.4-0.8,0.4l-1.1,1.3v1.1c0.2,0.2,0.4,0.4,0.4,0.8c0.2,0.2,0.4,0.2,0.6,0.2l7.1-0.2c1.4,0.2,2.8,0.2,4.2,0
			l3.1-0.2l1.1,0.2l2.3-0.4h0.6l1.7,0.4l4.6-0.4l9.8,0.4l0.8,0.2h0.2l0.8-0.2c0.6-0.2,1.1-0.4,0.8-1.1c-0.2-0.6,0-1.1,0.4-1.7
			c-0.6-0.4-1.1-0.4-1.7-0.4h-1.4l-4.2-1.4c-1.3-0.6-2.3-1.7-2.9-2.9l-1.3-4.4c-0.4-3.1-0.6-6.5-0.4-9.8v-10l-0.2-1.3
			c0.4-1.3,0.4-2.7,0.4-4.2v-4.4l-0.2-1.7l0.4-21.3l0.6-2.5v-0.6l0.8-3.3c0.2-1.4,0.8-2.9,1.9-4l0.6-1.3l0.2-0.4l0.8-0.4l4.4-1.1
			h0.2l1.3-0.2l0.2-0.4l0.2-0.4l0.4-2.1l-23.4,0.2L472.5,114.1L472.5,114.1z"/>
		<path class="st4" d="M466.1,121.1c0.2,0.8,0.4,1.4,1.1,2.1l1.4,2.1v1.4l1.3,2.7v0.2l-0.2,1.3l0.2,0.2c0.4,0.6,0.8,1.3,0.6,2.1
			l-0.2,2.3l0.2,2.3v1.9l0.4,1.9l-0.4,4.4l0.6,1.1l0.2-10c0-5-0.2-9-0.8-12.1c-0.4-3.3-1.3-5.2-2.5-6.1l-4.8-3.1
			c-1.3-0.8-2.5-1.3-3.8-1.1l-0.6,1.1v1.3l0.4,0.2l1.4,0.4c0.6,0,1.3,0.2,1.9,0.8c0.6,0,1.4,0.2,1.9,0.8L466.1,121.1z"/>
		<path class="st4" d="M459.6,114.1l-0.2,0.4c0.8,0,1.7-0.2,2.7-0.2L459.6,114.1z M470.9,151.4v1.1v-1.7V151.4L470.9,151.4z
			 M427.4,90.9l-1.9-0.4l-5.2-1.1c-0.6-0.4-1.4-0.6-2.3-0.6l-2.7,0.2c-0.4-0.2-0.8-0.6-1.4-0.6s-1.1,0.4-1.4,0.6l-9.8-0.6l-10.8,0.6
			l-4.6-0.2l-18.8,1.3l-3.3,0.6c-1.3-0.2-2.3,0.2-3.3,0.8l-0.2,0.6v1.1l0.8,1.4l3.8,0.4l2.3,0.6c1.3,0.2,2.5,0.8,3.8,1.9l1.7,1.9
			l0.4,1.3l0.2,0.2v0.2l0.2,0.2l0.6,1.4v-0.3l0.2,1.3l0.2,3.6c-0.2,1.3,0,2.3,0.6,3.3l-0.2,1.1l0.2,1.4c0.2,0.4,0.4,0.8,0.4,1.4
			l-0.2,0.8v0.2l-0.2,0.8v4.8l-0.4,1.1v0.2l0.4,1.4v4.8l0.2,4.8l-0.4,5.8l0.2,2.9c0.2,2.9,0.4,6.1,0,9l0.2,29.7l-0.2,2.7l-0.8,6.9
			l-0.8,2.3l-1.3,2.5l-2.5,2.7c-0.6,1.1-1.7,1.7-2.9,1.9c-1.9,1.3-3.8,1.7-5.8,1.7c-0.8,0.2-1.1,0.6-1.3,1.3v2.3l0.4,0.2l1.3,0.4
			l1.7-0.4h9.2l0.4-0.2h0.6l2.1-0.4h0.4l1.7-0.2h7.1v0.2l10.8,0.4l0.4,0.2l7.5,0.6l1.3-0.2h0.4l0.6-0.6l0.4-2.7l-0.4-0.4h-0.6v-0.2
			l-1.3-0.2l-1.1-0.2l-3.1-0.8l-9.2-0.6l0.2-0.6h0.2l0.8-0.6l0.2-0.2l0.8-0.2l1.3-0.8v-1.3l-0.6-2.3V192l-0.4-1.9l-1.1-2.5
			c0.4-1.1,0.4-2.1,0.4-3.3v-3.3c0.2-1.1,0-1.7-0.4-2.5c-0.2-2.1-0.2-4.2,0-6.3c0.4-1.9,0.4-4,0-6.1l0.4-2.1v-0.2l-0.4-2.3l0.4-0.6
			l1.3,0.2l4.8-0.2l1.3,0.2h0.4l0.4-0.2h2.3l11.9,0.2h0.4l0.6,0.2h0.2l0.2,0.2l1.1,1.1c0.8,0.2,1.1,0.6,1.3,1.3l0.2,1.7
			c0,0.4,0.4,0.8,1.1,1.3c-0.2,0.8-0.2,1.7,0.2,2.7l0.8,1.9l0.2,0.6l1.1,0.8h1.4l5-1.3h2.1c0.8,0.2,1.4,0.2,2.3,0h0.4l1.4,0.8
			l0.4,0.4c0.2,0.6,0.4,1.1,0.2,1.7v-0.2l-0.2,0.8v0.4l-0.2,0.2h-0.8l-1.1-1.3l-0.6,0.4l-0.4,0.8l0.8,0.6l0.6,0.2h0.2
			c0.4,0.2,0.4,0.4,0.4,1.1l-0.2,0.8v0.2l-0.2,0.4h-0.7l-0.4-0.2l-0.4-1.1l-0.6-1.1l-0.4-0.4l-0.8-0.6l-0.6-0.6l-1.3,1.1l-1.3,0.4
			h-0.2l-0.8-1.1c-0.4-0.4-0.8-0.6-1.3-0.2l-0.4,0.6l0.4,1.4v1.4c0.4,1.3,1.1,2.1,1.7,2.5c0.8,0.4,1.1,0.8,1.3,1.4v0.2l0.2,0.6
			l1.3,1.3l1.1,1.1l0.2,0.4l0.2,0.2l-0.2,0.8l-0.2,0.4v0.4h0.2l0.2,0.4l1.3,1.1c0.4,0.2,0.8,0.4,1.3,1.1l0.2,0.4l-0.2,1.7l0.6,1.1
			v0.4l0.6,0.2l0.4,0.4l0.4,1.7l0.6,0.6l0.4,0.4v0.2h0.2v0.2c-0.2,0.6,0.2,1.4,0.8,1.9l1.3,1.3l0.2,0.4l0.2,1.3l0.4,1.1l4.4,6.7
			l1.1,1.7c0.8,0.8,1.7,1.7,2.3,2.7l1.4,1.9l0.4,0.4l0.4,0.6c1.1-0.2,1.7,0.2,2.3,1.1l1.9,2.1l0.2,0.8l0.6,0.4l1.7,0.2h1.4l0.4-0.2
			v-0.2l-1.4-0.6l1.9-0.2l0.8,0.2l0.8,0.4h1.1l1.3-0.2l0.6,0.2l0.2,0.2l0.2,0.4l-0.6,0.4v1.4c0.6,0.6,1.7,1.1,2.7,1.1l3.1,0.2v-0.6
			c-0.2-0.2-0.6-0.2-0.8-0.2l-0.6-1.1L468,223l1.9-0.2c0.2,0.2,0.2,0.4,0.2,0.6l-0.2,0.4l0.2,0.2c1.3,1.4,2.5,2.1,4,1.7l9.8-2.1
			l0.8-0.8l0.2-0.8v-0.4l0.2-1.4c-0.4-0.4-1.1-0.4-1.7-0.4h-1.9l-2.1-1.1l-9.3-5.8l-1.7-1.7c-0.6-0.6-1.3-0.6-2.1-0.2
			c-0.6,0.8-0.8,1.9-0.6,3.1l-2.1-2.3v-1.7c0.2-0.4,0.4-0.7,0.8-0.8l1.3-0.4c-0.4-1.1-1.3-2.3-2.5-3.8l-3.3-3.6
			c0-0.6-0.2-1.4-0.8-1.9l-2.5-3.6c-0.8-0.4-1.1-1.1-0.8-2.1c-1.7-1.8-2.9-4-3.8-6.3l-2.1-3.1c-0.4-1.3-1.1-2.5-2.1-3.3l-2.1-3.6
			c-0.2-0.8-0.6-1.7-1.3-2.5c-0.8-0.6-1.2-1.5-1.3-2.5l-2.3-4c-0.4-1.4-1.3-2.7-2.5-4c-0.4-1.4-1.1-2.9-2.1-4l-3.1-5.2v-0.8l0.6-0.6
			l1.4-1.4c0.4-0.2,1.1-0.6,1.7-0.6l2.9-2.5c1.1-0.8,1.7-2.1,2.1-3.1l2.1-2.3l2.1-2.9l1.3-2.1l3.1-8.3l1.3-7.5V121
			c-0.2-1.3-0.2-2.3-0.6-3.3l-0.6-3.6l-0.2-0.2l-1.1-6.1v-0.2l-0.4-0.2l-0.8,0.2l-0.4-0.2h-0.4l-0.6-0.8h-1.1
			c-0.4,0-0.8,0.2-1.1,0.6l1.1,1.4l-0.4,1.3l-0.6,0.8l-0.6-0.6l-0.4-0.8l-0.4-0.4l-0.4-0.8h-0.6l-2.3,0.2c-0.4,0-0.6,0.2-0.6,0.4
			l0.2,0.2v0.2l-0.2,0.4l-1.4-0.2l-1.3,0.2l-1.1-0.6v-0.2l0.4-1.1l1.4-0.4l0.2-0.4l7.1-3.8l0.6-1.1v-1.3l-0.2-0.2l-5.5-4.6
			c-2.1-1.7-4.2-2.7-6.3-3.3l-1.9-0.8l-1.3-0.2c-0.2-0.2-0.4-0.4-1.1-0.4L427.4,90.9L427.4,90.9z M423.9,102
			c1.3,0.8,2.3,2.1,3.1,3.6c1.9,2.3,3.1,5,4.4,7.5l0.8,4c0.4,1.3,0.6,3.1,0.4,5.6c-0.4,2.1-0.4,3.3,0.2,3.8l1.1,0.8l0.8,0.2
			l-0.6,0.4c-0.4,0-0.6,0.2-0.8,0.4l-0.6,2.9c0,1.1-0.4,1.9-0.6,2.5l0.2,1.4c-0.4,0.6-0.6,1.4-0.6,2.3c0,1.1-0.4,1.7-0.8,2.3
			c-0.6,0.4-0.6,0.8-0.6,1.3c0.2,0.6,0.2,1.1,0,1.4l-1.4,1.4l-4.2,5.5c-1.3,1.3-2.9,1.9-4.8,2.1l-0.6,0.4l-0.8,0.4l-1.1,0.6
			l-1.3,0.2l-2.7,1.3h-6.5l-4.4-0.2c-1.1-0.4-1.9-0.4-2.7,0l-2.9-0.4h-0.2l0.2-0.2l-1.7-0.6c-0.8,0.2-1.3,0-1.3-0.6l-0.6-1.7v-13.8
			c-0.2-0.2-0.2-0.6,0-1.1c0.2-0.4,0.4-0.8,0.4-1.4v-1.4c-0.6-1.3-0.8-2.5-0.6-3.8s0.2-2.5,0.2-3.8l0.6-2.1v-3.6l-0.4-0.4l-0.4-1.9
			V116l0.2-1.1l0.6-1.7l-0.2-0.6v-8c0.6-0.8,0.6-1.9,0.6-2.9c-0.2-1.1-0.2-2.1-0.6-2.9l0.6-1.3l0.6-0.2l2.5-0.8l7.5-0.6l3.6,0.2h0.4
			v0.2h1.7l1.3,0.2l0.2,0.2l0.8,0.2h0.2l4.4,1.1c0.6,0.2,1.1,0.4,1.7,0.8l1.4,0.6l0.2,0.2h0.2L423.9,102L423.9,102z"/>
	</g>
</g>
</svg>
