<?xml version="1.0" encoding="utf-8"?>
<!-- Generator: Adobe Illustrator 25.0.0, SVG Export Plug-In . SVG Version: 6.00 Build 0)  -->
<svg version="1.1" xmlns="http://www.w3.org/2000/svg" xmlns:xlink="http://www.w3.org/1999/xlink" x="0px" y="0px"
	 viewBox="0 0 745.1 231.2" style="enable-background:new 0 0 745.1 231.2;" xml:space="preserve">
<style type="text/css">
	.st0{fill:#FFCB29;stroke:#37474F;stroke-width:2;stroke-miterlimit:10;}
	.st1{fill:#F78F2E;stroke:#37474F;stroke-miterlimit:10;}
	.st2{fill-rule:evenodd;clip-rule:evenodd;fill:#FFCB29;stroke:#37474F;stroke-miterlimit:10;}
	.st3{fill-rule:evenodd;clip-rule:evenodd;fill:#FFCB29;stroke:#37474F;stroke-width:2;stroke-miterlimit:10;}
</style>
<g id="Layer_1">
	<g id="Layer_8">
		<g>
			<path class="st0" d="M134.7,111.3l-3.2,32.9l-15.7,8.4L104.6,141l0.1,31.2l-5.5-8.4l-0.6-1.2l0.9,38l-4.7-7.3l-3.2,35l-10.5-60.2
				l5.2,3.5l-5.5-36.1l7.3,3.2L82,87.5h22.4v7.9l14-5.8L134.7,111.3z M117.5,139.8l-1.7-42.7l-11.4,4.7l0.1,36.5l10.1,5.2
				L117.5,139.8z"/>
			<path class="st0" d="M177.1,175.1c0.5,2.4-2.2,5.1-8,8.2c-4.9,2.5-8.8,4-11.9,4.4l-2.6-0.4c-9.8-7.6-15-12.4-15.6-14.6
				c-0.2-4.6,0.2-15.8,1.3-33.8c6.7-4.9,13.6-8.5,20.8-11.1l10.3,7.1l1.2,1.9c2.1,2,3.4,6.4,3.8,13.1
				C176.6,153.3,176.8,161.7,177.1,175.1z M163.1,178.6c0-25.3-0.9-40.4-2.8-45l-4.7,2.8c-1.7,1.3-2.7,2.6-3.2,3.9l0.7,38.3
				c0.7,1.9,2,3.4,3.9,4.2C160.1,181.9,162.1,180.5,163.1,178.6z"/>
			<path class="st0" d="M207.6,125.8h-8.2l-1.3,61.9c-0.2,0.4-0.3,0.8-0.3,1.2c0,1.7,2.3,4.6,7,8.6l-11.9-4.4
				c-4.7-1.7-7.1-3.8-7.4-6.3l0.7-61.6h-12.2c8.4-4.7,16.7-12.7,25.1-24.2l-0.3,18.5h7.6L207.6,125.8z"/>
			<path class="st0" d="M237,125.8h-8.2l-1.3,61.9c-0.2,0.4-0.3,0.8-0.3,1.2c0,1.7,2.3,4.6,7,8.6l-11.9-4.4
				c-4.7-1.7-7.1-3.8-7.4-6.3l0.7-61.6h-12.2c8.4-4.7,16.7-12.7,25.1-24.2l-0.3,18.5h7.6L237,125.8z"/>
			<path class="st0" d="M276.2,145.8l-3.6,7.6c-3.8-2.2-8.1-3.4-13-3.4c-2.9,0-4.7,0.4-5.4,1.2l1,23.9c0.8,1.7,2.4,3.2,5,4.5
				c1.9-2.5,3.3-5.7,3.9-9.5c0.1-0.4,0.3-2.9,0.7-7.4l6.4,8.2l-8.9,12.7l-7.4,0.1l-14.7-12.8c-0.8-3.7-1.2-7.9-1.2-12.7
				c0-6.8,0.7-13.9,2-21.4l16.3-12.8c1.2-0.4,2.1-0.3,2.9,0.1l11.8,7.7L276.2,145.8z M265.7,146.7l-7.4-16.8
				c-0.7-0.9-1.1-1.3-1.3-1.3c-0.4,0-0.8,0.3-1.2,1l-1.7,16.6C259.5,145.9,263.4,146.1,265.7,146.7z"/>
			<path class="st0" d="M277.8,117.1c5-3.4,10.6-7.6,16.9-12.7v13.1c5-4.4,8.4-6.6,9.9-6.6c0.5,0,0.8,0.1,1,0.4l6.8,11.9
				c0.8,0.9,1.2,1.7,1.2,2.6c0,1-0.5,1.6-1.5,1.9l-13.4,7.9v-0.6c2-1.9,3.2-3.7,3.5-5.4c-0.4-1.5-1.1-3.3-2-5.4
				c-1.3-2.7-2.2-4-2.9-3.8c-0.6,0.1-1.3,0.7-2.2,1.9c-0.4,14.5-0.1,28.7,0.7,42.8c0.2,3.1,1.7,5,4.5,5.7c-1.4,0-3.4,0-6.2,0
				s-4.8,0-6.2,0c-0.9,0-2.2,0-4,0c-1.8,0-3.1,0-4,0c2.5-1.1,4-1.9,4.5-2.6c0.4-0.4,0.6-1.4,0.6-2.9v-48.7L277.8,117.1z"/>
		</g>
	</g>
	<g id="Layer_7">
		<path class="st0" d="M17.9,49.5l-5.2,2c-1.4,0.7-1.9,1.6-1.7,2.8c0.1,3.9,3.3,6.8,9.6,8.6l-0.5-45.5c-0.4-3.4-2.3-5.8-5.7-7.3
			h27.2c-2.2,1.7-3.4,3.8-3.4,6.1L39,63.2c4-1.4,8.8-3.7,14.4-7.1V15.1c0-2.4-0.2-4-0.6-4.8C52.1,8.9,50.2,7.4,47,6l28.1-0.4
			c-3.6,3.1-5.5,5.8-5.8,8l0.6,32.8c4.3-2.2,7.4-3.4,9.5-3.4c2,0,4.6,0.6,7.7,1.7c-3.4,2.6-5.1,6-5,10.1c-2-2.7-4.1-4.1-6.3-4.1
			c-1.6,0-3.5,0.7-5.9,2l1,52.6c0,2.5,2.2,4.7,6.6,6.4l-30.7-0.4c3.7-1.6,5.9-3.9,6.7-7V63.2c-5.4,3-10.2,5.1-14.4,6.1v29
			c0.5,2.9,2.8,5.2,6.8,6.8l-33.4-0.4c5.3-1.7,8-4.6,8-8.7V67.9c-9.4-2.2-14-7.5-13.8-15.7c3.4-1.8,6.3-2.8,8.7-2.8
			C16.2,49.4,17,49.4,17.9,49.5z"/>
		<path class="st0" d="M88.6,41.4l-4.4-5.8c-1.6-2-2.3-4.2-2.3-6.6c0-0.9,0.2-1.6,0.7-2.2c1-1.3,5.7-4.4,14.3-9.5
			c3.2,2.3,6.6,4.9,10.2,7.7c5.1,4.1,7.5,7.4,7,9.9l-0.6,33.2l5.4,0.3l-10.7,11.8c-2.5,1.7-4.2,2.6-5.3,2.6c-1,0-1.3-0.6-1-1.7v-5.2
			l-9.2,5.8c-4.2,0.8-8.1-7.7-11.8-25.3c1.7-3.3,4.7-5.9,9-7.9l9.6-4.4c-3.3,3.6-4.9,6.4-4.8,8.4c-0.2,1.4-0.3,2.7-0.3,4.1
			c0,6.5,1.4,11.7,4.2,15.4c1.6,0.2,2.6-0.7,3.2-2.6V26.8L99.6,28c-0.5,0.3-1.8,1.1-3.9,2.5c-3.6,2.2-5.4,4.2-5.4,6l1.3,4.8
			L88.6,41.4z"/>
		<path class="st0" d="M119.6,20.8c5-3.4,10.6-7.6,16.9-12.7v13.1c5-4.4,8.4-6.6,9.9-6.6c0.5,0,0.8,0.1,1,0.4l6.8,11.9
			c0.8,0.9,1.2,1.7,1.2,2.6c0,1-0.5,1.6-1.5,1.9l-13.4,7.9v-0.6c2-1.9,3.2-3.7,3.5-5.4c-0.4-1.5-1.1-3.3-2-5.4
			c-1.3-2.7-2.2-4-2.9-3.8c-0.6,0.1-1.3,0.7-2.2,1.9c-0.4,14.5-0.1,28.7,0.7,42.8c0.2,3.1,1.7,5,4.5,5.7c-1.4,0-3.4,0-6.2,0
			c-2.8,0-4.8,0-6.2,0c-0.9,0-2.2,0-4,0c-1.8,0-3.1,0-4,0c2.5-1.1,4-1.9,4.5-2.6c0.4-0.4,0.6-1.4,0.6-2.9V20.5L119.6,20.8z"/>
		<path class="st0" d="M153.4,20.8c5-3.4,10.6-7.6,16.9-12.7v13.1c5-4.4,8.4-6.6,9.9-6.6c0.5,0,0.8,0.1,1,0.4l6.8,11.9
			c0.8,0.9,1.2,1.7,1.2,2.6c0,1-0.5,1.6-1.5,1.9l-13.4,7.9v-0.6c2-1.9,3.2-3.7,3.5-5.4c-0.4-1.5-1.1-3.3-2-5.4
			c-1.3-2.7-2.2-4-2.9-3.8c-0.6,0.1-1.3,0.7-2.2,1.9c-0.4,14.5-0.1,28.7,0.7,42.8c0.2,3.1,1.7,5,4.5,5.7c-1.4,0-3.4,0-6.2,0
			c-2.8,0-4.8,0-6.2,0c-0.9,0-2.2,0-4,0c-1.8,0-3.1,0-4,0c2.5-1.1,4-1.9,4.5-2.6c0.4-0.4,0.6-1.4,0.6-2.9V20.5L153.4,20.8z"/>
		<path class="st0" d="M188.6,38.2h21.4c-2.7,0.6-4.1,1.8-4.2,3.8l1.7,10.2c0.8,4.6,1.6,6.9,2.5,7c0.6-0.1,4.4-7.5,11.4-22.2
			c-0.1-1.1-0.3-1.7-0.7-1.9l-3.6-1.7l17.2,0.3c-4.9,9-10.9,20.1-18.2,33.1c-11.2,20.1-17.7,30.1-19.5,30.1c-0.1,0-0.2,0-0.3-0.1
			c-12.1-1.1-19.1-1.9-20.8-2.6c-4.4-0.6-9.5-2.6-15.4-6c-1-0.6-1.5-1.2-1.5-1.7c0-0.7,0.6-1.7,1.7-3.1c2.4-2.8,3.7-4.4,3.9-4.7
			c4.1-0.2,7.4-0.3,9.9-0.3c2.4,0,4.1,0.1,5.1,0.3c-0.1,0.7-0.4,1.1-1,1.3c-1.2,0.6-4.2,1.4-9.2,2.6l-2.6,3.3
			c3.4,1.7,12.1,2.5,26.2,2.4l7.3-12.8c0.7-1.7,1-3.5,1-5.4c0-4.6-2.8-14.4-8.4-29.3C191.6,39.9,190.4,39,188.6,38.2z"/>
	</g>
</g>
<g id="Layer_9">
	<g>
		<path class="st1" d="M309.7,69.5l54.6-113.9l12,12l-49,97.1l0.2,0.2L425,16.3l11.7,11.7L322.4,82.2L309.7,69.5z"/>
		<path class="st1" d="M476.3,90.6c-1-6.5-4.4-12.6-10.3-18.4c-2.4-2.4-4.9-4.4-7.7-6.3c-2.8-1.8-5.6-3-8.4-3.7
			c-2.9-0.7-5.8-0.6-8.7,0.2c-2.9,0.8-5.7,2.6-8.5,5.3c-2.6,2.6-3.9,5.5-4,8.6c-0.1,3.1,0.6,6.5,2.2,10.1c1.5,3.6,3.6,7.3,6.1,11.2
			c2.6,3.9,5.1,7.9,7.7,12c2.6,4.1,4.9,8.3,7.1,12.6c2.2,4.3,3.6,8.6,4.4,13c0.7,4.4,0.5,8.7-0.7,13c-1.2,4.3-3.9,8.5-8.1,12.7
			c-4.5,4.5-9.3,7.3-14.5,8.5c-5.2,1.2-10.4,1.2-15.5,0.1c-5.2-1.1-10.1-3.2-14.9-6.2c-4.8-3-9.1-6.4-13-10.3
			c-4.7-4.7-8.6-9.8-11.6-15.2c-3-5.4-4.9-10.9-5.7-16.5c-0.8-5.6-0.2-11.2,1.7-16.8c1.9-5.6,5.4-10.9,10.5-16l10.6,10.6
			c-3.5,3.5-5.9,7.3-7.1,11.2c-1.2,3.9-1.5,7.8-0.9,11.7c0.6,3.9,2,7.7,4.2,11.5c2.2,3.8,4.9,7.2,8,10.4c2.5,2.5,5.3,4.8,8.3,6.9
			c3,2.1,6.1,3.6,9.3,4.5c3.2,0.9,6.4,1,9.6,0.3c3.2-0.7,6.4-2.6,9.4-5.7c2.9-2.9,4.5-6,4.8-9.4c0.3-3.3-0.3-6.9-1.7-10.6
			c-1.4-3.7-3.4-7.5-5.9-11.4c-2.5-3.9-5.1-7.9-7.7-12c-2.6-4.1-5-8.2-7.3-12.4c-2.2-4.2-3.8-8.4-4.8-12.6
			c-0.9-4.2-0.9-8.3,0.1-12.4c1-4.1,3.5-8.1,7.3-11.9c4.2-4.2,8.8-7.1,13.6-8.4c4.8-1.4,9.7-1.6,14.6-0.8c4.9,0.9,9.6,2.6,14.3,5.3
			c4.6,2.7,8.9,5.9,12.7,9.8c4.3,4.3,7.8,8.8,10.5,13.6c2.7,4.7,4.3,9.6,4.9,14.6c0.6,5,0,10-1.7,14.9c-1.7,5-4.8,9.8-9.3,14.6
			l-10.6-10.6C475.1,103.6,477.3,97,476.3,90.6z"/>
	</g>
</g>
<g id="Layer_2">
	<g id="Layer_3">
		<path class="st2" d="M677.9,114.4l-5.7,0.4l-0.7,0.4l-11.5-0.5l-1.9,0.2l-1.9-0.2l-0.4,0.4c0,0.2-0.2,0.4-0.4,0.7l-0.7,5.2
			c0,0.4-0.2,0.7-0.4,1.1c-0.2,0.5,0,0.9,0.2,1.2c0.9-0.2,1.4-0.4,1.4-1.2l0.7-1.9c0.4-1.1,1.1-1.8,1.8-1.9l5.4-0.2l0.2,2.1
			c0,0.7,0,1.2,0.4,1.9l0.7,1.8c0,0-0.2,0.2-0.4,0.2h-0.2l-0.5,14.8c-0.4,0.7-0.4,1.6-0.4,2.5l-1.9,1.8l-1.2,0.2l-0.9,0.7
			c0.2,0.5,0.5,0.7,1.1,0.5l12.2-0.2l0.5-0.3c0.3-0.4,0.3-0.5,0-0.9l-3-0.3c-0.4-0.3-0.4-0.5-0.4-1.2l-0.5-1.9l-0.3-2.3l0.2-2.6
			l-0.5-3l0.5-5.4l-0.5-5.4c0.4-0.7,0.5-1.4,0.4-2.3l0.9-0.7l5-0.5c0.7,0.2,1.2,1.1,1.4,2.6l0.2,1.4c-0.2,0.4,0,0.9,0.2,1.2
			c0.5,0.2,0.7,0,1.1-0.4v-3.7c-0.2-1.4,0-2.6,0.4-3.8L677.9,114.4L677.9,114.4z"/>
		<path class="st2" d="M693.4,114.8l-0.9-0.2l-10.8,0.2c-0.3,0.2-0.5,0.5-0.5,1.1c0.5,0.4,1.1,0.5,1.6,0.5l0.9,0.9
			c0.7,0.7,1.1,1.4,1.1,2.5v2.6l0.2,1.8l-0.2,1.9l0.5,1.4l-0.3,1.6l-0.2,4.7c-0.3,0.5-0.2,0.9,0.2,1.4c0.3,0.4,0.5,1.1,0.3,1.8
			c-0.3,0.7-0.3,1.4-0.5,2.3l-0.5,2.5l-1.2,1.1c-0.7,0.2-1.1,0.3-1.6,0.5c-0.4,0.2-0.4,0.3-0.4,0.9h4.7l0.2-0.2l6.8,0.3l0.7-0.3
			l0.5-0.5l-1.6-0.4c-1.2-0.7-1.8-1.4-2.1-2.6c-0.2-1.1-0.3-2.2-0.3-3.3l-0.2-1.6l0.2-1.6l-0.4-1.2v-0.9c0-0.4,0-0.7,0.2-0.9
			l0.7-0.7l0.9-0.2h9.6c1.4-0.2,2.6-0.5,3.8-1.2l0.2,1.9c-0.2,0.4-0.2,0.9,0,1.6l0.2,1.8c0.3,2.2,0.2,4.5-0.5,6.6
			c0,0.9-0.4,1.4-1.2,1.6c-0.7,0-1.2,0.3-1.8,0.9l0.2,0.7h11.3l0.5-0.7c-0.3-0.2-0.7-0.2-1.2-0.3l-1.2-0.9c-0.7-1.6-1.1-3.3-1.2-5
			v-5.5c-0.2-0.5-0.2-1.1-0.2-1.4l0.5-3.5v-2.3c-0.5-0.9-0.5-1.8-0.3-2.6c0.3-0.9,0.5-1.9,0.3-2.8l1.1-1.9c0.5-0.7,1.2-0.9,1.9-1.1
			c0.2-0.2,0.3-0.4,0.5-0.2l0.2-0.5l-1.6-0.5l-4.7,0.4l-4.9-0.2c-0.7-0.2-1.2,0.2-1.6,0.7l0.7,0.5l1.1,0.4c0.5,0.4,1.1,0.7,1.2,1.4
			l0.5,1.6l0.3,2.8c0,0.9,0.2,1.9,0.3,3.1c0.4,1.2,0.2,2.1-0.5,3l-3.5-0.9h-10.3l-1.2-0.4c-0.2-1.6-0.2-3.2,0-4.9
			c0-1.6,0.2-3.1,0.7-4.7c0.3-0.5,1.1-1.1,1.8-1.1l1.6-0.7L693.4,114.8L693.4,114.8z"/>
		<path class="st2" d="M719.8,114.6l-1.9,0.2c-0.9-0.2-1.2,0-1.4,0.9l2.1,1.1c0.5,0.4,0.7,0.9,0.9,1.6v2.1c-0.2,0.2,0,0.4,0,0.5
			l0.2,1.1c0.5,0.2,0.7,0.7,0.5,1.2l-0.5,1.4c0,0.4,0.2,0.9,0.7,1.2l-0.4,1.2l0.4,1.1c-0.2,0.5-0.4,1.4-0.5,2.6v3.7
			c-0.2,1.2,0,2.1,0,2.6c-0.2,0.7-0.2,1.8-0.2,2.8c0.2,0.9-0.2,1.8-1.1,2.3l-1.2,0.9c-0.5,0-0.9,0.4-1.1,0.9l1.1,0.3l1.2-0.2l19,0.3
			l0.2-0.2c0.9-0.3,1.4-0.9,1.6-1.6l0.7-2.3c0.4-0.7,0.5-1.2,0.5-1.9c-0.2-0.7-0.2-1.2,0-1.8c0-0.3-0.2-0.5-0.5-0.3h-0.7
			c-0.2,0.2-0.5,0.5-0.5,0.7l-0.2,0.9l-1.6,1.8l-1.8,1.6l-2.3,0.2h-4.3c-1.4-0.2-2.6-0.7-3.7-1.9c-0.2-0.3-0.3-0.9-0.2-1.4v-1.2
			l0.4-1.8l-0.2-1.8c-0.3-0.5-0.3-0.9-0.2-1.2l0.5-1.2c0,0,0-0.2,0.3-0.2l0.3-0.2l6.8,0.2l1.2,0.4c0.5,0,1.2,0.3,1.6,0.7l1.1,1.6
			c0.3,0,0.7-0.2,1.1-0.5l0.3-7.3l-0.2-0.5c-0.7-0.2-1.1,0-1.2,0.5l-0.5,1.2l-2.3,1.1l-8.7-0.2c-0.4-0.7-0.5-1.2-0.4-2.1
			c0.4-0.6,0.4-1.4,0-2.1c0.5-0.7,0.7-1.4,0.5-2.5l-0.5-2.6c0.5-0.7,1.1-0.9,1.8-0.7l5.9,0.4l0.7-0.4h0.7l1.4,0.5
			c0.9,0.2,1.6,0.7,1.6,1.6c0.2,0.9,0.3,1.6,0.9,2.3l0.9-0.4l0.3-4.9l0.4-1.2c0.2-0.4,0-0.7-0.5-0.9h-7.1c-1.9,0.4-3.8,0.2-5.9,0
			C723.8,114.3,721.8,114.3,719.8,114.6L719.8,114.6z"/>
		<path class="st2" d="M619.2,127.4l-0.5-3c-0.5-1.8-1.4-3.3-2.5-4.9c-0.5-1.1-1.4-1.8-2.1-2.3c-1-0.5-1.8-1.2-2.6-1.9l-2.1-0.9
			l-1.8-0.2c-0.7-0.5-1.4-0.7-2.3-0.7l-2.5,0.2l-1.9-0.2l-2.1,0.2l-3.1,1.1l-1.9,0.4c-0.7,0-1.2,0.2-1.8,0.7l0.7,0.2l1.2-0.5
			l1.4,0.2l-0.4,0.4l-3,1.2c-0.6,0.1-1.2,0.4-1.7,1l-1.6,1.4c-1.1,1.4-1.8,2.8-1.9,4.2l-0.2,2.3l-0.7,1.8v0.9l0.2,0.4l0.5,2.3
			c0.2,0.3,0.2,1.1,0.2,1.8c0.2,0,0.4,0.4,0.2,0.5l0.2,0.7l0.7,1.2c0.3,0.2,0.7,0.7,0.9,1.1l0.4,1.6l0.9,1.4l1.2,1.4l1.6,0.9
			c0.7,0.9,1.6,1.2,2.6,1.4c0.9,0.2,1.9,0.5,2.8,1.2l1.1,0.3h7.1c2.6-0.2,4.9-0.7,6.9-1.8c-0.2-0.4-0.5-0.4-1.1-0.4l-1.2,0.2
			l3.3-1.9l2.6-3l1.2-3c0-0.9,0.2-1.6,0.7-2.3c0.2-0.7,0.4-1.4,0.2-2.5C619.6,129.3,619.6,128.3,619.2,127.4z M612.8,135.9
			c-0.2,0.7-0.4,1.2-0.7,1.8l-1.9,2.5l-1.1,0.7l-2.5,1.1l-4,0.2l-1.2-0.2l-4-1.8l-0.4-0.7l-2.8-2.5c0-0.7-0.2-1.2-0.4-1.8l-0.5-1.6
			l-0.9-1.4l-0.5-1.2l0.4-1.1c0-0.3,0-0.9-0.2-1.1l0.2-2.1c0-0.7,0.2-1.4,0-2.1c0.4-0.4,0.5-0.5,0.5-0.9v-1.1
			c-0.2-0.9,0.2-1.8,0.9-2.3c0.6-0.6,1.4-1.1,1.9-2l3.3-2.1l4.7-0.2l0.4,0.2l3.7,1.2c1.2,0.9,2.2,2,3,3.3l2.1,4
			c0.5,2.1,0.9,4.3,0.7,6.8C613.6,133.3,613.3,134.7,612.8,135.9z"/>
		<path class="st2" d="M623.2,114.6l-1.1-0.4c-0.5,0-0.9,0-1.2,0.5v0.7l0.5,0.4c0.5-0.2,1.1,0.2,1.2,0.7l1.1,1.4l0.4,0.9v0.7
			c0.4,1.1,0.9,2.1,0.9,3.3c0.2,1.1-0.1,2.3-0.9,3.1c0.4,0.7,0.4,1.2,0.4,2.1l-0.2,1.9c0.2,1.4,0.4,2.8,0.2,4.2v4l-0.9,3.1l-0.9,0.9
			l-0.9,0.5l-0.4,0.3l-0.4,0.7l1.6,0.2l1.4-0.2h5.5l4.2,0.2l0.5-0.2l0.4-0.5l-3.1-1.1c-0.7-0.2-1.2-0.7-1.6-1.4l-0.5-2.1l0.2-1.1
			v-0.9c-0.4-0.9-0.4-1.9,0-2.6c0.4-0.9,0.5-1.8,0.4-2.6c0.4-0.5,0.9-0.7,1.4-0.5l1.8-0.2l5.7,0.2c0.9,0.3,1.4,0.9,1.6,1.8l0.4,1.2
			c0,0.3,0.4,0.5,0.9,0.5l0.5-0.5l0.5-6.2l-0.2-2.6c-0.7,0-1.1,0.2-1.2,0.5c-0.2,0.7-0.5,1.2-0.9,1.6l-1.6,0.9h-9.2v-3.5
			c0.5-1.1,0.7-2.1,0.4-3c-0.4-1-0.4-2,0-3c0.4-0.9,0.9-1.2,1.8-1.1l5.4-0.2l3.1,0.4l1.4,1.9l0.5,2.3h0.7l0.5-0.5l0.4-0.7v-3
			c0.2-0.9,0.2-1.9,0-3l-2.3-0.4l-10.5,0.2C628.4,114.8,625.8,114.8,623.2,114.6L623.2,114.6z"/>
	</g>
	<g id="Layer_4">
		<path class="st2" d="M646.6,5.5l-4.2-0.3l-2.8,0.3h-14.1l-1.3,1l1,0.6l0.8,0.6c0.8,0.6,1,1,1,1.8v1.8l0.3,1.6
			c0.6,0.3,0.8,0.8,0.6,1.3l-0.6,1.6l0.8,1.3c-0.6,0.8-0.6,1.3,0,2.1l-0.6,2.6l-0.3,9.1c0,1-0.3,1.8-1,2.6l-1.3,0.6l-1,1l1,0.3
			l20.3,0.3l0.3-0.3c1-0.3,1.6-0.6,1.8-1.6l0.6-2.4l0.6-3.7l-0.6-0.3h-0.6l-0.6,0.8l-0.6,0.8l-1.3,1.8l-1.8,1.3l-2.4,0.6h-4.4
			c-1.6-0.3-2.6-0.8-3.7-1.8c-0.3-0.6-0.6-1-0.3-1.6v-1.6l0.3-1.6v-1.8c-0.6-0.3-0.6-0.8,0-1l0.3-1.3l0.3-0.3h7.3
			c0.3,0.3,0.3,0.3,0.8,0.3l2.1,1l1,1.3l1-0.6l0.6-7.3l-0.6-0.6l-1,0.6l-0.5,1.3c-0.8,0.5-1.6,0.8-2.4,1l-8.9-0.3
			c-0.3-0.6-0.6-1.3-0.3-2.1c0.3-0.6,0.3-1.3,0-2.1l0.6-2.6l-0.6-2.6c0.6-0.6,1-0.6,1.8-0.6l6,0.3l1.3-0.3h0.8l0.8,0.6
			c0.8,0,1.3,0.8,1.6,1.6l0.8,2.1l0.8-0.3l0.6-4.9l0.6-1C647.3,6,647.1,5.8,646.6,5.5z M617.6,9.4l1.3-1.8c0.3-0.6,1-1,1.8-1
			l0.6-0.3V5.7l-3.4-0.6l-2.8,0.3l-4.7-0.3l-1.8,0.8c0.6,0.6,1,0.8,1.8,1l1.3,1.6l0.6,1.6l0.8,5.7c0.3,1.3,0,2.4-0.8,3.1l-3.4-0.8
			h-9.1c-1,0.3-1.8,0-2.6-0.5v-4.9l0.8-4.7l1.8-1l0.8-0.3l0.8-0.6l-0.8-0.8c-0.3,0-0.5,0-0.5-0.3L589,5.8l-0.8,1l1.8,0.6l0.8,0.8
			c0.6,0.8,1,1.8,1,2.6l0.3,4.4l-0.3,1.8c0.6,0.8,0.6,1.8,0.3,2.8l-0.3,4.7c-0.3,0.6-0.3,1,0.3,1.6c0.3,0.3,0.3,0.8,0.3,1.6
			l-0.3,2.6l-0.8,2.4c-0.3,0.8-0.8,1-1.3,1l-1.3,0.6l-0.6,0.8l4.7,0.3l0.3-0.3l6.8,0.3l1.3-0.8l-1.6-0.6c-1.3-0.6-1.8-1.3-2.1-2.6
			l-0.6-3.1l0.3-3.4l-0.6-1.3L597,22l1.3-1l9.9,0.3l3.9-1.3l0.3,1.8l-0.3,1.6l0.3,1.8c0.3,2.1,0.3,4.4-0.6,6.8
			c0,0.8-0.6,1.3-1.3,1.6l-1.6,0.8V35h11.9l0.3-0.8l-1.3-0.6l-1-0.8c-0.8-1.6-1-3.1-1-5.2l-0.3-5.5c-0.3-0.5-0.3-1.1,0-1.6l0.3-3.4
			v-2.1c-0.6-0.8-0.6-1.8-0.3-2.6C617.9,11.4,617.9,10.4,617.6,9.4L617.6,9.4z M579.4,5.5L578.9,6l-11.7-0.8l-2.1,0.3l-1.8-0.3
			L562.8,6l-0.3,0.6l-0.6,5.2l-0.3,1c-0.3,0.6-0.3,1,0,1.3c0.8-0.3,1.3-0.6,1.6-1.3l0.5-1.8c0.6-1.6,1.6-2.4,3.1-2.4h4.2V11
			c0,1.6,0.6,2.6,1.3,3.4l-0.8,0.3L571,27.2c0.3,1,0.3,1.6,0,2.4l-0.3,2.8c-0.6,0.8-1,1.3-1.8,1.6c-1,0-1.8,0.3-2.4,1
			c0.3,0.3,0.6,0.6,1.3,0.6l12.3-0.3l0.6-0.3c0.3-0.3,0.3-0.8-0.3-1l-2.8-0.6l-0.8-2.8l-0.6-2.4c0.3-0.8,0.3-1.8,0-2.8l-0.3-2.8
			c0.3-1.6,0.6-3.4,0.3-5.5l-0.3-5.5c0.3-0.6,0.3-1.3,0.3-2.1l1-0.8l4.9-0.6c0.8,0,1.3,1,1.6,2.6v1.3l0.6,1.3l0.8-0.3l0.3-7.5
			l-0.3-0.3l-4.9,0.3L579.4,5.5L579.4,5.5L579.4,5.5z"/>
	</g>
	<g id="Layer_5">
		<path class="st3" d="M737.8,70.8v-0.4l-0.2-0.7l0.2-1.7l-0.9-3.6c-0.3-1.3-0.6-2.5-0.9-3.8l-1.5-3.8c-0.4-1.3-1.1-2.6-2.1-3.6
			l-2.5-3c-1.5-1.9-3.4-3.3-5.4-4.4c-2.1-1.3-4.2-2.1-6.3-2.9l-8-1.7L698.3,41l-0.4,0.2l-5.1,0.3l-1.1,1c-0.6-0.2-1-0.3-1.5-0.6
			h-1.5l-1.1,0.7l-0.4,1.1c-0.3,0.3-0.4,0.3-0.6,0.2c-0.7-0.9-1.5-1.5-2.3-1.6H681l-0.6,0.2l-0.3,0.2l-0.2,0.3l-0.7,0.2l-0.7-0.7
			h-0.4l-0.6,0.2h-1.3l-1.3,0.2l-0.4,0.3l-0.3,1.1c0,0,0,0.2,0.2,0.3l2.1,0.3h0.2c0.7,0.2,1.3,0.3,2,0.9l1.3,0.7l0.6,1.5
			c0.6,0.7,1,1.5,1.1,2.3l0.2,2.6c0.4,0.6,0.7,1.1,0.7,1.9l-0.2,1.1l-0.2,0.7l-0.2,0.6v1l0.2,0.6l-0.2,0.2v1l0.4,1.1
			c0.2,0.6,0.2,1-0.2,1.5v0.3l-0.2,0.2v1.6l0.2-0.2l0.2,1.6l-0.3,2c0.3,0.4,0.3,1,0.2,1.6l-0.2,1.6l0.3,0.6c0.2,0.6,0.3,1.3,0.2,1.9
			c-0.3,0.6-0.3,1.1-0.3,1.7l0.2,2.6c-0.3,0.6-0.4,1.1-0.3,1.9v1.9c0.3,0.6,0.4,1,0.3,1.6l-0.2,1.3c-0.2,0.3-0.3,0.7-0.2,1.1
			l0.2,2.3l-0.2,2.5c-0.4,0.3-0.6,0.7-0.4,1l0.4,1c0.2,0.3,0.2,0.7,0,1.1c-0.3,0.4-0.3,0.9,0,1.3c0.3,0.4,0.2,0.9-0.2,1.3
			c0,0.7-0.2,1.6-0.6,2.1l-0.7,2.1l-1.6,1.1c-0.3,0.2-0.4,0.2-0.6,0l-1.5-0.3l-1.6-0.9l-1.3-0.3l-3.8-3.8l-3.9-5.7l-5.6-9.9L660,78
			c-0.6-0.9-1-1.7-1-2.7l1.6-1.3l4.2-4.5l1.3-2.1l0.3-0.6l0.3-0.7l0.7-1.7l1-7V57l-0.3-1v-1.3l-1.6-4.3c-0.6-1.5-1.6-2.7-2.9-3.9
			c-1.5-1.3-3-2.3-4.6-3.2l-1.5-0.6h-0.3l-0.6-0.2l-0.3-0.2l-1.3-0.3v-0.2l-1.3-0.2l-0.2-0.2h-0.2l-2.1-0.3c-0.3,0-0.6,0-0.7-0.3
			l-4.3-0.2h-1l-10.5,0.4l-3,0.4l-6.3,0.2l-1.9,0.3c-0.9-0.2-1.5,0.2-1.7,0.7l0.3,1.3l1.6,0.2l1.6,0.6h0.2l0.6,0.2l1.3,1.1l0.3,0.4
			l0.6,1.7l0.2,1.7v0.6l0.3,0.7L629,52l0.4,4.6l-0.3,0.2v0.2l-0.2,0.6l0.2,3.9c0.3,0.4,0.6,0.9,0.6,1.5v0.4l-0.7,2.3
			c-0.3,1-0.3,2,0.2,2.9c0.2,0.4,0.3,0.9,0,1.3l-0.2,1.5l0.2,1v4.6l0.3,1l0.2,0.2l0.7,0.7l-0.9,1.7c-0.4,0.7-0.4,1.5-0.3,2.1v4.2
			l0.3,0.9l-0.3,1.1v0.7l-0.2,1.3v1.9c0,0.7-0.2,1.3-0.3,1.9c0.2,0.7,0.2,1.5,0,2.1l-0.6,2l-1.3,1.6l-1.5,1.3l-1.7,0.3
			c-0.7,0-1.3,0.3-1.7,0.7v0.6l0.2,0.9l1.3,0.3l4.2-0.2l0.9-0.2l7.9-0.3h0.2l1,0.3h0.9l1.9,0.2l3.8,0.2l2.6-0.2l1-0.2h-0.2l0.4-0.7
			v-0.9l-1.1-0.4l-1.7-0.3l-1.3-0.6l-1.7-1l-1.5-1.7l-0.2-1c0.2-0.9,0-1.5-0.2-2.1c-0.4-0.6-0.6-1.3-0.6-2l0.2-0.7l-0.3-0.7
			l-0.2-2.3v-2.6c0.2-1.3,0.2-2.5,0.2-3.6l-0.4-4.2l0.2-0.2l0.4-0.4l0.9-0.3h0.2l0.2,0.2l2,0.3h0.3l3.3-0.4h2.7l0.6,0.4l1.6,3.8
			l3.6,6.8c0.6,1.3,1.3,2.7,2.3,4l2.6,4l3.2,3.4l1.6,1.5l1.7,1h0.2l0.2,0.2l1.5,0.4l1.5,0.7h1.5l1,0.3l0.4-0.2
			c0.2,0.2,0.5,0.3,0.7,0.3h0.2l0.9-0.3h5.1l5.1,0.3h0.2l0.7-0.3h0.9l0.6,0.2h0.4l0.9-0.2h5.3l1,0.3h11.2l0.6-0.2h0.2l2.6-0.2
			l3.3-0.4l0.4-0.2l1.6-0.3h0.4l1-0.2h0.3l0.2-0.3h0.7v-0.2c0.7,0,1.5-0.2,2.1-0.6l1-0.4l1.1-0.3l1.5-1l0.3-0.2l1.9-1.1
			c1.5-0.6,2.6-1.6,3.6-2.7l3.3-3.8l3-5.6l2.1-6.3v-0.3l0.6-2.6v-0.4l0.3-2.3l0.2-2.5C737.9,72.2,737.9,71.5,737.8,70.8z
			 M657.4,60.6l-0.3,2.7c-0.4,0.7-0.6,1.5-0.6,2.3c0,0.9-0.3,1.7-0.7,2.3v0.6l-1.9,2.3c-0.6,0.7-1.1,1.1-2,1.5l-2.6,1.5l-3,0.6
			l-1.6-0.3l-1.6,0.2c-0.7-0.3-1.3-0.3-1.9,0c-0.6,0.2-1.1,0-1.6-0.6V73l-0.4-3.3v-1l0.3-0.9c0-0.7,0-1.1-0.2-1.7
			c-0.2-0.4,0-1,0.4-1.5l-0.3-0.9l0.2-0.9v-0.2l0.2-0.9c0.2-0.3,0.2-0.6-0.2-0.9l-0.3-1l-0.2-0.4l0.3-0.6l0.3-3.9v-0.3l0.2-2.6
			c0.2-0.3,0.2-0.6,0.2-0.9v-0.2L640,51l0.3-0.7l-0.2-1.9l0.2-1.7c0.2-0.3,0.4-0.4,0.7-0.4s0.6,0,0.9-0.2l4.8,0.2l2.5,0.6h0.2
			l2.7,1.6l1.3,1.3l1.4,2.5l0.4,1l1.3,2.5l0.3,0.9l0.3,0.3l0.3,1.3C657.6,58.9,657.6,59.7,657.4,60.6z M735.3,68.9h-0.2l-0.9,0.3
			l-0.2,0.2h-0.9c0,0-0.2-0.2-0.3-0.2h-0.7l-5.2,0.6l-0.7,0.4l-0.2,0.2l-0.3,0.7l0.7,1.1c0.2,0.3,0.2,0.7,0,1.1l-0.2,1.1v0.2
			c-0.2,0.4,0,0.9,0.2,1.3l0.2,0.3l-0.3,1.1v0.6l0.2,0.7l-0.2,0.4l-0.4,1v-0.2l-0.6,4.3c-0.2,1.3-0.6,2.6-1.3,3.6
			c-0.7,1.1-1.3,2.5-1.7,3.6l-2.3,2.9c-1,0.5-2,1.1-2.7,1.9c-0.9,0.7-1.9,1.3-2.9,1.6l-1.5,0.4c-0.4,0.3-0.9,0.4-1.6,0.3l-5.1,0.7
			l-12-1.1l-1.6,0.2l-2-0.6h-0.2l-0.3-0.6l0.7-0.9l0.7-0.4l1.1-0.3c0.4-0.2,0.6-0.3,0.6-0.6l-0.4-1.5l-0.2-2.3l-0.2-0.9v-0.7
			l0.3-1.3v-0.9l-0.3-0.6c-0.2-0.7-0.2-1.5,0-2l0.2-4.5c-0.2-1-0.2-1.9,0-2.7l-0.3-16.9c0.3-0.7,0.4-1.5,0.2-2
			c-0.2-0.7-0.2-1.5,0-2.1c0.2-0.7,0.2-1.6,0-2.3v-0.2l0.2-1.7l-0.2-0.3v-0.6c-0.2-0.9-0.2-1.7,0.2-2.6v-1l0.2-0.4h0.2l1.7-0.4
			l1.7-0.2l3.6-0.6l4.3,0.2l3.6,0.6l0.4-0.2l1.5,0.3l0.2,0.3c0.4,0.2,1,0.4,1.5,0.4l0.3,0.2l1.6,0.7l1.1,0.6l2.9,1.9
			c0.3,0.6,0.7,1,1.1,1.5c0.6,0.3,0.9,0.7,1,1.5c1.1,0.9,1.9,2.1,2.5,3.4c0.6,0.4,0.7,0.9,0.6,1.6l1.1,1.5l0.4,1.5v0.2l-0.2-0.2
			c0.2,0.4,0.3,0.9,0.6,1.1l0.6,0.6c-0.1,0.4,0,0.8,0.3,1.1l0.7,1l0.2,0.2c0,0.3,0,0.6-0.3,0.9c-0.2,0.4,0.2,0.9,0.6,1h1.7l1.7-0.3
			l1.3,0.3h0.2l0.3-0.2h0.9l1.1,0.2l1,0.3l0.3,0.2L735.3,68.9z"/>
		<path class="st3" d="M623.5,71.9l-0.2-0.9v-0.9c0.2-2.1,0-4-0.7-5.7l-0.6-2c-0.2-0.7-0.4-1.3-1-1.7c-0.3-1.5-0.7-2.7-1.7-3.8
			c-0.9-2-2-3.8-3.6-5.5l-0.6-0.7l-7.5-6.2c-0.6-0.4-1.3-0.7-1.9-0.7l-1.7-0.6c-0.4-0.4-0.9-0.6-1.3-0.4L601,42
			c-0.2,0-0.4,0-0.6-0.2l-0.6-0.4l-4.5-1.1l-8.1-0.2l-1.1,0.2h-1.3l-7,1.1l-1.7,0.7l-1.9,0.4l-4.2,2.1c-0.4,0.6-1.3,1-2.1,1.5
			l-1.7,0.9c-0.4,0.3-0.9,0.6-1.6,0.6l-0.9,0.7l-0.4,1.1c-0.2,0.3-0.5,0.6-0.9,0.7l-1,0.3l-0.7,0.7l0.3,0.9c0,0.3,0,0.6-0.2,0.9
			l-1-0.2v0.7c-0.4,1.1-1,2.3-1.7,3.2c-0.9,1-1.5,2-1.7,3.2c0,0.7-0.3,1.6-0.7,2.3c0,0.6,0,1.1-0.2,1.7l-0.6,0.8l-0.2,0.2v0.3
			l-0.2,0.2v1.1l-0.2,0.3v0.6l-0.2,0.6v0.2l0.2,2.7l-0.2,0.4l0.3,3l-0.2,0.4l-0.2,1.3v0.6l0.3,1.3v0.4l0.2,1l1.7,5.2
			c0.4,1.6,1.1,3.2,2,4.6L559,90l1,1.6v0.2l5.2,5.9c1.9,1.9,4,3.3,6.3,4.5c0.9,0.2,1.9,0.6,2.9,1.3c0.9,0.4,2,0.7,3,1l2.3,1
			c-0.2,1.1-0.9,2.3-1.7,3.3l-2.6,2.9c-0.9,1-2,1.7-3.2,2l-3.6,0.7c-0.9,0.6-1.6,0.9-2.1,1l-7.2-0.7c-0.4,0.2-0.7,0.3-0.7,0.7
			l-0.6,0.7c-1.1-1.1-2.6-1.5-4.2-1.1l-4.6-0.4l-1.1-3.9v-0.2l-0.2-0.3l0.2-0.3v0.6c0-0.6,0.2-1,0.7-1.5c0.3-0.4,0.7-1,0.9-1.6
			l-1.1-5.7l-0.2-0.3l-0.3-1.1l0.3,0.2h0.2c0.2-0.4,0.3-1,0.3-1.5V97l-0.2-0.3l-0.3-0.2v0.2c0,0.2,0,0.4-0.2,0.6l-0.3-0.9l-0.3-1.1
			l0.3-2.1v-4l0.4,4.3v-4.6l-0.4-1.7l0.2-22.5c0-0.7,0-1.5-0.4-2l0.4-4l-0.4-3.9c0.3-0.6,0.4-1.1,0.4-1.9c0-0.6-0.2-1.3-0.4-1.7
			c0.4-0.9,0.6-1.7,0.3-2.6c-0.3-0.9-0.2-1.6,0.3-2.5c-0.3-2-0.3-4-0.2-6.2l0.3-6.1l0.4-1.3l0.3-2.3l0.7-2.1l0.6-1l0.9-0.9
			c0.6-1,1.3-1.6,2.3-1.7l2.1-1h1.6l0.3-0.2h0.6L559,23h0.6c0.4,0.2,0.9,0,1.1-0.3l-0.4-0.2l0.3-1l-0.2-1l-4-0.2l-9.1,0.7h-1.9
			l-1.3,0.2l-13-0.8c-0.7,0.2-1.1,0.2-1.6,0l-1.3,0.3H527c-0.4,0-0.6,0.2-0.4,0.4l-0.3,0.7v0.7l0.3,0.4h0.1l-0.1,0.1l3.9,0.4
			l1.5,1.6l0.4,1.1l0.3,0.2l1.1,1.3V28l-0.2,0.4l-0.3,0.7l-0.2,0.3l-0.2,0.4l0.2,0.7l0.6,0.7l0.2,0.6v0.7l-0.2,0.2l-0.3,1.3l0.3,1.3
			l0.2,0.6c0.2,0.4,0.2,1,0,1.6l0.6,4.9v0.2l0.2,0.6v0.2l-0.4,2.6V46l0.3,0.7v0.4l-0.3,1.5v0.4l0.2,0.6l0.9,2.9
			c0.4,0.6,0.6,1.1,0.6,1.7l-0.2,5.7c0.3,1,0.3,2,0.2,3l0.2,1.5c0.2,0.6,0,1-0.2,1.3l-0.2,1.6l0.3,4.9l-0.2,1.6l0.2,0.9
			c0.2,0.4,0,0.9,0,1.3v0.6l-0.7,2.6c0,0.7,0.2,1.5,0.6,2.1v0.3l-0.3,1.1l-0.2,0.2l0.2,1.3l0.2,0.3l0.2,0.3v-0.2
			c0.2,0.7,0.2,1.5,0,2.1l-0.6,2.6v2.5c0.2,0.7-0.2,1.6-0.4,2.1c-0.2,1,0,2.1,0.3,3.3c0.3,1.1,0.4,2.1,0.4,3.3c-0.2,1-0.6,2-1.7,2.9
			c-0.3,0.7-0.2,1.3,0.3,1.9l0.6-0.2l0.4,0.2c0,0.4,0.2,0.6,0.4,0.7l0.3,0.7l-1,1c-0.3,0.4-0.7,0.6-1.3,0.4l-0.2,0.4l0.2,0.4
			c-0.2,0.7,0,1.3,0.3,1.9c0.4,0.4,0.4,1.1,0.3,1.9l-1.5,1.7c-0.2,0.6-0.4,1.1-1,1.6l-2.3,1.5c-0.2,0.2-0.3,0.2-0.6,0.2
			c-0.2,0.2-0.3,0.2-0.6,0.2l-0.6,0.3l-1.5,0.3h-0.2l-0.4,1.3v0.2h-0.2v0.7l1.3,0.3l-1.3,0.2l2.9,0.4l19.7,0.3l0.9,0.3h0.9l2.6-0.3
			l25.3,0.4c0.4-0.2,0.7-0.6,0.9-1l0.9-2c0.4-0.6,0.6-1.3,0.4-2l1.3-4.5l-0.3,0.7l1.6-5.5l0.6-1.3v-0.6l0.3-0.2h2.7l0.3,0.3l2.9,0.2
			l8.4-0.6l0.7-0.3l0.9-0.3l0.7-0.2h0.6c0.4-0.2,0.9-0.4,1.3-0.6l1.5-0.4l0.9-0.4l0.7-0.4l3.3-1.5c0.7-0.3,1.3-0.7,1.9-1.1l1-1.1
			c0.6,0,1.1-0.3,1.6-0.9l2.7-2.9c0.3-0.6,0.7-0.9,1.3-1l1.5-2.1l1-2.6l0.4-0.4l0.9-1.1l0.2-0.7l1-1c0-1,0.2-1.7,0.6-2.5
			c0.4-0.7,0.6-1.6,0.4-2.6l0.4-1l0.7-3.3v-2.7l0.2-1C623.8,73,623.8,72.5,623.5,71.9z M612.1,76.3c-0.2,0.4-0.2,0.9,0.2,1.3
			c0.2,0.3,0,0.7,0,1l-0.2,1.1c-0.4,0.4-0.6,1-0.4,1.5c0.3,0.6,0.3,1.1,0.3,1.7l-0.3,1.1c0,0.3-0.2,0.7-0.6,0.9l-0.6,2.7l-0.9,1
			c-0.3,0.4-0.5,0.9-0.4,1.5c-0.6,1.3-1.5,2.6-2.5,3.8c-1,1.3-2.1,2.1-3.4,3c-1.1,1-2.3,1.9-3.4,2.3l-4,1.1
			c-0.3,0.3-0.7,0.4-1.3,0.4l-4.5,0.2l-2.9-0.3l-1.7-0.4l-1.7,0.2L582,100l-0.4-0.4l-0.7-0.2l-1.3-1.5c-0.6-0.4-1-0.7-1.7-0.9
			l-0.6-0.9l-0.9-0.2l-0.8-0.2c-0.4-0.3-0.6-0.9-0.6-1.5c0.2-0.4-0.3-0.9-0.9-1l-1.9-2.3l-4-6.9l0.2-0.3v-0.6l-0.2-0.6l-1-1.6
			l-0.2-0.4l0.2-0.4l0.2-0.3v-0.2c0-0.4-0.2-0.9-0.3-1.1c-0.3-0.4-0.4-0.7-0.3-1.1v-0.2l-0.2-0.2l-0.7-2.3c-0.2-0.4,0-0.9,0.3-1.5
			c-0.2-0.6-0.3-1.3-0.6-1.9c-0.4-0.7-0.4-1.3-0.2-2c0.4-0.9,0.4-1.7,0-2.5l0.2-1.3c0.2-0.4,0.2-0.7,0.2-1.1l0.7-1.5
			c0.2-0.6,0.2-1,0.2-1.7c0.4-0.7,0.7-1.5,0.4-2.3c0.4-0.4,0.7-1,0.9-1.6c0.2-0.7,0.6-1.3,1-1.7c0-0.3,0-0.7,0.3-1l0.4-0.4l0.9-1.1
			l0.2-0.2l0.3-0.7l1.1-1.5l1-0.3v-0.2l0.3-0.9l0.4-0.3l1.5-0.6l1.5-1.1c1-0.6,1.9-0.9,2.9-1.1l0.9-0.4c0.3,0,0.6-0.2,1-0.3h0.3
			l0.9-0.2l0.9-0.3h0.3l3.8-0.4h1.3l4.5,0.9l4.6,1.9l1.3,0.9l3.8,3l1.9,2.1l0.3,0.2c0.7,0.9,1.1,1.7,1.6,2.7c0.6,0.9,1.1,2,1.6,3.2
			l1.6,3.3l0.9,3.2c0.6,1,0.7,2.1,0.6,3.4c0.4,0.6,0.6,1.3,0.6,2.1c-0.2,0.9-0.2,1.6,0.2,2.3c0.3,0.3,0.3,0.7,0.3,1L612.1,76.3z"/>
		<polygon class="st3" points="536.6,48.9 536.9,45.7 537.1,50 		"/>
		<polygon class="st3" points="547.7,88.6 547.3,87.1 547.4,84.2 		"/>
	</g>
	<g id="Layer_6">
		<g>
			<path class="st3" d="M733.7,158.8l-2.3,0.5h-2.8l-5.7-0.6c-0.2-0.2-0.5-0.2-0.8-0.2h-0.8l-1.3,0.2c-0.1-0.2-0.3-0.2-0.5-0.2
				l-0.6,0.2l-0.7,0.1h-0.7l-0.5,0.1l-0.3-0.1l-1.2,0.2l-1.2,0.1l-3.7,2l-2.1,1.5c-0.5,0.2-0.8,0.6-1.1,0.9l-0.3,1.3h-0.5l-0.2-0.5
				c-0.5,0-0.7,0.2-0.8,0.5l-1.4,1.7c-0.3,0.3-0.5,0.7-0.3,1.1c-0.3,0.6-0.5,1.1-0.5,1.7c-0.1,0.6-0.4,1.1-0.8,1.5v0.7
				c0,0.2,0.2,0.3,0.5,0.5l-0.2,0.7c-0.1,0.2-0.1,0.6,0.1,0.9c0.2,0.2,0.2,0.6,0,0.9c-0.1,0.2-0.1,0.5,0.1,0.8
				c0.5,0.6,0.6,1.4,0.5,2.2c0,0.3,0,0.6,0.2,0.8l0.7,0.5c0.1,0.1,0.2,0.3,0.1,0.7l1.2,1.5c0.3,0.5,0.8,0.9,1.4,1.2l0.1,0.2h-0.1
				l0.3,0.3l0.7,0.6l1.1,0.6l0.3,0.1c0.6,0.7,1.3,1.2,2,1.4l0.9,0.3l1.4,0.9c0.5,0.3,0.9,0.7,1.7,0.8c0.6,0.1,1.1,0.5,1.7,0.8
				c0.3,0.2,0.7,0.3,1.2,0.6l1.3,0.5l3.1,1.5l0.8,0.6l0.2,0.2c0.3-0.1,0.7,0.1,1.1,0.5l0.7,0.9h0.2l0.7,0.5l0.5,0.8
				c0.6,0.2,0.8,0.7,1.1,1.3c0.1,0.5,0.3,0.9,0.7,1.4v0.3l0.3,2.5l-0.7,1.2c-0.3,0.5-0.5,0.9-0.3,1.4l-0.5,0.7l-0.3,0.7
				c-0.3,0.9-0.7,1.7-1.2,2c-0.3,0.3-0.8,0.5-1.3,0.5l-1.3,0.2c-0.6,0.1-1.2,0.3-1.7,0.6l-1.4,1.1c-0.5-0.2-1.1-0.5-2-0.6l-2.5-0.1
				l-0.3-0.2h-0.5l-2.3-0.3l-0.5-0.3c-1.3-0.1-2.6-0.5-3.7-1.1l-0.8-0.5c-0.3-0.2-0.7-0.5-0.9-0.6c-0.8-0.3-1.4-1-1.7-1.7l-1.5-2.1
				c-0.2-0.5-0.5-0.9-0.3-1.7c0-0.6-0.1-1.2-0.3-1.7c-0.2-0.3-0.2-0.7-0.1-0.9c0.1-0.3,0.1-0.7,0-1.2l-0.1-0.7l-0.2-0.7l-0.3,0.1
				V194c-0.5,0-0.8,0.1-0.9,0.3l-0.1,0.1l-0.2,1.3l-0.1,0.5v1.2l0.1,0.5l-0.1,4.5l0.3,2.2v0.6l0.5,1.7c0,0.6,0.1,1.2,0.2,1.7v0.1
				l0.1,0.1c0.3,0.3,0.6,0.5,1.1,0.6l7.1,2.1c0.5,0.1,0.8,0.1,1.2,0c0.3-0.2,0.5-0.5,0.5-0.7l-0.7-0.1l-0.6-0.3
				c0-0.2,0.2-0.3,0.3-0.3l0.6-0.2l1.7,0.3c0.6,0.1,0.9,0.3,1.4,0.7v0.3l-0.2,0.2l-0.2,0.3v0.2l0.3,0.3l5.3,0.1l6.1-0.9l3.3-1.4
				c0.5-0.3,0.8-0.6,1.3-0.8l2.5-2l2-2.2l0.7-1.5l0.2-0.7l0.7-1.5l0.2-1.2l0.5-1.5l-0.2-2.6v-0.1l-0.3-2.5c-0.1-0.8-0.3-1.5-0.7-2.1
				l-1.1-2c-1.2-1.5-2.6-2.7-4.1-3.7s-3.1-2-4.6-2.7l-5.1-2.2l-1.5-0.6l-3.7-2.3c-1.3-0.7-2.3-1.7-3.4-3.1c0-0.5-0.2-0.9-0.5-1.3
				l-0.2-0.7l-0.6-2.9l0.1-0.2l0.3-1.1c0-0.6,0.2-0.9,0.7-1.2v-0.1l0.2-0.1l1.3-1.7l1.9-1.3l0.3-0.1l0.2,0.1h0.1l0.5-0.2l1.1-0.1
				c0.1-0.2,0.5-0.3,0.7-0.5l1.7,0.1l1.7-0.2c0.2-0.1,0.6-0.1,0.8,0l0.2,0.1h0.7l1.1,0.1l0.8,0.2c0.8,0.1,1.5,0.5,2.1,0.9l0.7,0.5
				l1.3,1.2l0.7,0.8l1.4,2.9l0.1,0.5l0.1,1.2v0.1l0.2,0.8v0.3c-0.1,0.5,0,0.8,0.2,1.2h0.9c0.3,0.1,0.6-0.1,0.8-0.3l0.1-4.5
				c-0.1-1.3,0-2.6,0.2-3.7c-0.1-1.2,0-2.2,0.2-3.2l0.1-0.7v-2.5l-0.7-0.3v0.1l-0.2-0.1L733.7,158.8L733.7,158.8L733.7,158.8z
				 M681.5,159.3h-3.7l-0.5,0.2c-0.2-0.1-0.3,0-0.5,0.2l-1.7,0.1l-2.6,0.6c-0.5,0-0.8,0-0.9,0.2l-0.9,0.3c-0.3-0.5-0.7-0.6-1.1-0.3
				l-0.9,0.8l-1.2,0.1l-2.5,2.7l-2,1.4c-0.2,0.3-0.2,0.7-0.2,1.1c-0.1,0.3-0.2,0.6-0.6,0.6l-0.9,0.1c-0.1,0.1-0.2,0-0.3-0.1
				l-0.1-0.2c-0.2,0-0.6,0.2-0.9,0.7l-3.4,5.1c-0.5,0.9-0.8,1.9-0.8,2.9c-0.3,0.3-0.5,0.8-0.5,1.4l-0.2,1.4v-0.2l-0.1,0.3l-0.2,0.6
				c-0.2,0.6-0.4,1.2-0.3,1.9v0.1c-0.1,0.9-0.1,1.9,0,2.8c-0.1,0.6-0.1,1.2,0,1.9c0,0.6,0,1.3-0.2,1.9l0.2,0.8l0.2,2.3l0.2,0.2v0.1
				c0,0.1,0,0.2,0.2,0.3l0.5,1.2c-0.1,0.5,0,0.7,0.1,1.1l1.5,3.7l2.8,4.2c1.1,1.4,2.3,2.6,3.9,3.4c0.9,1,1.9,1.7,3.2,2.2
				c1.2,0.6,2.3,1.1,3.5,1.7l2.6,0.9l1.3,0.2l0.5,0.2l2.1,0.5l1.7,0.1l3.5,0.2l0.2,0.1h0.6l1.2-0.1h1.4l0.2-0.2l2.8-0.1l0.2-0.2h0.2
				l0.6-0.1h0.7l2-0.5l0.7-0.1l0.6-0.1l0.2-0.1l1.1-0.3l0.6-0.1l0.7-0.1l0.2-0.2l0.5-0.1l0.7-0.3l0.1-0.1l-0.1-0.9v-0.2l-0.1-1.7
				l0.1-0.6c-0.2-0.7-0.2-1.3-0.2-1.9v-0.1c0.1-0.7,0-1.4-0.2-2c-0.1-0.3-0.1-0.6,0.1-0.8v-5.1l0.2-0.1l0.1-3.4l0.3-0.6
				c0-0.9,0.1-1.7,0.6-2.2l0.3-1.1h0.1v-1.4h-3.9l-0.7-0.2h-0.7l-1.3,0.2h-1.2l-0.6,0.1c-0.2-0.1-0.5,0-0.7,0.2l-3.7-0.6l-5.1,0.2
				c-0.2,0-0.3,0.1-0.5,0.5v0.1h-0.1v0.6l0.6,0.6h3.7l1.7,0.8c0.3,0,0.6,0.1,0.8,0.6l0.3,0.9c0,0.2,0.1,0.6,0.3,0.6l0.2,0.1
				c0.1,0.1,0.2,0.3,0.3,0.6l0.2,0.8v0.1l0.1,0.5v0.3l0.2,2.1L689,197l-0.1,3.7l0.2,0.6l0.1,0.2c0.2,0.5,0.1,0.9-0.2,1.5v0.3
				l0.1,0.3l0.1,0.9c0,0.3,0.3,0.6,0.9,0.7l0.6,0.5v-0.1v0.3l-0.1,0.8c-0.1,0.3,0,0.6,0.2,0.9l-1.2,0.3l-0.7,0.2l-0.1,0.1l-0.2,0.1
				h-2l-3.3-0.5l-5.3-1.3l-1.4-0.1l-2.2-1.2l-1.2-0.2l-3.7-3.3l-0.8-1.3l-0.9-1.2c-0.1-0.6-0.3-1.2-0.8-1.5
				c-0.6-0.5-0.9-0.9-1.1-1.5c-0.5-0.2-0.6-0.5-0.6-0.8l-0.1-0.9l-0.1-0.5l-0.2-0.9l-0.6-1.3v-0.6l-0.5-2.6l-0.5-1.2l0.2-2.3
				c-0.2-0.5-0.3-1.1-0.3-1.7l0.2-1.9v-0.9c0-0.3,0-0.7,0.2-0.9c-0.3-0.6-0.3-1.2,0-1.7l0.3-1.7l1.1-3.3l0.7-0.8l0.1-1.1
				c0.1-0.3,0.3-0.6,0.7-0.8l0.8-1.5c0.2-0.6,0.7-0.9,1.3-1.2l1.1-0.7c0.2-0.3,0.6-0.6,0.9-0.7c0.5-0.6,1.1-1.1,1.7-1.3l2.5-0.9h0.6
				c0.5-0.2,0.9-0.3,1.5-0.5l2-0.5l6.7,0.1l0.8,0.2l2.7,0.6l1.7,1.1c0.5,0,0.7,0.2,1.1,0.5l0.9,0.6l3.1,3.9c-0.1,0.5,0,0.9,0.1,1.4
				l0.2,0.6l-0.2,2.3v0.5l0.7,0.5l1.1-0.2c0.4,0,0.7-0.2,0.8-0.6c0.1-0.6,0.1-1.1-0.2-1.5v-0.5c0-0.3,0.1-0.8,0.6-1.1l-0.1-0.7
				l-0.3-0.2l-0.1-0.3v-0.2c-0.1-0.2,0-0.6,0.1-0.8l0.5-0.9c-0.3-0.2-0.5-0.6-0.3-0.8v-0.1l0.2-0.8v-0.8l-0.1-0.1v-0.5l0.2-0.3
				l0.1-1.3l0.3-1.5c0-0.6,0-1.1,0.1-1.4v-0.3l-0.1-0.1v0.1l-0.1-0.1v-0.1L699,160l-0.6,0.1h-0.1l-0.5-0.2l-1.7,0.1l-2.5-0.2
				l-1.2-0.2l-9.7-0.3l-0.7,0.1L681.5,159.3L681.5,159.3L681.5,159.3z"/>
			<path class="st3" d="M655.3,160h-2.2l-1.4,0.2h-1.4l-1.1,0.1l-4.8-0.5l-4.1,0.1c-0.2,0.1-0.3,0.3-0.2,0.6v0.7l0.1,0.3h-0.1
				l0.2,0.2h0.3l0.7,0.2l0.7,0.1l1.2,0.6l0.5,0.3c0.5,0.3,0.8,0.8,1.1,1.5l0.3,1.9l0.2,1.9v0.1l0.1,0.2l0.1,0.5v0.1
				c-0.1,0.3-0.1,0.6-0.1,0.9l-0.1,0.3c-0.1,0.3-0.1,0.8,0.1,1.3l0.1,0.2l0.1,0.5v0.3l-0.1,0.6c-0.1,0.2-0.2,0.5-0.2,0.7v0.2
				l0.1,0.3l0.1,0.6l0.1,0.3l0.1-0.1v0.6l-0.2,0.8l0.2,3.4c0.1,0.5,0.2,0.8,0.1,1.3l-0.3,1.3c0.3,0.5,0.5,1.1,0.5,1.7
				c-0.1,0.7-0.1,1.3,0.1,1.9c0.2,0.5,0.2,0.9,0,1.3c-0.2,0.3-0.2,0.8-0.2,1.3c0.3,0.5,0.5,1.1,0.3,1.7c-0.2,0.6-0.2,1.2-0.1,1.7
				l0.1,1.9c-0.1,0.7,0,1.3,0.2,2l-0.2,0.3l-0.5,0.2l-1.5-1.7l-1.7-1.7l-0.6,0.3c-0.5-0.3-0.7-0.7-0.8-1.2l-0.1-1.4
				c-0.6-0.9-1.4-1.7-2.3-2.5l-0.5-0.6l-0.8-0.5c-0.1-0.6-0.3-1.2-0.9-1.7l-1.4-1.4h-0.7l-0.6,0.3c-0.6,0-1.1-0.3-1.1-0.7v-2.7
				l-2.5-3.1c-1-0.9-1.8-2-2.5-3.2L617,160.4c-0.3-0.3-0.7-0.5-1.3-0.5l-3.2,0.5h-6.9l-1.3-0.3l-1.4,0.1l-0.9-0.2l-1.1,0.2
				c-0.3,0-0.6,0.2-0.6,0.6v1.1l0.2,0.1l0.1,0.1h0.5c1.4,0,2.6,0.2,3.9,0.7c0.9,0.3,1.8,0.9,2.6,1.5l0.6,0.6l0.2,0.2l-0.1,0.2
				l-0.2,0.8l-0.1,0.1v0.8l0.2,0.5v1.1l0.2,1.1v0.7h-0.1v1.7l0.2,0.8l-0.1,4.7l0.2,1.7v-0.1l0.1,0.5l-0.1-0.3l0.1,5.2v0.2l-0.1,0.3
				v0.2l0.2,0.7l-0.1,2.2c-0.2,0.3-0.1,0.8,0.1,1.3s0.2,0.8,0,1.4l0.2,0.9c0,0.3,0,0.7-0.1,1.1l-0.1,0.7v0.7
				c0.2,0.3,0.2,0.7,0.2,1.3l-0.2,1.2c0.3,0.6,0.5,1.3,0.5,2l-0.3,2.3l-0.1,0.2v0.3c-0.3,0.5-0.3,0.9-0.1,1.5c0,0.5-0.1,1.1-0.3,1.4
				c-0.1,0.7-0.5,1.3-0.8,1.7l-1.4,1.4c-0.6,0-1.1,0.2-1.4,0.6c-0.5,0.2-1.1,0.5-1.5,0.5l-0.6,0.7l-0.2,0.6v0.1l0.1,0.5l0.3,0.1
				l3.2-0.2l0.1-0.1h1.1l1.9-0.2h1.7l0.6,0.2h0.7l0.9-0.2h0.3l0.8,0.3l1.3-0.1l1.3,0.1h2.9c0.2,0.1,0.5,0,0.6-0.3l0.1-0.9l-0.3-0.6
				c-1.1,0-2-0.2-2.7-0.6l-2.2-1.7l-0.9-3.2c-0.2-1.2-0.2-2.2-0.1-3.4l-0.1-1.3l0.1-1.4l-0.3-3.9l0.1-1.1V192l-0.1-0.8V190l0.1-1.7
				l-0.1-2.9c-0.3-0.8-0.2-1.7,0-2.5v-0.1l-0.1-0.8v-0.3l0.1-0.8V180l-0.3-1.5l0.2-0.6v-0.2l0.1-0.3c0.1-0.5,0.1-0.7-0.1-1.1
				l-0.1-1.1c0.1-0.5,0.1-0.8,0-1.2l-0.3-1.1c-0.1-0.7,0-1.2,0.5-1.7c0.5,0,0.8,0.1,0.8,0.5l0.2,0.3l0.1,0.6
				c0.1,0.3,0.3,0.5,0.8,0.7c0,0.7,0.2,1.2,0.9,1.5c0.6,0.3,1.1,0.8,1.4,1.3c0.5,0.5,0.8,0.9,1.1,1.5c0.1,0.5,0.6,0.9,1.2,1.3
				l0.8,1.2c0.5,0.6,0.9,1.2,1.3,1.7l0.5,0.7l2.9,3.3c0.8,0.7,1.4,1.4,1.9,2.5c0.6,0.5,1.2,1.2,1.5,1.9l1.5,2
				c0.2,0.6,0.6,1.1,1.1,1.4c0.6,0.3,0.9,0.8,1.2,1.4l2.5,2.3c0.6,1.3,1.4,2.3,2.6,3.1l0.6,0.9v0.2l0.6,0.5l0.6,0.7l0.2,0.1
				c0.3,0.1,0.6,0.5,0.7,0.9l4.1,4.7c0.1,0.5,0.5,0.7,0.8,1.1l0.3,0.1l0.8,0.8l2,0.3l0.2-0.1h1.1l1.3-0.5l-0.1-0.6
				c0.1-1.2,0.1-2.5,0-3.7v-6.5l0.1-0.5V199l-0.1-0.5l-0.3-4.1l0.2-0.5v-1.2l-0.1-0.2v-0.6l-0.1-0.1l0.1,0.1V191
				c0-0.2,0-0.3,0.1-0.6l-0.2-8.1l0.1-1.1v-0.2l-0.2-3.4l-0.1-1.3c0-0.8,0-1.5,0.1-2.2l0.2-1.1v-4.2l0.5-1.5
				c0.1-0.3,0.1-0.7,0.3-1.1l0.6-1.3l0.2-0.3l0.1-0.6c0.1-0.2,0.3-0.5,0.6-0.6l0.3-0.2l0.8-0.7l0.5-0.2h0.6l0.2-0.1h0.9
				c0.1-0.2,0.2-0.2,0.5-0.2l0.1-0.1l0.1-0.3l0.1-0.5l-0.1-0.7L655.3,160L655.3,160z"/>
			<path class="st3" d="M642.4,192.6v-0.5l-0.2-0.2c-0.3,0.2-0.5,0.5-0.5,0.8l0.3,0.2l0.2-0.1L642.4,192.6L642.4,192.6z M587.4,165
				l-0.8,0.1l-3.9,0.1h-0.2h0.1c1.1,0.1,2.2,0.5,3.2,1.2c0.7,0.5,1.2,1.9,1.4,4.1c0.1,2.2,0.1,4.8,0,7.7l-0.7,8.3v1.3l-0.2,0.3v0.6
				c-0.1,0.1-0.2,0.3-0.1,0.6c0.2,0.2,0.2,0.6,0.1,0.8c-0.3,0.3-0.3,0.6-0.1,0.9c0.2,0.2,0.3,0.5,0.5,0.9c-0.2,0.5-0.2,1.1-0.1,1.7
				c0.2,0.5,0.2,0.9,0.1,1.5l-0.5,0.9c0.2,0.5,0.2,1.1,0,1.7l-0.5,1.7l0.5,1.1l0.7,0.9l0.1,0.8c0,0.2,0,0.5-0.2,0.8
				c0.3,0.5,0.5,1.1,0.3,1.5l-0.2,1.7l-1.7-0.2l-0.2,0.6l-0.1,0.7l-0.5,0.6l-0.7,0.3l-2.1,0.6l-0.7-0.1c-0.1,0.2-0.2,0.2-0.5,0.2
				l-0.6,0.7v0.6c0.1,0.1,0.2,0.2,0.2,0.5c0.1,0.1,0.2,0.1,0.3,0.1l4-0.1c0.8,0.1,1.6,0.1,2.3,0l1.7-0.1l0.6,0.1l1.3-0.2h0.3
				l0.9,0.2l2.6-0.2l5.5,0.2l0.5,0.1h0.1l0.5-0.1c0.3-0.1,0.6-0.2,0.5-0.6c-0.1-0.3,0-0.6,0.2-0.9c-0.3-0.2-0.6-0.2-0.9-0.2h-0.8
				l-2.3-0.8c-0.7-0.3-1.3-0.9-1.7-1.7l-0.7-2.5c-0.2-1.7-0.3-3.7-0.2-5.5v-5.6l-0.1-0.7c0.2-0.7,0.2-1.5,0.2-2.3v-2.5l-0.1-0.9
				l0.2-12l0.3-1.4v-0.3l0.5-1.9c0.1-0.8,0.5-1.7,1.1-2.2l0.3-0.7l0.1-0.2l0.5-0.2l2.5-0.6h0.1l0.7-0.1l0.1-0.2l0.1-0.2l0.2-1.2
				l-13.1,0.1L587.4,165L587.4,165z"/>
			<path class="st3" d="M583.7,168.9c0.1,0.5,0.2,0.8,0.6,1.2l0.8,1.2v0.8l0.7,1.5v0.1l-0.1,0.7l0.1,0.1c0.2,0.3,0.5,0.7,0.3,1.2
				l-0.1,1.3l0.1,1.3v1.1l0.2,1.1l-0.2,2.5l0.3,0.6l0.1-5.6c0-2.8-0.1-5.1-0.5-6.8c-0.2-1.9-0.7-2.9-1.4-3.4l-2.7-1.7
				c-0.7-0.5-1.4-0.7-2.1-0.6l-0.3,0.6v0.7l0.2,0.1l0.8,0.2c0.3,0,0.7,0.1,1.1,0.5c0.3,0,0.8,0.1,1.1,0.5L583.7,168.9z"/>
			<path class="st3" d="M580.1,165l-0.1,0.2c0.5,0,0.9-0.1,1.5-0.1L580.1,165z M586.4,186v0.6v-0.9V186L586.4,186z M562,152
				l-1.1-0.2l-2.9-0.6c-0.3-0.2-0.8-0.3-1.3-0.3l-1.5,0.1c-0.2-0.1-0.5-0.3-0.8-0.3s-0.6,0.2-0.8,0.3l-5.5-0.3L542,151l-2.6-0.1
				l-10.6,0.7l-1.9,0.3c-0.7-0.1-1.3,0.1-1.9,0.5l-0.1,0.3v0.6l0.5,0.8l2.1,0.2l1.3,0.3c0.7,0.1,1.4,0.5,2.1,1.1l0.9,1.1l0.2,0.7
				l0.1,0.1v0.1l0.1,0.1l0.3,0.8v-0.2l0.1,0.7l0.1,2c-0.1,0.7,0,1.3,0.3,1.9l-0.1,0.6l0.1,0.8c0.1,0.2,0.2,0.5,0.2,0.8l-0.1,0.5v0.1
				l-0.1,0.5v2.7l-0.2,0.6v0.1l0.2,0.8v2.7l0.1,2.7l-0.2,3.3l0.1,1.7c0.1,1.7,0.2,3.4,0,5.1l0.1,16.7l-0.1,1.5l-0.4,3.9l-0.5,1.3
				l-0.7,1.4l-1.4,1.5c-0.3,0.6-0.9,0.9-1.7,1.1c-1.1,0.7-2.1,0.9-3.3,0.9c-0.5,0.1-0.6,0.3-0.7,0.7v1.3l0.2,0.1l0.7,0.2l0.9-0.2
				h5.2l0.2-0.1h0.3l1.2-0.2h0.2l0.9-0.1h4v0.1l6.1,0.2l0.2,0.1l4.2,0.3l0.7-0.1h0.2l0.3-0.3l0.2-1.5l-0.2-0.2h-0.3v-0.1l-0.7-0.1
				l-0.6-0.1l-1.7-0.5l-5.2-0.3l0.1-0.3h0.1l0.5-0.3l0.1-0.1l0.5-0.1l0.7-0.5v-0.7l-0.3-1.3v-1.3l-0.2-1.1l-0.6-1.4
				c0.2-0.6,0.2-1.2,0.2-1.9v-1.9c0.1-0.6,0-0.9-0.2-1.4c-0.1-1.2-0.1-2.3,0-3.5c0.2-1.1,0.2-2.2,0-3.4l0.2-1.2v-0.1l-0.2-1.3
				l0.2-0.3l0.7,0.1l2.7-0.1l0.7,0.1h0.2l0.2-0.1h1.3l6.7,0.1h0.2l0.3,0.1h0.1l0.1,0.1l0.6,0.6c0.5,0.1,0.6,0.3,0.7,0.7l0.1,0.9
				c0,0.2,0.2,0.5,0.6,0.7c-0.1,0.5-0.1,0.9,0.1,1.5l0.5,1.1l0.1,0.3l0.6,0.5h0.8l2.8-0.7h1.2c0.5,0.1,0.8,0.1,1.3,0h0.2l0.8,0.5
				l0.2,0.2c0.1,0.3,0.2,0.6,0.1,0.9v-0.1l-0.1,0.5v0.2l-0.1,0.1h-0.5l-0.6-0.7l-0.3,0.2l-0.2,0.5l0.5,0.3l0.3,0.1h0.1
				c0.2,0.1,0.2,0.2,0.2,0.6l-0.1,0.5v0.1l-0.1,0.2H566l-0.2-0.1l-0.2-0.6l-0.3-0.6l-0.2-0.2l-0.5-0.3l-0.3-0.3l-0.7,0.6l-0.7,0.2
				h-0.1l-0.5-0.6c-0.2-0.2-0.5-0.3-0.7-0.1l-0.2,0.3l0.2,0.8v0.8c0.2,0.7,0.6,1.2,0.9,1.4c0.5,0.2,0.6,0.5,0.7,0.8v0.1l0.1,0.3
				l0.7,0.7l0.6,0.6l0.1,0.2l0.1,0.1l-0.1,0.5l-0.1,0.2v0.2h0.1l0.1,0.2l0.7,0.6c0.2,0.1,0.5,0.2,0.7,0.6l0.1,0.2l-0.1,0.9l0.3,0.6
				v0.2l0.3,0.1l0.2,0.2l0.2,0.9l0.3,0.3l0.2,0.2v0.1h0.1v0.1c-0.1,0.3,0.1,0.8,0.5,1.1l0.7,0.7l0.1,0.2l0.1,0.7l0.2,0.6l2.5,3.7
				l0.6,0.9c0.5,0.5,0.9,0.9,1.3,1.5l0.8,1.1l0.2,0.2l0.2,0.3c0.6-0.1,0.9,0.1,1.3,0.6l1.1,1.2l0.1,0.5l0.3,0.2l0.9,0.1h0.8l0.2-0.1
				v-0.1l-0.8-0.3l1.1-0.1l0.5,0.1l0.5,0.2h0.6l0.7-0.1l0.3,0.1l0.1,0.1l0.1,0.2l-0.3,0.2v0.8c0.3,0.3,0.9,0.6,1.5,0.6l1.7,0.1v-0.3
				c-0.1-0.1-0.3-0.1-0.5-0.1l-0.3-0.6l-0.6-0.5l1.1-0.1c0.1,0.1,0.1,0.2,0.1,0.3l-0.1,0.2l0.1,0.1c0.7,0.8,1.4,1.2,2.2,0.9l5.5-1.2
				l0.5-0.5l0.1-0.5v-0.2l0.1-0.8c-0.2-0.2-0.6-0.2-0.9-0.2h-1.1l-1.2-0.6l-5.2-3.3l-0.9-0.9c-0.3-0.3-0.7-0.3-1.2-0.1
				c-0.3,0.5-0.5,1.1-0.3,1.7l-1.2-1.3v-0.9c0.1-0.2,0.2-0.4,0.5-0.5l0.7-0.2c-0.2-0.6-0.7-1.3-1.4-2.1l-1.9-2
				c0-0.3-0.1-0.8-0.5-1.1l-1.4-2c-0.5-0.2-0.6-0.6-0.5-1.2c-0.9-1-1.6-2.2-2.1-3.5l-1.2-1.7c-0.2-0.7-0.6-1.4-1.2-1.9l-1.2-2
				c-0.1-0.5-0.3-0.9-0.7-1.4c-0.4-0.3-0.7-0.8-0.7-1.4l-1.3-2.2c-0.2-0.8-0.7-1.5-1.4-2.2c-0.2-0.8-0.6-1.7-1.2-2.2l-1.7-2.9v-0.5
				l0.3-0.3l0.8-0.8c0.2-0.1,0.6-0.3,0.9-0.3l1.7-1.4c0.6-0.5,0.9-1.2,1.2-1.7l1.2-1.3l1.2-1.7l0.7-1.2l1.7-4.7l0.7-4.2v-1.2
				c-0.1-0.7-0.1-1.3-0.3-1.9l-0.3-2l-0.1-0.1l-0.6-3.4v-0.1l-0.2-0.1l-0.5,0.1l-0.2-0.1h-0.2l-0.3-0.5h-0.6c-0.2,0-0.5,0.1-0.6,0.3
				l0.6,0.8l-0.2,0.7l-0.3,0.5l-0.3-0.3l-0.2-0.5l-0.2-0.2l-0.2-0.5h-0.3l-1.3,0.1c-0.2,0-0.3,0.1-0.3,0.2l0.1,0.1v0.1l-0.1,0.2
				l-0.8-0.1l-0.7,0.1l-0.6-0.3v-0.1l0.2-0.6l0.8-0.2l0.1-0.2l4-2.1l0.3-0.6v-0.7l-0.1-0.1l-3.1-2.6c-1.2-0.9-2.3-1.5-3.5-1.9
				l-1.1-0.5l-0.7-0.1c-0.1-0.1-0.2-0.2-0.6-0.2L562,152L562,152z M560,158.2c0.7,0.5,1.3,1.2,1.7,2c1.1,1.3,1.7,2.8,2.5,4.2
				l0.5,2.2c0.2,0.7,0.3,1.7,0.2,3.2c-0.2,1.2-0.2,1.9,0.1,2.1l0.6,0.5l0.5,0.1l-0.3,0.2c-0.2,0-0.3,0.1-0.5,0.2l-0.3,1.7
				c0,0.6-0.2,1.1-0.3,1.4l0.1,0.8c-0.2,0.3-0.3,0.8-0.3,1.3c0,0.6-0.2,0.9-0.5,1.3c-0.3,0.2-0.3,0.5-0.3,0.7c0.1,0.3,0.1,0.6,0,0.8
				l-0.8,0.8l-2.3,3.1c-0.7,0.7-1.7,1.1-2.7,1.2l-0.3,0.2l-0.5,0.2l-0.6,0.3l-0.7,0.1l-1.5,0.7h-3.7l-2.5-0.1
				c-0.6-0.2-1.1-0.2-1.5,0l-1.7-0.2h-0.1l0.1-0.1l-0.9-0.3c-0.5,0.1-0.7,0-0.7-0.3l-0.3-0.9v-7.7c-0.1-0.1-0.1-0.3,0-0.6
				c0.1-0.2,0.2-0.5,0.2-0.8v-0.8c-0.3-0.7-0.5-1.4-0.3-2.1s0.1-1.4,0.1-2.1l0.3-1.2v-2l-0.2-0.2l-0.2-1.1v-0.7l0.1-0.6l0.3-0.9
				l-0.1-0.3v-4.5c0.3-0.5,0.3-1.1,0.3-1.7c-0.1-0.6-0.1-1.2-0.3-1.7l0.3-0.7l0.3-0.1l1.4-0.5l4.2-0.3l2,0.1h0.2v0.1h0.9l0.7,0.1
				l0.1,0.1l0.5,0.1h0.1l2.5,0.6c0.3,0.1,0.6,0.2,0.9,0.5l0.8,0.3l0.1,0.1h0.1L560,158.2L560,158.2z"/>
		</g>
	</g>
</g>
</svg>
